<?xml version="1.0" encoding="utf-8" ?>
<svg xmlns="http://www.w3.org/2000/svg" xmlns:xlink="http://www.w3.org/1999/xlink" width="120" height="120">
	<path fill="#54478C" transform="scale(0.0585938 0.0585938)" d="M0 2046L-0 -0L975.793 0L1010.7 0L1041.55 0L1063.55 0L2048 0L2048 2046L2046.88 2047.88L1385 2048L636 2048L157.128 2048L146.833 2048L1.125 2047.88L0 2046Z"/>
	<path fill="#A8E875" transform="scale(0.0585938 0.0585938)" d="M1010.7 0L1041.55 0L1063.55 0C1063.67 0.9817 1064.43 4.82163 1063.97 5.424C1060.45 6.02685 1056.19 5.27171 1052.57 5.053L1031.34 3.76012L1031.53 2.78068L1012.53 2.51737L1010.7 0Z"/>
	<path fill="#9BD76B" transform="scale(0.0585938 0.0585938)" d="M1010.7 0L1041.55 0L1047.99 2.5399L1031.53 2.78068L1012.53 2.51737L1010.7 0Z"/>
	<path fill="#B4F683" transform="scale(0.0585938 0.0585938)" d="M975.793 0L1010.7 0L1012.53 2.51737L1031.53 2.78068L1031.34 3.76012C1023.52 3.86368 1015.81 3.79304 1008.09 5.22998C999.333 6.86083 990.017 6.03729 981.383 8.18948C978.526 5.55776 977.287 3.57024 975.793 0Z"/>
	<path fill="#9BD76B" transform="scale(0.0585938 0.0585938)" d="M0 2046L-0 -0L975.793 0C977.287 3.57024 978.526 5.55776 981.383 8.18948C957.655 10.6752 933.155 17.9045 910.97 26.6607L890.171 36.547L854.842 56.8981C849.282 60.2921 843.08 63.4244 838.016 67.5048L795.794 95.3337C789.96 99.2908 783.229 102.767 777.843 107.258L735.318 135.821L707.38 153.84C702.313 157.12 696.294 160.318 691.97 164.516L581.105 237.418C575.883 239.849 572.189 242.678 567.887 246.424L560.068 251.72L538.948 264.727L524.154 274.495C517.479 279.342 510.52 283.384 503.382 287.5C501.973 288.312 499.448 290.324 497.951 290.454L494.82 293.041L475.057 306.718C471.541 309.112 467.995 311.89 464.176 313.762C461.848 315.474 459.606 317.322 457.021 318.624L419.992 343.146L414.12 346.729L341.824 394.648L329.666 402.818C326.117 405.116 322.522 407.817 318.708 409.629L318.239 410.339L309.832 415.604L261.701 448.421C254.148 453.433 245.769 458.106 238.688 463.681C236.265 465.588 234.352 468.043 232 470.02C228.065 473.328 223.614 476.015 219.799 479.477C207.677 490.475 196.409 502.895 186.888 516.21C183.032 521.602 178.533 526.268 175.373 532.152L164.077 552.729C152.191 578.577 144.725 603.605 140.66 631.761C137.322 654.878 137.385 678.938 137.264 702.254L137.185 787.362L137.058 852.264C137.062 862.634 136.507 873.352 137.226 883.685L136.882 1165.39C135.164 1191.85 136.526 1219.15 136.602 1245.7L137.013 1330.98C137.509 1349.74 137.944 1371.34 142.995 1389.54L147.087 1409.23L149.422 1419.69C151.266 1425.72 155.336 1443.29 160.353 1446.36L159.905 1448.54C160.599 1449.88 163.594 1454.6 163.633 1455.84L166.534 1460.96L175.697 1476.15L189.87 1497.19C203.006 1513.51 219.514 1531.78 236.913 1543.64L249.024 1552.46C251.43 1554.1 254.973 1555.93 256.969 1558L257.807 1557.94L315.881 1596.88C316.815 1597.49 320.908 1600.61 321.679 1600.61L336.169 1611.3C339.517 1613.42 343.753 1615.93 346.296 1618.99L347.163 1618.85L349.869 1620.63C354.705 1624.12 360.836 1627.39 365.085 1631.45C368.898 1633.89 372.824 1636.16 376.129 1639.28L376.085 1639.44L381.199 1641.62C390.152 1647.64 399.178 1655.02 408.846 1659.79L430.58 1675.59L444.638 1685.07L460.245 1695.91C461.748 1696.88 464.178 1698.95 465.909 1699.28L473.248 1704.69L495.978 1720.59L501.045 1724.28L550.134 1756.44L581.856 1777.9C586.1 1780.76 590.419 1784.71 594.999 1786.91L616.431 1801.77L622.111 1805.29L648.107 1822.74L692.759 1852.26C699.173 1856.68 707.012 1864.54 714.005 1867.33L729.639 1877.92L749.977 1891.56L769.727 1904.37L784.6 1913.97C793.653 1919.57 802.42 1926.94 811.981 1931.48C820.208 1938.65 829.623 1944.09 838.843 1949.87L880.15 1976.1C893.451 1983.67 907.386 1991.57 921.684 1997.04C930.462 2000.4 939.544 2002.42 948.303 2005.61C955.012 2008.06 962.351 2008.56 969.348 2009.87C1020.29 2019.4 1076.96 2014.25 1125.23 1995.8C1128.98 1995.35 1134.47 1992.25 1138.13 1990.81C1147.38 1986.47 1156.9 1982.28 1165.78 1977.23C1182.11 1967.95 1197.82 1956.8 1213.57 1946.52L1259.83 1915.78L1265.99 1912.21L1609.53 1679.21L1712.93 1609.21L1771.13 1570.19C1792.16 1555.88 1811.84 1542.44 1830.59 1525.08C1836.27 1519.83 1842.33 1515 1847.25 1508.98C1860.85 1492.37 1872.38 1475.78 1882.88 1457.07C1887.12 1448.71 1890.9 1440.68 1893.66 1431.71C1897.43 1424.15 1899.46 1415.12 1901.48 1406.9C1907.81 1381.14 1909.86 1355.76 1911.1 1329.33C1913.74 1304.57 1912.17 1278.02 1912.07 1253.09L1911.76 1139.4L1911.66 1086.51C1912.73 1078.89 1911.78 1069.76 1911.79 1062L1911.8 1006.38L1911.81 930.227L1911.92 852.414L1912.17 831.504L1912.11 735.647C1912.8 733.528 1912.4 729.707 1912.45 727.344L1912.53 706.571C1911.76 659.448 1911.09 609.475 1890.88 565.87L1881.67 547.891C1880.61 534.795 1840.53 490.647 1828.93 479.861L1828.32 479.251C1821.81 473.167 1814.8 466.694 1807.11 462.15C1806.56 460.153 1798.06 455.163 1795.88 453.711L1778.12 441.322L1761.37 429.951C1761.08 428.917 1733.5 411.955 1730.34 410.076L1724.85 406.506C1712.49 396.301 1696.89 387.473 1683.41 378.705L1628.15 342.309L1625.4 339.895L1522.25 272.231C1522.18 271.946 1515.66 267.793 1514.93 267.312C1504.44 258.27 1490.92 251.892 1479.5 243.988L1440.97 218.596L1392.01 185.532L1386.9 182.031L1192.18 55.1478C1190.52 51.1919 1174.43 43.4242 1170.34 41.1007L1166.17 39.1934C1162.19 36.3241 1157.12 34.5301 1152.64 32.5215C1139.1 26.4422 1125.89 22.2747 1111.77 17.784L1084.8 10.4634C1077.6 8.88677 1070.73 8.64567 1063.97 5.424C1064.43 4.82163 1063.67 0.9817 1063.55 0L2048 0L2048 2046L2046.88 2047.88L1385 2048L636 2048L157.128 2048L146.833 2048L1.125 2047.88L0 2046Z"/>
	<path fill="#A8E875" transform="scale(0.0585938 0.0585938)" d="M473.362 290.5L475.419 290.361L476.909 291.979L475.5 294.151C473.67 293.866 472.947 293.599 471.361 292.779L473.362 290.5Z"/>
	<path fill="#B4F683" transform="scale(0.0585938 0.0585938)" d="M779.297 2016.5L780.077 2016.6C782.363 2017.49 782.359 2018.35 783.036 2020.5L781.5 2022.6C780.263 2022.66 779.375 2022.23 778.219 2021.83L777.375 2019L779.297 2016.5Z"/>
	<path fill="#B4F683" transform="scale(0.0585938 0.0585938)" d="M1530.49 234.5C1532.75 233.65 1532.43 234.011 1534.5 234.915C1534.65 238.175 1534.97 239.514 1533.5 242.49L1531.87 243.105L1529.55 241.5C1528.93 238.03 1529.05 237.733 1530.49 234.5Z"/>
	<path fill="#A8E875" transform="scale(0.0585938 0.0585938)" d="M1828.32 479.251L1828.5 472.278C1831.33 472.643 1833.05 473.06 1835.5 474.51C1835.73 476.278 1835.7 477.731 1835.49 479.5L1828.93 479.861L1828.32 479.251Z"/>
	<path fill="#A8E875" transform="scale(0.0585938 0.0585938)" d="M678.958 159.5C681.232 158.819 680.055 158.858 682.49 159.5L682.49 162.5C680.183 164.566 678.372 165.899 675.5 167.083L673.304 165.768C672.804 163.264 672.074 162.752 673.5 160.51L674 161.5C676.678 161.5 676.824 160.943 678.958 159.5Z"/>
	<path fill="#A8E875" transform="scale(0.0585938 0.0585938)" d="M567.103 226.5C568.501 225.959 570.023 225.853 571.5 225.623C574.562 229.88 574.913 233.409 574.5 238.51L570.157 238.645L569.742 236.5C570.656 234.566 570.923 233.635 570.689 231.5L567.284 229.574L567.103 226.5Z"/>
	<path fill="#A8E875" transform="scale(0.0585938 0.0585938)" d="M414.12 346.729C412.616 346.637 411.309 346.767 409.832 347.014C407.426 347.416 408.554 347.636 406.51 346.5L408.505 345.75L407.51 344.5L410.5 341.913L411.142 339L411.5 338L412.005 336.25L413.49 336.5L413.228 338.5L414.5 340.136L417.5 339.7C418.587 340.886 419.2 341.778 419.992 343.146L414.12 346.729Z"/>
	<path fill="#A8E875" transform="scale(0.0585938 0.0585938)" d="M256.969 1558C256.772 1560.61 256.828 1560.45 258.49 1562.5L257.5 1563.49C255.283 1563.53 253.167 1563.64 250.99 1563.12C250.636 1561.23 250.706 1561.91 250.574 1560.14L250.5 1558.98C246.461 1558.18 244.249 1555.86 240.5 1555.64L239.103 1553L240.5 1551.51C243.384 1552.42 246.039 1552.42 249.024 1552.46C251.43 1554.1 254.973 1555.93 256.969 1558Z"/>
	<path fill="#A8E875" transform="scale(0.0585938 0.0585938)" d="M376.085 1639.44C376.364 1641.07 376.61 1641.77 377.612 1643.16L378.5 1644.3L377.5 1645L377.5 1647.31C374.16 1644.79 370.175 1643.77 367.005 1640.99L367.005 1638.99C365.787 1637.74 364.508 1636.88 363.25 1635.75C361.098 1633.82 360.122 1632.84 357.352 1631.8L356.51 1631.5L357.25 1630.34C359.891 1631.58 362.219 1631.37 365.085 1631.45C368.898 1633.89 372.824 1636.16 376.129 1639.28L376.085 1639.44Z"/>
	<path fill="#A8E875" transform="scale(0.0585938 0.0585938)" d="M457.021 318.624C454.28 318.634 451.759 319.141 449.005 318.871L448.604 317C449.922 315.683 450.556 314.721 451.268 313C449.882 310.874 448.584 310.978 447.25 309.25C449.184 309.074 449.571 309.429 451 308C449.709 307.025 450.316 307.311 448.692 306.825L447.51 306.5L450 304.51C451.732 306.242 451.737 306.066 451.779 308.5C458.641 314.949 459.76 307.134 466.49 308.5C465.213 309.755 465.003 310.274 464.539 312.098L464.176 313.762C461.848 315.474 459.606 317.322 457.021 318.624Z"/>
	<path fill="#B4F683" transform="scale(0.0585938 0.0585938)" d="M336.169 1611.3C339.517 1613.42 343.753 1615.93 346.296 1618.99C342.7 1619.46 341.737 1619.57 338.593 1617.67C336.829 1616.61 335.535 1616.95 333.5 1616.91C331.94 1619.36 327.155 1623.38 324.5 1624.67C321.672 1623.12 321.74 1623 320.482 1620C323.818 1612.04 325.912 1615.38 332.5 1614.06C333.225 1613.91 335.443 1611.85 336.169 1611.3Z"/>
	<path fill="#A8E875" transform="scale(0.0585938 0.0585938)" d="M560.068 251.72C559.178 250.48 559.476 251.125 559.073 249.369L558.787 248.005L557.5 247.51C555.948 248.235 554.736 248.939 553.341 249.967C551.675 251.195 552.594 250.995 551.005 250.995L546.51 245.5L547.5 243L547.5 241.51C549.893 241.294 551.498 240.877 553.75 242.005L555.5 243L554.005 240.995C554.005 239.581 555.567 238.534 556.5 237.51C558.889 237.97 560.432 238.133 562.49 239.5L562.49 243L561.168 244.28L561.75 245.75L560.253 246.701L567.887 246.424L560.068 251.72Z"/>
	<path fill="#A8E875" transform="scale(0.0585938 0.0585938)" d="M524.154 274.495L522.505 270.25L520.51 269.5L521.51 268C522.632 266.343 522.849 266.078 523.169 264C522.054 263.098 521.001 262.279 519.763 261.546L518.797 261L519.047 258.5L522.5 257.273L524.5 258.276C525.73 260.501 526.824 262.379 528.5 264.314C530.329 263.365 532.146 262.273 534.14 261.729L535 261.51L536.5 260.51L537.995 261.005C538.087 262.435 537.965 261.746 538.507 263.417L538.948 264.727L524.154 274.495Z"/>
	<path fill="#A8E875" transform="scale(0.0585938 0.0585938)" d="M329.666 402.818L323.103 402.743C323.276 400.376 323.427 400.317 325 398.51L326.25 399.505C327.54 398.827 328.675 398.483 329.505 397.25L327.005 396.75C327.816 395.939 327.334 396.335 328.727 395.549C330.486 394.558 330.283 393.838 330.954 392L327.369 388.123C329.292 386.636 329.528 386.88 332 386.964C333.634 388.822 334.657 390.184 337 391.146C339.403 389.69 341.93 388.625 344.5 387.51L345.284 389C343.749 390.384 343.066 391.096 342.32 393.095L341.824 394.648L329.666 402.818Z"/>
	<path fill="#A8E875" transform="scale(0.0585938 0.0585938)" d="M309.832 415.604C308.373 415.579 305.836 415.172 304.5 415.51C302.231 416.083 302.122 417.774 299.209 417.936L299.195 416.25C301.133 416.99 302.923 414.515 305.5 414L306.505 412.25C303.865 411.987 303.598 411.678 301.5 410C301.5 407.325 301.923 406.577 303.75 404.75C302.135 403.781 302.876 404.029 300.927 403.703L299.51 403.5L302.5 401.51C304.598 401.438 305.969 401.544 307.951 402.25L308.353 404.5C310.295 406.755 310.082 406.956 313 407.217L315.5 404.576L317 406C318.576 404.746 317.717 405.007 319.5 405C318.93 406.69 319.122 405.858 318.88 407.978L318.708 409.629L318.239 410.339L309.832 415.604Z"/>
	<path fill="#A8E875" transform="scale(0.0585938 0.0585938)" d="M475.057 306.718L472.913 306.637C470.7 306.77 469.664 307.244 467.51 306.5L469 306L470.5 305L471.75 304.25L468.51 303.5L471 301.919C474.28 298.614 477.484 297.988 480.928 295.129C483.772 292.768 488.292 291.63 489.685 288.057L490.005 287.079L493 286.51L494.25 287.505C495.207 287.254 495.999 287.005 496.995 287.005C497.085 288.374 496.958 287.737 497.509 289.27L497.951 290.454L494.82 293.041L475.057 306.718Z"/>
	<path fill="#A8E875" transform="scale(0.0585938 0.0585938)" d="M769.727 1904.37L769.941 1910.62C768.461 1910.84 767.04 1911.06 765.54 1910.83C762.454 1910.36 759.511 1907.69 757.626 1905.34L757 1904.49C755.065 1903.84 753.769 1903.48 752.219 1902.09C750.699 1900.72 749.141 1899.5 747.755 1898C748.847 1896.53 749.278 1896.84 751 1896.5L749 1895.5L747.5 1895.49L745.75 1893.25L744 1893.49C742.44 1892.2 742.958 1892.38 741.414 1891.8L740.51 1891.5L741.5 1890.51C744.266 1891.36 747.109 1891.39 749.977 1891.56L769.727 1904.37Z"/>
	<path fill="#A8E875" transform="scale(0.0585938 0.0585938)" d="M159.905 1448.54L159.353 1454.5L157.5 1454.7C156.169 1453.12 155.201 1452.08 153.435 1450.97C151.424 1449.7 152.357 1450.59 150.894 1448.5L152.763 1446L148.995 1437.01L147.5 1436.79L145.858 1441.99L145 1441.5C145.909 1439.38 145.751 1440.23 145.922 1438.02L146 1436.5L147.75 1435.75C146.459 1433.41 146.51 1432.71 146.51 1430C145.604 1428.76 145.041 1427.96 144.51 1426.5L146.75 1425.75L146.75 1423.25L144.5 1425.49L143.51 1424.5C144.148 1422.94 144.369 1422.14 144.278 1420.4C144.168 1418.3 143.823 1419.57 145 1417.51C146.36 1418.86 145.612 1418.38 147.751 1419.14L149.422 1419.69C151.266 1425.72 155.336 1443.29 160.353 1446.36L159.905 1448.54Z"/>
	<path fill="#A8E875" transform="scale(0.0585938 0.0585938)" d="M163.633 1455.84L166.534 1460.96L175.697 1476.15L189.87 1497.19C187.623 1497.3 185.649 1497.27 183.5 1498L183 1498.96L181.005 1497.99L179.75 1497.68C179.039 1495.75 179.053 1495.68 179.5 1493.51L181.505 1495.75C180.515 1491.79 177.166 1490.88 176.181 1486.5L173.995 1484.16L173.232 1483.01C171.886 1481.49 169.98 1480.02 168.5 1478.56C165.91 1478.66 163.538 1478.95 161.168 1477.69C157.077 1475.51 161 1474.17 161.333 1472C161.515 1470.82 160.784 1469.67 160.51 1468.5L162.5 1468L163.75 1465.75C163.273 1462.53 163.561 1459.1 163.633 1455.84Z"/>
	<path fill="#B4F683" transform="scale(0.0585938 0.0585938)" d="M166.534 1460.96L175.697 1476.15C172.042 1475.54 171.471 1475.41 168.5 1472.88L164.5 1476.81L162.311 1475.88L162.411 1474.58C163.025 1469.53 164.578 1471.88 167.397 1469.5C166.416 1466.72 166.575 1463.86 166.534 1460.96Z"/>
	<path fill="#A8E875" transform="scale(0.0585938 0.0585938)" d="M0 2046C10.1821 2046.61 20.8404 2045.48 31.0352 2045.39L63.1524 2046.18C68.1956 2046.17 73.5401 2044.9 78.5 2045.22C80.6642 2045.36 82.2359 2046.31 84 2047.49C89.1426 2047.52 94.7644 2048.01 99.7612 2046.72C106.106 2045.09 114.418 2043.61 120.969 2044.01C130.003 2044.56 138.724 2046.26 147.812 2044.95C154.231 2044.03 161.123 2045.8 167.646 2045.88L207.5 2045.35C214.589 2045.26 221.751 2046.33 228.865 2046.43L312.16 2044.83C319.828 2044.65 327.547 2046.03 335.324 2046.03L374.392 2046.27C381.926 2046.21 389.446 2045.16 397 2045.18L422.38 2046.36C434.216 2046.42 446.162 2045.43 457.978 2045.89C463.576 2046.1 468.957 2047.76 474.569 2047.61C478.348 2047.51 480.458 2046.76 483.5 2044.59C486.099 2044.62 490.603 2044.05 492.597 2045.53C497.561 2049.21 509.197 2047.55 515.5 2047.49L517 2046.46L568.266 2046.21L602.658 2046.3C607.293 2046.3 612.468 2045.58 617 2045.88C619.39 2046.03 621.607 2047.21 624 2047.49C627.709 2047.93 632.547 2046.8 636 2048L157.128 2048L146.833 2048L1.125 2047.88L0 2046Z"/>
	<path fill="#9BD76B" transform="scale(0.0585938 0.0585938)" d="M146.833 2048C149.729 2046.65 151.938 2045.3 155.251 2046.65C156.227 2047.05 156.445 2047.35 157.128 2048L146.833 2048Z"/>
	<path fill="#A8E875" transform="scale(0.0585938 0.0585938)" d="M1385 2048C1381.81 2046 1374.17 2047 1370.18 2047L1325.73 2047.03C1319.94 2047.04 1311.68 2048.06 1306.26 2046.5L1374.28 2046.13C1378.9 2046.13 1383.4 2044.9 1387.92 2045.01L1422.33 2045.85C1424.14 2045.96 1425.31 2046.93 1427 2047.3C1430.37 2048.05 1435.59 2047.69 1438.91 2046.82C1452.72 2043.19 1466.95 2045.95 1481.02 2045.81C1491.79 2045.7 1506.8 2043.54 1517 2046.15C1522.41 2047.53 1527.09 2048.62 1532.72 2046.78C1537.31 2045.28 1542.57 2045.24 1547.38 2045.11C1565.09 2044.66 1583.37 2046.34 1601.16 2046.5C1610.31 2046.58 1619.6 2045.19 1628.65 2045.45C1630.61 2045.51 1632.03 2045.84 1633.87 2046.54C1640.62 2049.1 1650.81 2044.55 1658.44 2044.67C1662.29 2044.73 1666.01 2046.05 1669.9 2046.12L1717.65 2045.49L1796.97 2046.05L1832 2045.57C1840.78 2045.73 1849.59 2047.29 1858.36 2047.39C1862.58 2047.44 1867.49 2045.78 1871.56 2046.59C1873.46 2046.96 1874.28 2047.26 1876.25 2046.88C1877.51 2046.64 1878.41 2046.48 1879.72 2046.53L2048 2046L2046.88 2047.88L1385 2048Z"/>
	<path fill="#DC9F52" transform="scale(0.0585938 0.0585938)" d="M793.09 256.047C796.852 252.668 801.803 250.332 805.977 247.443L854.222 215.361L920.808 170.525C936.406 160.01 951.253 148.742 968.241 140.443C981.011 134.205 996.875 130.742 1010.91 128.761C1060.16 121.807 1101.67 140.389 1140.03 169.306L1154.62 179.493C1158.04 181.83 1161.48 184.563 1165.15 186.465L1185.89 201.456L1192.2 205.745L1221.99 226.505C1232.31 232.54 1241.76 239.628 1251.59 246.382L1296 275.958L1335.48 302.957C1340.89 306.698 1347.2 310.034 1352.16 314.297C1361.94 319.219 1370.75 326.522 1379.88 332.617L1397.85 344.799L1407.91 352.298L1473.16 395.757L1473.76 396.011L1502.58 415.26C1508.54 420.34 1515.36 424.189 1521.89 428.478L1651.62 516.766L1673.75 531.824C1697.58 548.522 1719.99 564.074 1737.86 587.582L1742.75 595.025L1746.32 600.728C1747.42 603.344 1748.84 606.112 1749.64 608.818C1752.59 612.307 1753.97 617.218 1755.53 621.46C1760.37 634.591 1763.87 648.518 1765.01 662.473C1768.41 703.862 1766.15 746.042 1766.42 787.568L1766.63 1060.84L1766.91 1256.91C1766.81 1284.2 1769.3 1312.92 1766.44 1340.01L1766.29 1340.67C1764.86 1354.35 1763.57 1365.21 1758.78 1378.24C1757.16 1383.45 1755.74 1388.83 1753.4 1393.78L1748.39 1403.92C1746.48 1407.34 1741.16 1418.69 1737.86 1420.31C1731.57 1428.76 1724.86 1437.03 1716.97 1444.04C1712.2 1448.28 1706.62 1451.72 1701.67 1455.8C1699.36 1457.71 1696.55 1459.1 1693.94 1460.55L1686.22 1466.37C1674.53 1472.48 1663.66 1481.07 1652.98 1488.86L1629.89 1504.29L1578.95 1539.5L1392.79 1665.15L1366.1 1683.29L1308.5 1722.75C1306.35 1724.27 1298.77 1728.14 1297.72 1730.15L1270.02 1748.44L1215.15 1785.54C1214.35 1786.12 1208.97 1789.63 1208.78 1790.18L1194.37 1799.75L1162.46 1822.16L1148.99 1831.56L1141.85 1836.43L1112.05 1855.62C1108.41 1857.93 1105.13 1860.79 1101.29 1862.8C1087.19 1870.17 1069.93 1876.13 1054.24 1879.01C1027.83 1883.87 994.403 1882.1 969.482 1872.07C954.746 1866.14 942.184 1857.16 929.383 1848.05C924.675 1844.7 919.472 1842.15 914.718 1838.86L887.244 1818.71L829.79 1780.5L794.433 1755.38L762.786 1735.24L739.789 1718.25L673.869 1672.72C669.175 1670.47 665.082 1667.02 660.834 1664.02L639.107 1648.75C631.702 1645.94 623.643 1638 616.934 1633.5L497.808 1551.11L392.884 1480.62C381.863 1473.15 370.608 1466.62 359.874 1458.65C352.271 1455.41 345.635 1447.65 339.035 1442.7C327.823 1434.3 315.942 1421.6 308.523 1409.7C300.829 1397.34 293.005 1385.46 287.231 1371.96C272.005 1336.37 271.743 1295.96 276.22 1258.23L280.235 1203.1L280.432 1066L280.534 872.449L280.489 739.139C280.723 708.734 279.114 677.114 285.345 647.202C290.61 621.929 302.609 593.459 319.737 573.853C325.459 567.303 332.149 559.98 339.037 554.702C351.021 545.518 364.409 538.267 377 529.996L418 502.822L488.764 456.809L536.066 424.697L542.089 420.485L553.283 413.482L568.055 403.435C571.66 400.324 576.174 397.936 580.155 395.314L608.834 377.001L661.258 343.012L683.023 327.484L706 313.053C715.647 306.333 725.453 297.865 736.238 293.108C739.941 289.318 746.595 286.58 751.158 283.563L791.428 256.77L793.09 256.047Z"/>
	<path fill="#DE9B56" transform="scale(0.0585938 0.0585938)" d="M1278.51 1728.5L1281.79 1728.28L1283.34 1730.5L1281.7 1734.5C1279.67 1734.48 1279.76 1734.01 1278.32 1732.71L1278.51 1728.5Z"/>
	<path fill="#DA9F52" transform="scale(0.0585938 0.0585938)" d="M622.51 879.5C624.254 878.989 624.373 879.368 625.995 880.005C626.495 882.523 626.311 883.037 625.49 885.5C623.77 885.433 623.418 884.915 622.014 883.995C621.302 881.883 621.829 881.542 622.51 879.5Z"/>
	<path fill="#DE9B56" transform="scale(0.0585938 0.0585938)" d="M736.238 293.108C739.236 293.056 740.012 292.676 742.49 294.5L741.995 298.75C738.223 298.986 738.482 298.953 735.576 296.501L736.238 293.108Z"/>
	<path fill="#DA9F52" transform="scale(0.0585938 0.0585938)" d="M414.51 1088.5C416.946 1087.89 416.824 1087.78 418.995 1089.01C419.506 1091.58 419.304 1092.01 418.387 1094.5C416.726 1094.97 416.555 1094.59 415.005 1093.99C414.18 1091.78 413.904 1090.81 414.51 1088.5Z"/>
	<path fill="#DE9B56" transform="scale(0.0585938 0.0585938)" d="M843.51 1778.5C844.854 1778.23 846.139 1778.42 847.5 1778.51L849.49 1781L847.5 1784.49C844.164 1783.66 843.754 1783.81 841.51 1781L843.51 1778.5Z"/>
	<path fill="#DA9F52" transform="scale(0.0585938 0.0585938)" d="M793.09 256.047L797.75 256.005L797.25 257.75L799.5 257.51L800.49 258.5C799.468 259.179 798.281 259.584 797.25 260.25L795 262.49C792.881 262.49 792.068 263.058 790.51 261.5L791.546 259.893C791.562 258.862 791.709 257.766 791.428 256.77L793.09 256.047Z"/>
	<path fill="#DE9B56" transform="scale(0.0585938 0.0585938)" d="M1357.51 1670.5L1359.25 1670.23C1362.02 1671.33 1363.15 1673.72 1364.7 1676.11L1363.5 1678.12C1361.32 1678.71 1360.68 1679.33 1358.51 1678.5L1358.51 1676L1357.51 1674.5L1357.94 1672.04L1357.51 1670.5Z"/>
	<path fill="#DE9B56" transform="scale(0.0585938 0.0585938)" d="M1414.51 374.5C1416.69 373.619 1418.68 373.651 1421 373.51L1423.24 375.501L1422.5 378.49L1421.25 379.127C1418.86 379.906 1416.94 379.321 1415.05 377.995L1414.51 374.5Z"/>
	<path fill="#DA9F52" transform="scale(0.0585938 0.0585938)" d="M447.759 1426.88L451.389 1423.44L454.939 1423.88C456.288 1426.91 457.512 1427.5 460.5 1429L456.815 1430.32C455.119 1430.94 453.597 1431.68 452 1432.51L449.995 1432.14C448.889 1430.1 449.218 1431.15 448.933 1429.34C448.675 1427.7 448.947 1428.49 447.759 1426.88Z"/>
	<path fill="#DA9F52" transform="scale(0.0585938 0.0585938)" d="M1232.8 910.806C1233.24 909.051 1239.08 904.374 1240.66 902.831C1241.71 905.009 1242.04 904.942 1241.65 907.472L1244.14 909.183C1241.77 911.454 1239.29 914.344 1236.03 915.113C1233.86 915.627 1233.12 916.518 1231.5 918L1231 917C1232.61 914.625 1232.54 913.604 1232.8 910.806Z"/>
	<path fill="#DE9B56" transform="scale(0.0585938 0.0585938)" d="M542.089 420.485L549.51 420.5L549.49 425.5L548 426.49L544.5 425.623L543.798 426.579C542.337 428.455 540.38 431.102 538.107 431.893L535.51 429.5L535.789 427.736C536.122 425.541 536.069 426.422 536.066 424.697L542.089 420.485Z"/>
	<path fill="#DE9B56" transform="scale(0.0585938 0.0585938)" d="M1397.85 344.799L1407.91 352.298C1405.6 352.522 1403.31 352.274 1401 352.108L1400.24 353.5L1403.49 356.5L1402.99 357.995L1400.5 358.49C1399.11 357.638 1398.58 357.439 1396.88 357.433L1395.5 357.49L1394.51 354.5L1397.75 353.75L1397 352.5C1394.96 352.228 1394.26 352.175 1392.5 351L1392.5 349.51L1396.5 349.532C1396.75 347.792 1397.25 346.441 1397.85 344.799Z"/>
	<path fill="#DE9B56" transform="scale(0.0585938 0.0585938)" d="M1742.75 595.025L1746.32 600.728C1747.42 603.344 1748.84 606.112 1749.64 608.818L1746.73 608.187C1745.78 606.711 1744.95 606.021 1743.5 605.051L1741.5 607.49C1737.45 607.501 1735.78 608.043 1732.51 605.5C1732.51 602.728 1732.75 602.705 1734.5 600.51L1737.5 601.634C1739.42 602.424 1740.4 603.101 1742.5 603.148L1742.75 595.025Z"/>
	<path fill="#DE9B56" transform="scale(0.0585938 0.0585938)" d="M1711.27 1438.14L1710 1438.35C1708.1 1439.01 1708.4 1439.45 1706.01 1439.75C1706.01 1438.89 1706.11 1437.77 1706.51 1437L1707.5 1435.51L1704.51 1431.5L1707.01 1426.09L1709 1425.51C1710.89 1426.77 1710.25 1426.11 1711.62 1427.99L1712.56 1429.35C1713.84 1432.51 1714.75 1434.52 1714.14 1438C1712.99 1438.23 1712.38 1438.59 1711.27 1438.14Z"/>
	<path fill="#DE9B56" transform="scale(0.0585938 0.0585938)" d="M1141.85 1836.43C1141.1 1835.33 1141.35 1835.92 1141.1 1834.3L1140.92 1833.01C1139.64 1832.71 1138.54 1832.48 1137.22 1832.48L1136.25 1832.51L1133.51 1829.5L1135.5 1827.51L1137.25 1829.75L1138 1829L1136.51 1827.5L1136.75 1825.25L1136 1823.5C1137.6 1823.93 1136.87 1823.68 1138.65 1824.43L1140 1825.01L1141.49 1823.5L1145.5 1823.49L1146.3 1826.01C1145.05 1827.58 1144.15 1828.57 1143.51 1830.5C1145.48 1830.68 1147.08 1831.06 1148.99 1831.56L1141.85 1836.43Z"/>
	<path fill="#DE9B56" transform="scale(0.0585938 0.0585938)" d="M1203.27 858.71L1203.51 853L1204 851.49L1202.5 852.49L1201 851.5L1203.51 848.75C1205.57 847.194 1206.84 846.701 1208.75 844.505L1208 841.5L1209.5 839.819L1210.24 843C1210.72 842.098 1211.39 841.323 1212 840.51C1215.93 843.531 1217.32 842.815 1222.04 842.528L1215.93 848.397C1211.26 851.534 1207.32 854.807 1203.27 858.71Z"/>
	<path fill="#DA9F52" transform="scale(0.0585938 0.0585938)" d="M553.283 413.482L568.055 403.435L577.75 403.25L575.043 404.005L573.5 407.51L572.685 407.823C570.982 408.674 569.832 410.137 568.545 411.5L568.25 412.75L567.25 410.25L567.75 409.25C566.368 409.524 565.294 409.963 564 410.5L563.25 411.75L566.49 412.5C566.502 414.238 566.85 413.643 566 414.51L563.995 414.12C559.275 414.12 557.588 423.107 553.5 420.581L552 419.51C551.993 417.388 552.514 415.472 553.283 413.482Z"/>
	<path fill="#DE9B56" transform="scale(0.0585938 0.0585938)" d="M1502.58 415.26C1508.54 420.34 1515.36 424.189 1521.89 428.478C1520.93 428.738 1521.5 428.526 1520.17 429.436C1518.52 430.559 1518.4 430.186 1516.5 430L1516 431.5C1511.55 431.584 1511.06 427.891 1507.5 426.51C1505.43 425.707 1504.45 426.282 1502.25 424.995L1501 424.245C1499.22 427.352 1497.9 426.156 1495 427.49L1493.5 428.49C1492.79 427.081 1493.14 426.964 1493.51 425.5L1496.75 424.75C1499.15 423.941 1498.77 423.363 1499.66 421.253L1499.5 420C1499.52 417.843 1501 416.453 1502.58 415.26Z"/>
	<path fill="#DE9B56" transform="scale(0.0585938 0.0585938)" d="M1758.78 1378.24C1758.3 1373.8 1758.66 1369.38 1759.49 1365L1759.9 1363.2C1756.61 1363.09 1756.69 1363.28 1754.36 1361L1755.37 1357.5L1757.5 1357.36L1758 1355.5C1758.55 1353.92 1759.38 1352.28 1759 1350.5C1758.36 1347.48 1757.07 1346.39 1757.5 1343L1760 1344C1760.78 1345.53 1760.3 1344.69 1761.5 1346.49L1766.29 1340.67C1764.86 1354.35 1763.57 1365.21 1758.78 1378.24Z"/>
	<path fill="#B14E47" transform="scale(0.0585938 0.0585938)" d="M1192.75 870.245C1192.27 872.971 1191.33 875.097 1192.5 877.666L1195.5 877.51L1195.97 879.069C1196.61 881.021 1196.17 880.355 1197.35 881.513L1184.95 893.163C1181.06 893.302 1180.97 892.898 1177.99 890.69C1178.55 889.69 1178.87 888.891 1179.1 887.761C1180.59 880.423 1187.59 875.374 1192.75 870.245Z"/>
	<path fill="#DE9B56" transform="scale(0.0585938 0.0585938)" d="M1130.87 857.536L1132.5 853.51C1134.26 854.093 1134.53 854.439 1135.75 855.75L1136.01 854.25L1139.75 854.25L1141.49 856C1139.56 857.295 1140.57 856.812 1138.49 857.5C1140.03 858.011 1141.4 858.251 1143 858.5C1144.47 857.516 1145.39 856.895 1146.51 855.5C1146.51 853.474 1146.01 853.004 1147.5 851.51C1147.95 853.657 1147.65 860.918 1149 862L1152.25 863.75L1154 865L1157.75 865.25L1157.5 867.49L1154.5 869L1156 870L1156.75 870.995C1154.92 871.512 1153.17 871.823 1151.3 872.138L1130.87 857.536Z"/>
	<path fill="#DE9B56" transform="scale(0.0585938 0.0585938)" d="M639.107 1648.75C641.791 1648.63 643.704 1648 646 1649.51C648.939 1651.45 651.837 1653.83 655.5 1653.51L656.406 1654.45C658.859 1656.9 660.141 1657.51 663.51 1657.5L665 1656.51L667.5 1656.51C668.831 1657.97 671.096 1659.62 671.146 1661.6C671.238 1665.24 671.78 1665.88 673.323 1669.05C673.744 1669.92 673.783 1671.83 673.869 1672.72C669.175 1670.47 665.082 1667.02 660.834 1664.02L639.107 1648.75Z"/>
	<path fill="#DA9F52" transform="scale(0.0585938 0.0585938)" d="M1352.16 314.297C1361.94 319.219 1370.75 326.522 1379.88 332.617C1377.92 332.594 1376.22 332.574 1374.29 332.177C1372.38 331.785 1373.52 331.65 1371.51 332.5L1372.01 333.995L1373.75 334.495L1373.99 335.75C1371.57 334.776 1370.98 337.197 1368.1 335.995C1365.32 334.837 1363.54 335.089 1360.5 335.088C1358.79 333.113 1358.91 332.119 1358.51 329.5L1357.5 329L1357.75 326.995C1359.17 326.142 1358.64 326.306 1360.08 325.951L1360.99 325.75L1360.99 325.005C1359.03 324.356 1359.29 324.591 1357.5 325.274C1357.2 323.376 1356.81 322.564 1355.6 321.074L1354.5 321L1354.49 319.5C1352.75 317.961 1352.76 316.478 1352.16 314.297Z"/>
	<path fill="#DE9B56" transform="scale(0.0585938 0.0585938)" d="M673.67 842.093C672.815 841.361 672.007 840.997 671 840.51L668.51 842.5C668.478 840.882 667.605 840.615 666.5 839.51L663.5 840C664.47 839.22 665.651 838.272 667 838.245L668.5 838.49L670 837L671.5 835.51C672.43 834.159 673.057 833.565 674.367 832.5C675.285 833.95 674.691 833.254 676.25 834.495L679 831.5C678.216 829.751 678.113 829.31 678.074 827.5L682.25 823.005L684.25 821.495C685.467 820.021 685.344 818.776 685.474 817L684.49 815.5L684.982 813.854L685.474 812L686.5 811.49L689.49 814.5L690.839 813.839L690.49 812L689.49 810.5L690.5 810.49C691.552 811.502 692.191 812.228 693 813.5L693.75 814.75L695.25 812.005C694.343 810.16 694.444 809.501 694.51 807.5C697.173 807.394 697.345 807.137 699.49 805.5L701.25 805.75L702.25 805.25C702.626 806.869 702.318 806.234 703.372 807.68L704.172 808.726L673.67 842.093Z"/>
	<path fill="#B24A50" transform="scale(0.0585938 0.0585938)" d="M1215.93 848.397L1215.54 849.997C1214.97 852.02 1214.31 852.326 1213.49 854L1212.76 856.5C1214.48 857.286 1216.01 857.868 1217.5 859.035L1212.7 864.732L1212.17 867.806L1201.14 877.715L1197.35 881.513C1196.17 880.355 1196.61 881.021 1195.97 879.069L1195.5 877.51L1192.5 877.666C1191.33 875.097 1192.27 872.971 1192.75 870.245L1198.31 864.188L1203.27 858.71C1207.32 854.807 1211.26 851.534 1215.93 848.397Z"/>
	<path fill="#B34748" transform="scale(0.0585938 0.0585938)" d="M1198.31 864.188L1198.39 870.711L1200 871.734L1201.36 873L1201.15 874.269C1200.86 876.25 1200.93 875.494 1201.14 877.715L1197.35 881.513C1196.17 880.355 1196.61 881.021 1195.97 879.069L1195.5 877.51L1192.5 877.666C1191.33 875.097 1192.27 872.971 1192.75 870.245L1198.31 864.188Z"/>
	<path fill="#B24550" transform="scale(0.0585938 0.0585938)" d="M1230.79 834.208L1234.83 835.005C1235.32 837.044 1235.28 838.425 1235 840.5L1236.5 841.94C1237.81 841.725 1239.76 841.12 1241.04 841.357C1232.44 851.14 1223.19 860.724 1212.17 867.806L1212.7 864.732L1217.5 859.035C1216.01 857.868 1214.48 857.286 1212.76 856.5L1213.49 854C1214.31 852.326 1214.97 852.02 1215.54 849.997L1215.93 848.397L1222.04 842.528C1224.68 839.487 1227.8 836.888 1230.79 834.208Z"/>
	<path fill="#A620C0" transform="scale(0.0585938 0.0585938)" d="M1492.39 673.126C1496.52 673.423 1501.52 674.192 1505.49 672.829C1510.15 671.231 1513.9 666.114 1516.02 661.886C1517.14 659.636 1518.31 657.67 1519.76 655.609L1520.31 654.837C1521.16 666.274 1522.86 674.059 1514.78 683.279C1509.15 689.691 1503.05 695.935 1495.86 700.58C1496.78 695.796 1500.63 695.306 1502.28 691.495C1503.8 688 1503.12 679.586 1503.19 675.5L1492.39 673.126Z"/>
	<path fill="#DA9F52" transform="scale(0.0585938 0.0585938)" d="M1712.56 1429.35L1715.44 1431.47L1716.5 1430.51C1716.46 1428.54 1716.56 1426.93 1717.01 1425.01L1718.5 1424.51L1720 1423.51L1721.75 1424.01C1722.94 1425.47 1724 1426.53 1724.38 1428.44L1724.49 1429.5C1726.96 1427.47 1731.04 1421.65 1733.51 1420.56C1734.35 1420.19 1736.83 1420.37 1737.86 1420.31C1731.57 1428.76 1724.86 1437.03 1716.97 1444.04C1712.2 1448.28 1706.62 1451.72 1701.67 1455.8C1699.36 1457.71 1696.55 1459.1 1693.94 1460.55C1694.87 1454.42 1697.69 1454.8 1700.87 1450.05L1701.51 1449L1702.51 1447.5L1702 1446L1700.51 1445L1701.5 1443.51L1702.49 1444.5L1704.01 1442.01L1705.51 1442L1706.5 1440.51L1707.99 1442.25L1708 1443.51L1709.5 1444.51L1710.76 1443C1709.61 1442.23 1710.22 1442.7 1709 1441.5L1711.27 1438.14C1712.38 1438.59 1712.99 1438.23 1714.14 1438C1714.75 1434.52 1713.84 1432.51 1712.56 1429.35Z"/>
	<path fill="#DE9B56" transform="scale(0.0585938 0.0585938)" d="M1372.99 968.581C1376.31 968.619 1379.29 968.664 1382.51 969.5L1383.5 968.51L1383.8 969.414C1384.64 971.666 1383.76 969.276 1385.49 972L1385.99 973.25C1386.93 973.703 1388.22 972.956 1388.75 973.25C1392.26 975.204 1390.22 976.638 1395.51 976.5L1397 975.51L1398.03 976.011C1399.79 976.714 1401.16 976.578 1403 976.5L1404 975.51L1405.99 976.005L1406.49 977.5L1405.25 978.75C1407 978.944 1407.15 978.577 1408.33 980L1408.5 981.924C1412.1 983.92 1413.64 988.007 1414.8 992.018C1415.18 993.317 1415.43 994.507 1415.99 995.75L1410.86 998.5L1411.23 1002.63C1411.41 1004.26 1411.37 1005.67 1411.25 1007.3L1411.05 1013.55C1403.29 1009.19 1395.38 1000.95 1388.87 994.738L1391.39 993.465L1387.99 990.005C1386.81 988.217 1386.8 987.825 1387.36 985.839L1391.76 984.367L1382.63 976.181C1379.68 973.142 1376.48 970.956 1372.99 968.581Z"/>
	<path fill="#DC9F52" transform="scale(0.0585938 0.0585938)" d="M1401.34 979.5L1404.99 980.257C1406.44 982.633 1406.76 982.783 1406.46 985.5L1404.25 985.676L1400.5 981.807L1401.34 979.5Z"/>
	<path fill="#970DC1" transform="scale(0.0585938 0.0585938)" d="M1391.76 984.367C1400.68 990.133 1406.61 997.796 1411.25 1007.3L1411.05 1013.55C1403.29 1009.19 1395.38 1000.95 1388.87 994.738L1391.39 993.465L1387.99 990.005C1386.81 988.217 1386.8 987.825 1387.36 985.839L1391.76 984.367Z"/>
	<path fill="#B14E47" transform="scale(0.0585938 0.0585938)" d="M1230.79 834.208L1261.28 806.009C1270.54 796.776 1279.7 785.995 1290.86 779.004L1290.56 780.145C1289.43 784.377 1288.46 785.784 1285.34 788.833L1282.6 791.95C1283.51 793.501 1283.23 793.675 1285 794.245C1286.82 794.832 1287.49 794.498 1289 793.5C1289.01 796.104 1286.23 798.082 1284.5 800L1283.01 800.005L1281.51 801.5C1282.54 801.826 1284.27 802.166 1285.14 802.778L1241.04 841.357C1239.76 841.12 1237.81 841.725 1236.5 841.94L1235 840.5C1235.28 838.425 1235.32 837.044 1234.83 835.005L1230.79 834.208Z"/>
	<path fill="#B34748" transform="scale(0.0585938 0.0585938)" d="M1319.16 737.045L1320.97 737.755L1322.73 738.055L1322.5 745L1324.25 744.894C1326.81 744.798 1328.37 745.751 1330.58 746.922L1330.99 749.289L1330.22 749.812C1327.75 751.531 1327.56 752.546 1325.81 754.705C1325.34 755.287 1324.15 756.055 1323.51 756.5C1325.97 758.137 1326.51 757.743 1329.51 757.5L1329.87 755L1332 753.825L1334.75 755.005C1334.29 757.482 1332.38 758.979 1330.69 760.714L1330.16 763.681L1285.14 802.778C1284.27 802.166 1282.54 801.826 1281.51 801.5L1283.01 800.005L1284.5 800C1286.23 798.082 1289.01 796.104 1289 793.5C1287.49 794.498 1286.82 794.832 1285 794.245C1283.23 793.675 1283.51 793.501 1282.6 791.95L1285.34 788.833C1288.46 785.784 1289.43 784.377 1290.56 780.145L1290.86 779.004C1294.8 772.831 1302.03 769.375 1305.5 763.6C1308.57 758.488 1309.46 752.653 1313.1 747.562C1314.22 746.004 1315.17 744.662 1315.95 742.903C1316.59 741.445 1317.26 740.137 1318.09 738.773L1319.16 737.045Z"/>
	<path fill="#B24A50" transform="scale(0.0585938 0.0585938)" d="M1369.5 777.143L1376.04 776.465C1367.89 782.277 1361.37 790.212 1353.85 796.82L1305.27 841.641C1294.07 852.071 1282.54 861.56 1272 872.796C1268.92 874.821 1241.9 900.305 1240.66 902.831C1239.08 904.374 1233.24 909.051 1232.8 910.806L1220.18 922.031L1220.82 925.783L1211.56 920.5L1210.99 918L1213 915.14C1219.7 910.349 1225.37 903.222 1231.67 897.816C1234.88 895.064 1240.28 893.114 1242.47 889.589C1248.66 879.627 1262.94 870.449 1271.77 862.5L1369.5 777.143Z"/>
	<path fill="#B24550" transform="scale(0.0585938 0.0585938)" d="M1442.47 711.941L1473 708.324C1479.76 707.761 1483.75 708.332 1490.18 705.375L1484.12 710.037C1476.05 716.471 1446.35 760.294 1441.73 761.447C1438.15 762.341 1431.9 761.347 1428.07 761.315C1421.42 761.26 1415.54 762.046 1409 762.675C1404.03 763.152 1399.27 762.802 1394.41 764.224C1389.91 765.538 1386.21 767.575 1382.59 770.586C1381.21 771.734 1377.43 776.081 1376.04 776.465L1369.5 777.143L1423.5 728.703C1429.83 723.073 1437.33 718.811 1442.47 711.941Z"/>
	<path fill="#B24550" transform="scale(0.0585938 0.0585938)" d="M1319.16 737.045C1320.57 731.47 1326.14 724.44 1328.81 719C1332.49 711.522 1340.62 707.398 1345.95 700.933C1352.53 692.945 1357.65 682.746 1362.24 673.5L1363.2 671.562C1365.49 667.801 1367.82 667.035 1371.75 665.736C1376.25 664.247 1381.51 658.105 1385.93 655.457C1393.02 651.224 1401.66 649.23 1408.45 644.758C1410.85 643.172 1412.27 640.271 1413.63 637.814L1413.41 638.805C1412.54 642.336 1411.42 644.337 1409.05 647.063C1407.57 662.181 1409.2 670.027 1414.95 683.82C1410.13 692.326 1402.57 698.18 1395.52 704.8L1357.39 740.195C1354.44 742.834 1351.26 746.402 1347.76 748.194C1342.7 752.897 1336.21 760.599 1330.16 763.681L1330.69 760.714C1332.38 758.979 1334.29 757.482 1334.75 755.005L1332 753.825L1329.87 755L1329.51 757.5C1326.51 757.743 1325.97 758.137 1323.51 756.5C1324.15 756.055 1325.34 755.287 1325.81 754.705C1327.56 752.546 1327.75 751.531 1330.22 749.812L1330.99 749.289L1330.58 746.922C1328.37 745.751 1326.81 744.798 1324.25 744.894L1322.5 745L1322.73 738.055L1320.97 737.755L1319.16 737.045Z"/>
	<path fill="#B24A50" transform="scale(0.0585938 0.0585938)" d="M1347.76 748.194C1346.57 747.216 1346.68 747.033 1345 746.879L1343.25 746.96C1341.47 745.823 1341.38 746.098 1340.51 744L1341.5 742.51L1340.98 741.34L1342 739.5C1342.91 740.673 1343.85 741.405 1345 742.33L1346.96 741.967C1347.06 740.59 1346.66 740.079 1347.71 739.403C1350.66 737.512 1348.69 737.322 1350.5 734.51L1354.25 736.75L1355 736L1356 734.51C1357.07 736.556 1357.1 737.913 1357.39 740.195C1354.44 742.834 1351.26 746.402 1347.76 748.194Z"/>
	<path fill="#C97FFE" transform="scale(0.0585938 0.0585938)" d="M1456.24 593.481C1467.06 590.696 1477.74 591.375 1488.53 594.1L1492.65 595.452C1500.06 598.042 1510.25 603.864 1514.09 611.181L1514.84 612.751C1520.63 621.45 1525.41 633.481 1523.24 644.001L1520.31 654.837L1519.76 655.609C1518.31 657.67 1517.14 659.636 1516.02 661.886C1513.9 666.114 1510.15 671.231 1505.49 672.829C1501.52 674.192 1496.52 673.423 1492.39 673.126C1479.57 670.603 1472.12 667.32 1461.97 658.993C1449.71 648.93 1444.01 636.777 1442.64 621.013C1441.42 607.007 1448.03 603.356 1456.24 593.481Z"/>
	<path fill="#B143F6" transform="scale(0.0585938 0.0585938)" d="M1488.53 594.1L1492.65 595.452C1492.65 597.758 1492.88 599.901 1492.04 602.075C1488.83 602.662 1486.25 602.833 1483 602.548L1481.13 600.243L1480.51 598.75L1478.7 598.76C1476.79 596.734 1474.94 597.717 1472.5 595.593L1473 595.453C1476.92 593.168 1483.91 594.339 1488.53 594.1Z"/>
	<path fill="#D986FD" transform="scale(0.0585938 0.0585938)" d="M1492.65 595.452C1500.06 598.042 1510.25 603.864 1514.09 611.181L1514.84 612.751C1510.75 612.457 1510.29 612.262 1507.05 609.732L1506.2 610.515C1506.57 612.067 1506.98 613.358 1507.55 614.835C1505.58 614.325 1506.31 614.745 1505.21 613.919C1505.35 615.131 1505.57 616.22 1505.81 617.414C1506.2 619.331 1506.53 622.23 1505.36 623.851C1504.46 625.098 1503.69 625.617 1502.51 626.541L1501.35 627.516L1501.91 622.362C1502.54 615.446 1500.38 614.523 1496.48 609.59L1495.89 608.801C1495.17 605.993 1493.78 604.297 1492.04 602.075C1492.88 599.901 1492.65 597.758 1492.65 595.452Z"/>
	<path fill="#FCFDFE" transform="scale(0.0585938 0.0585938)" d="M1495.89 608.801L1496.48 609.59C1500.38 614.523 1502.54 615.446 1501.91 622.362L1501.35 627.516L1501.13 627.524C1499.26 629.35 1496.94 631.784 1494.41 632.62C1491.38 633.626 1487.55 633.035 1484.91 631.205C1481.87 629.094 1479.83 625.473 1479.61 621.805C1479.45 618.953 1480.2 616.304 1482.06 614.181C1486.08 609.588 1490.12 609.268 1495.89 608.801Z"/>
	<path fill="#970DC1" transform="scale(0.0585938 0.0585938)" d="M1456.24 593.481C1448.03 603.356 1441.42 607.007 1442.64 621.013C1444.01 636.777 1449.71 648.93 1461.97 658.993C1472.12 667.32 1479.57 670.603 1492.39 673.126L1503.19 675.5C1503.12 679.586 1503.8 688 1502.28 691.495C1500.63 695.306 1496.78 695.796 1495.86 700.58L1490.18 705.375C1483.75 708.332 1479.76 707.761 1473 708.324L1442.47 711.941C1440.64 708.721 1435.52 706.14 1432.51 703.743C1425.97 698.542 1418.74 691.257 1414.95 683.82C1409.2 670.027 1407.57 662.181 1409.05 647.063C1411.42 644.337 1412.54 642.336 1413.41 638.805L1413.63 637.814C1413.36 636.57 1415.49 631.351 1416.1 630C1419.27 622.912 1426.02 617.938 1431.55 612.718C1439.71 605.018 1445.61 597.758 1456.24 593.481Z"/>
	<path fill="#C97FFE" transform="scale(0.0585938 0.0585938)" d="M1321.68 961.558C1328.76 959.078 1344.2 951.445 1351.05 953.784C1356.45 956.123 1362.19 960.537 1366.97 964.053C1368.81 965.4 1370.9 967.808 1372.99 968.581C1376.48 970.956 1379.68 973.142 1382.63 976.181L1391.76 984.367L1387.36 985.839C1386.8 987.825 1386.81 988.217 1387.99 990.005L1391.39 993.465L1388.87 994.738C1395.38 1000.95 1403.29 1009.19 1411.05 1013.55C1410.37 1024.31 1410.35 1035.8 1407 1046.11C1405.13 1051.89 1402.04 1057.27 1400 1063C1397.51 1069.97 1396.11 1076.88 1392.91 1083.62C1391.6 1081.37 1390.79 1079.08 1389.85 1076.67C1382.86 1058.75 1372.07 1041.65 1360.99 1026.03C1355.29 1018.01 1349.81 1009.98 1342.4 1003.42C1330.1 992.511 1316.75 985.239 1301.78 978.712L1291.04 975.11L1321.68 961.558Z"/>
	<path fill="#D986FD" transform="scale(0.0585938 0.0585938)" d="M1291.04 975.11L1321.68 961.558C1321.5 963.415 1321.29 965.102 1320.89 966.932C1319.09 968.087 1317.42 969.192 1315.45 970.042L1314 972.317L1312.25 971.936C1313.15 970.814 1312.72 971.285 1313.5 970.49L1310.51 971.269C1309.43 973.593 1308.83 975.449 1308.5 978L1309.75 978.87L1301.78 978.712L1291.04 975.11Z"/>
	<path fill="#A620C0" transform="scale(0.0585938 0.0585938)" d="M1351.05 953.784C1356.45 956.123 1362.19 960.537 1366.97 964.053C1368.81 965.4 1370.9 967.808 1372.99 968.581C1376.48 970.956 1379.68 973.142 1382.63 976.181L1391.76 984.367L1387.36 985.839C1386.8 987.825 1386.81 988.217 1387.99 990.005L1391.39 993.465L1388.87 994.738C1379.9 987.308 1371.27 978.992 1361.43 972.715C1358.92 971.119 1356.86 969.706 1354.78 967.543C1351.94 964.596 1348.09 960.288 1348.12 956L1351.05 953.784Z"/>
	<path fill="#C97FFE" transform="scale(0.0585938 0.0585938)" d="M869.68 683.781L869.99 683.565C883.55 672.748 900.452 663.883 917.201 659.576C922.804 658.135 928.063 656.667 933.922 657.052C938.181 657.064 943.296 656.729 947.325 658.225C949.879 659.174 951.684 661.304 953.892 662.811C964.05 669.745 974.97 677.321 984.163 685.48L996.642 696.239C999.519 698.887 1002.24 701.39 1002.55 705.5L1002.02 713.335L1002.46 717.48C1001.96 724.152 1001.41 730.74 999.982 737.289C997.695 747.752 994.789 754.922 995.577 765.965C992.87 767.821 988.38 768.332 985.192 767.577C976.25 765.462 971.579 749.568 966.822 742.319C949.967 716.632 922.247 695.405 892.345 687.27C885.085 685.295 877.137 685.261 869.68 683.781Z"/>
	<path fill="#970DC1" transform="scale(0.0585938 0.0585938)" d="M968.981 685.286C974.658 684.173 978.598 685.713 984.163 685.48L996.642 696.239C999.519 698.887 1002.24 701.39 1002.55 705.5L1002.02 713.335C997.677 711.119 994.348 705.873 990.5 702.66L968.981 685.286Z"/>
	<path fill="#A620C0" transform="scale(0.0585938 0.0585938)" d="M933.922 657.052C938.181 657.064 943.296 656.729 947.325 658.225C949.879 659.174 951.684 661.304 953.892 662.811C964.05 669.745 974.97 677.321 984.163 685.48C978.598 685.713 974.658 684.173 968.981 685.286L945.5 667.779C941.351 664.52 936.785 661.558 933.922 657.052Z"/>
	<path fill="#1F0649" transform="scale(0.0585938 0.0585938)" d="M1414.95 683.82C1418.74 691.257 1425.97 698.542 1432.51 703.743C1435.52 706.14 1440.64 708.721 1442.47 711.941C1437.33 718.811 1429.83 723.073 1423.5 728.703L1369.5 777.143L1271.77 862.5C1262.94 870.449 1248.66 879.627 1242.47 889.589C1240.28 893.114 1234.88 895.064 1231.67 897.816C1225.37 903.222 1219.7 910.349 1213 915.14C1209.47 914.42 1205.97 911.351 1202.87 909.5C1197.58 906.349 1190.44 903.494 1186.36 898.79C1184.37 896.484 1184.71 896.072 1184.95 893.163L1197.35 881.513L1201.14 877.715L1212.17 867.806C1223.19 860.724 1232.44 851.14 1241.04 841.357L1285.14 802.778L1330.16 763.681C1336.21 760.599 1342.7 752.897 1347.76 748.194C1351.26 746.402 1354.44 742.834 1357.39 740.195L1395.52 704.8C1402.57 698.18 1410.13 692.326 1414.95 683.82Z"/>
	<path fill="#54478C" transform="scale(0.0585938 0.0585938)" d="M869.68 683.781C877.137 685.261 885.085 685.295 892.345 687.27C922.247 695.405 949.967 716.632 966.822 742.319C971.579 749.568 976.25 765.462 985.192 767.577C988.38 768.332 992.87 767.821 995.577 765.965C1003.77 765.23 1008.92 768.761 1015.73 772.811L1076.54 818.479L1114.73 846.025L1130.87 857.536L1151.3 872.138C1160.14 878.799 1168.41 885.066 1177.99 890.69C1180.97 892.898 1181.06 893.302 1184.95 893.163C1184.71 896.072 1184.37 896.484 1186.36 898.79C1190.44 903.494 1197.58 906.349 1202.87 909.5C1205.97 911.351 1209.47 914.42 1213 915.14L1210.99 918L1211.56 920.5L1220.82 925.783C1232.11 931.057 1239.91 938.208 1249.38 946.01C1256.57 951.929 1264.17 957.02 1271.72 962.428C1277.95 966.89 1284.08 971.851 1291.04 975.11L1301.78 978.712C1316.75 985.239 1330.1 992.511 1342.4 1003.42C1349.81 1009.98 1355.29 1018.01 1360.99 1026.03C1372.07 1041.65 1382.86 1058.75 1389.85 1076.67C1390.79 1079.08 1391.6 1081.37 1392.91 1083.62C1395.13 1094.21 1397.08 1104.63 1395.81 1115.51C1395.12 1121.39 1393.13 1127 1391.91 1132.77C1390.42 1139.76 1388.6 1148.26 1385.15 1154.5C1384.47 1155.74 1384.26 1155.88 1383.42 1156.79L1381.76 1160.92L1354.27 1212.88C1340.49 1233.32 1330.27 1255.86 1317.43 1276.89L1305.02 1296.1C1304.1 1297.62 1301.97 1300.43 1301.63 1302.08L1287.46 1323.05L1276.98 1338.96L1274.31 1343.46L1209.84 1429.97C1198.91 1443.99 1187.38 1460.74 1173.26 1471.71C1162.6 1479.98 1151.47 1484.82 1138.34 1487.77C1129.88 1488.26 1121.37 1489.63 1112.88 1489.26C1094.81 1488.48 1079.69 1478.22 1066.02 1467.31L1059.5 1460.62L1055.66 1456.27C1043.02 1441.44 1037.5 1424.59 1039.09 1405.23L1044.9 1377.58L1048.44 1360.04L1066.69 1275.36C1069.69 1267.87 1074.65 1250.54 1072.23 1242.76L1071.78 1241.5C1068.11 1231.12 1056.48 1222.63 1047.98 1216.06C1043.68 1212.87 1039.52 1209.54 1034.66 1207.23L1033.15 1205.76L855.196 1083.39C846.9 1076.18 836.557 1070.39 827.238 1064.56L826.046 1063.91C812.315 1056.54 797.515 1056.69 782.995 1062.01C768.385 1067.35 756.949 1077.52 744.552 1086.59L687.08 1127.16L658.922 1144.97C653.321 1148.21 647.523 1151.78 641.227 1153.51C622.955 1158.54 603.136 1156.86 586.706 1147.07C567.521 1135.64 550.618 1112.61 545.106 1090.89C541.903 1078.27 540.31 1066.38 543.17 1053.5C544.475 1047.62 548.59 1040.58 550.981 1034.94C559.898 1013.9 568.197 991.593 579.686 971.851C581.247 967.363 584.663 962.72 586.987 958.525L610.082 918.511C616.979 913.048 621.372 905.987 626.438 898.958L633.567 889.636C635.301 887.524 636.512 885.493 637.78 883.092L673.67 842.093L704.172 808.726C709.373 803.843 713.874 797.607 718.514 792.146L752.5 749.141C757.315 742.858 763.481 736.379 769.992 731.865C781.842 723.65 795.012 718.968 807.606 712.399C811.022 710.617 813.823 708.066 817.149 706.219C824.236 702.284 832.388 699.126 839.759 695.693C849.101 691.341 859.42 685.18 869.68 683.781Z"/>
	<path fill="#293229" transform="scale(0.0585938 0.0585938)" d="M1282.02 1149.74L1284.4 1148.81C1287.43 1147.31 1288.14 1147.21 1291.49 1147.43L1296.88 1149.39L1294 1150.51L1295.36 1151.09C1297.28 1152.05 1298.01 1153.04 1299.26 1154.72C1292.65 1154.13 1287.89 1152.81 1282.02 1149.74Z"/>
	<path fill="#110334" transform="scale(0.0585938 0.0585938)" d="M897.084 873.135C901.046 870.169 904.318 871.082 908.879 871.653L910.106 872.912C911.76 874.56 911.016 873.998 912.838 875L912.025 878.151L910.013 878.486C904.146 879.336 901.371 876.513 897.084 873.135Z"/>
	<path fill="#110334" transform="scale(0.0585938 0.0585938)" d="M1148.21 1109.79C1148.84 1105.18 1145.97 1100.37 1148.5 1096.12C1151.49 1098.03 1152.29 1101.34 1153.73 1104.52C1158.16 1115.44 1159.04 1135.41 1154.84 1146.4C1154.26 1139.88 1154.77 1133.2 1154.49 1126.64C1154.45 1125.87 1154.58 1122.94 1154.27 1122.5C1152.81 1120.36 1151.63 1121.18 1150.48 1118C1151.9 1115.81 1151.26 1114.51 1151.01 1112L1148.21 1109.79Z"/>
	<path fill="#1F2A2A" transform="scale(0.0585938 0.0585938)" d="M1282.02 1149.74L1281.12 1148.92C1274.69 1142.7 1271.53 1136.47 1271.46 1127.5L1273.69 1126.33C1278.74 1134.53 1282.85 1139.59 1291.52 1144.29L1291.49 1147.43C1288.14 1147.21 1287.43 1147.31 1284.4 1148.81L1282.02 1149.74Z"/>
	<path fill="#341A70" transform="scale(0.0585938 0.0585938)" d="M925.737 842.774L931.946 849.186C930.056 859.37 928.129 867.289 919.037 873.63L915 876.154L912.025 878.151L912.838 875C911.016 873.998 911.76 874.56 910.106 872.912L908.879 871.653L903.964 868.567C906.976 868.761 910.348 868.701 913.14 869.943L914.5 870.591C919.363 868.181 921.956 867.689 924.5 862.715C924.093 861.2 923.778 860.282 922.83 858.988C921.59 857.293 921.961 855.512 921.891 853.428C924.852 849.822 925.391 847.38 925.737 842.774Z"/>
	<path fill="#0D042A" transform="scale(0.0585938 0.0585938)" d="M937.091 987.163C939.892 985.417 941.162 981.792 942.248 978.785C943.622 974.98 946.65 973.334 948.172 969.353L948.5 968.456L951.004 968.806C950.916 974.086 951.012 979.414 950.291 984.652C949.474 990.288 948.606 996.828 946.055 1001.98C943.922 998.804 945.634 995.92 942.82 992.093C941.031 991.986 939.436 992.27 937.669 992.517L937.017 987.786L937.091 987.163Z"/>
	<path fill="#1F0649" transform="scale(0.0585938 0.0585938)" d="M1148.21 1109.79L1151.01 1112C1151.26 1114.51 1151.9 1115.81 1150.48 1118C1151.63 1121.18 1152.81 1120.36 1154.27 1122.5C1154.58 1122.94 1154.45 1125.87 1154.49 1126.64C1154.77 1133.2 1154.26 1139.88 1154.84 1146.4L1154.52 1148.68L1152.49 1145.55C1151.31 1147.93 1150.26 1150.24 1148.71 1152.4C1149.39 1149.54 1149.85 1146.93 1150.1 1144C1148.18 1142.03 1147.1 1140.12 1145.86 1137.71C1145.08 1136.21 1143.94 1135.86 1142.52 1134.98C1142.17 1133.67 1145.4 1125.47 1145.92 1123.44L1147.23 1123.2C1147.01 1118.79 1147.77 1114.18 1148.21 1109.79Z"/>
	<path fill="#0D042A" transform="scale(0.0585938 0.0585938)" d="M1147.23 1123.2C1148.7 1125.83 1148.82 1128.58 1150.26 1131.13C1151.5 1133.32 1151.97 1135.99 1152.56 1138.43C1153.12 1140.72 1152.7 1143.23 1152.49 1145.55C1151.31 1147.93 1150.26 1150.24 1148.71 1152.4C1149.39 1149.54 1149.85 1146.93 1150.1 1144C1148.18 1142.03 1147.1 1140.12 1145.86 1137.71C1145.08 1136.21 1143.94 1135.86 1142.52 1134.98C1142.17 1133.67 1145.4 1125.47 1145.92 1123.44L1147.23 1123.2Z"/>
	<path fill="#1F0649" transform="scale(0.0585938 0.0585938)" d="M859.204 838.149C860.399 838.185 861.686 837.793 862.789 838.255C865.676 839.466 871.408 846.753 874.19 849.181C880.946 855.077 888.896 859.958 896.445 864.777C898.243 865.924 901.807 868.672 903.964 868.567L908.879 871.653C904.318 871.082 901.046 870.169 897.084 873.135C889.949 869.952 880.674 864.08 875.082 858.624C870.288 853.948 866.219 848.53 860.899 844.421L858.05 842L859.204 838.149Z"/>
	<path fill="#D4FFBC" transform="scale(0.0585938 0.0585938)" d="M1205.12 1141.58C1211.87 1133.94 1218.82 1129.21 1229.5 1128.85C1235.94 1128.64 1242.15 1130.89 1246.84 1135.38C1248.95 1137.41 1250.46 1139.68 1251.9 1142.21L1250.44 1144.53L1248.99 1144.08C1244.98 1140.5 1245.54 1143.25 1241.5 1142.15C1239.48 1141.6 1237.52 1139.54 1235.5 1138.86C1228.07 1136.38 1218.24 1147.01 1210.5 1146.43C1207.49 1145.17 1206.81 1144.2 1205.12 1141.58Z"/>
	<path fill="#283625" transform="scale(0.0585938 0.0585938)" d="M1324.8 1111.79C1327.98 1113.02 1328.68 1113.26 1330.93 1116C1331.72 1125.11 1332.41 1133.38 1326.01 1140.86C1319.21 1148.8 1311.99 1154.62 1301.08 1154.79L1299.26 1154.72C1298.01 1153.04 1297.28 1152.05 1295.36 1151.09L1294 1150.51L1296.88 1149.39L1291.49 1147.43L1291.52 1144.29C1296.09 1145.14 1300.71 1146.07 1304.75 1143.27C1307.46 1141.39 1309.4 1141.43 1312.5 1140.73C1317.23 1139.66 1321.61 1135.06 1323.87 1130.96C1327.66 1124.08 1326.67 1119.01 1324.8 1111.79Z"/>
	<path fill="#1F0649" transform="scale(0.0585938 0.0585938)" d="M750.164 922.309C746.179 918.962 742.325 915.19 739.106 911.088C724.679 892.705 714.512 868.765 717.378 844.929C723.316 865.204 727.163 884.093 740.662 901.43C745.892 908.148 753.527 914.165 760.166 919.514C757.858 919.295 755.728 919.071 753.473 918.5C751.218 919.671 751.263 919.974 750.164 922.309Z"/>
	<path fill="#341A70" transform="scale(0.0585938 0.0585938)" d="M778.515 757.859L779.867 767.131C780.636 772.609 783.734 775.084 787.881 778.221C791.995 781.333 795.968 784.53 800.295 787.358C806.079 791.14 813.114 794.728 817.128 800.5C816.677 802.575 815.956 803.385 814.51 804.911L811.5 806.266C800.372 798.838 788.723 791.151 779.303 781.553C776.162 778.353 772.867 774.925 771.713 770.5C772.665 764.466 774.792 762.595 778.515 757.859Z"/>
	<path fill="#110334" transform="scale(0.0585938 0.0585938)" d="M750.164 922.309C751.263 919.974 751.218 919.671 753.473 918.5C755.728 919.071 757.858 919.295 760.166 919.514C771.31 926.212 783.687 934.138 796.382 937.347C804.934 939.509 814.036 939.51 822.782 939.239L819.495 943.75L820.49 944.5L819.49 946L818.856 948.245C817.202 946.937 816.453 946.575 814.312 946.326C804.295 945.163 794.325 944.225 784.717 940.978C778.6 938.912 773.316 935.71 767.459 933.155C760.895 930.293 755.786 926.663 750.164 922.309Z"/>
	<path fill="#BFF991" transform="scale(0.0585938 0.0585938)" d="M1288.96 1094.88C1296.04 1092.54 1303.32 1090.55 1310.46 1093.89C1314.38 1095.72 1317.28 1098.58 1320.29 1101.59L1320.35 1102.82L1316.65 1104.76C1315.17 1104.19 1313.89 1103.58 1312.5 1102.85C1307.18 1103.47 1302.29 1104.99 1297.19 1106.51C1293.41 1107.63 1290.09 1109.12 1286.75 1111.19C1282.07 1114.08 1280.34 1117.97 1274.31 1115.5L1272.66 1111.34L1275.14 1107.67C1278.73 1101.42 1282.62 1098.24 1288.96 1094.88Z"/>
	<path fill="#D4FFBC" transform="scale(0.0585938 0.0585938)" d="M1275.14 1107.67C1278.73 1101.42 1282.62 1098.24 1288.96 1094.88L1296.2 1095.5L1295.78 1097L1297.89 1100C1295.52 1103.26 1287.82 1106.67 1283.88 1107.5L1281.5 1110.73C1278.77 1111.13 1278.32 1110.48 1275.9 1109.35L1275.14 1107.67Z"/>
	<path fill="#1F2A2A" transform="scale(0.0585938 0.0585938)" d="M1252.45 1066.58C1253.47 1061.44 1253.44 1056.69 1253.32 1051.5C1255.33 1053.04 1256.03 1055.46 1256.46 1057.95C1257.82 1065.92 1254.6 1078.14 1249.32 1084.12C1242.88 1091.41 1233.56 1093.53 1224.3 1094.48C1220.98 1093.18 1216.9 1091.94 1213.91 1090.02C1210.36 1087.74 1206.64 1082.29 1203.86 1078.98C1200.8 1075.34 1200.96 1070.61 1201.37 1066.15L1203.62 1065.76C1207.54 1072.18 1211.29 1077.53 1217.59 1081.91C1218.9 1082.72 1220.09 1083.44 1221.61 1083.76C1228.07 1085.11 1235.92 1083.51 1241.22 1079.76C1245.95 1076.86 1250.45 1071.72 1252.45 1066.58Z"/>
	<path fill="#1F2A2A" transform="scale(0.0585938 0.0585938)" d="M1254.28 1157.76L1255.25 1156.48L1255.95 1156.5C1256.55 1160.06 1256.91 1162.77 1255.86 1166.27L1255.5 1167.44C1254.88 1169.63 1254.33 1171.5 1253.25 1173.54C1249.48 1180.69 1244.01 1185.62 1236.23 1187.97C1229.21 1190.08 1220.75 1190.34 1214.25 1186.5C1207.52 1182.54 1202.08 1176.82 1200.19 1169.04C1199.03 1164.26 1199.04 1160.07 1201.59 1155.92C1204.3 1163.53 1206.92 1169.85 1213.9 1174.59C1216.5 1176.38 1219.54 1178 1222.44 1179.24C1225.82 1180.69 1233.15 1181.43 1236.47 1179.7C1245.01 1175.24 1251.87 1166.87 1254.28 1157.76Z"/>
	<path fill="#600CB9" transform="scale(0.0585938 0.0585938)" d="M783.819 870.626C780.509 867.692 775.461 864.075 773.5 860.084C771.888 856.803 772.034 853.372 773.324 850C775.696 843.802 781.283 838.074 785.562 833.119C791.204 826.586 797.015 818.218 804.882 814.431C806.807 823.057 816.722 827.575 822.327 834.076C814.385 841.056 791.573 869.993 783.819 870.626Z"/>
	<path fill="#341A70" transform="scale(0.0585938 0.0585938)" d="M825.761 1038.65C820.917 1034.33 815.18 1028.22 812.527 1022.28L811.977 1021L809.928 1016.53C805.919 1006.55 803.73 990.531 806.574 979.969C807.844 975.255 810.322 970.461 812.288 965.981C812.562 974.262 812.818 982.781 814.765 990.855L815.077 992.083C818.258 1009.2 827.115 1021.07 841.39 1030.98C856.713 1041.61 876.971 1042.73 894.928 1040.89C896.379 1043.03 896.615 1044.05 899.101 1045.09L899 1045.92L897.406 1046.11C895.816 1046.32 894.515 1046.63 893.005 1047.12C895.214 1049.93 896.816 1047.85 898.75 1050.75L896.5 1050.51L895 1052L893 1050.51L892.159 1050.73L891.005 1051.01L889.947 1051.29C883.882 1052.51 875.776 1051.53 869.49 1051.5L867.5 1049.51L866.49 1050.5L864.933 1049.51C862.107 1047.85 858.633 1048.35 855.49 1048.5L854 1047.51L851.246 1047.01C852.213 1045.34 851.944 1046.19 852.174 1044.5L850.75 1043.3C848.347 1043.87 846.574 1043.8 844.147 1043.63L843.58 1042.06C840.511 1043.69 831.077 1033.93 826.173 1034.29L825.761 1038.65Z"/>
	<path fill="#B143F6" transform="scale(0.0585938 0.0585938)" d="M814.803 806.163C817.27 804.363 819.133 801.973 821.12 799.677C822.916 802.742 826.543 807.249 830.005 808.342C831.23 809.214 833.482 811.342 834.899 811.46C843.808 817.95 850.21 825.593 859.835 831.245C861.38 832.153 862.318 833.066 863.478 834.405L865.594 834.192C864.236 835.55 864.359 835.678 862.377 836.201C860.485 836.7 861.158 836.367 860.054 837.046L859.204 838.149C854.271 842.556 851.216 849.512 847.137 854.75L822.327 834.076C816.722 827.575 806.807 823.057 804.882 814.431L814.803 806.163Z"/>
	<path fill="#D986FD" transform="scale(0.0585938 0.0585938)" d="M835.837 782.64C843.493 784.1 854.229 794.055 859.825 799.612L863.157 802.122C869.671 804.739 875.353 809.745 880.918 813.964L881.216 816.893L874.313 824.739L865.594 834.192L863.478 834.405C862.318 833.066 861.38 832.153 859.835 831.245C850.21 825.593 843.808 817.95 834.899 811.46C833.482 811.342 831.23 809.214 830.005 808.342C826.543 807.249 822.916 802.742 821.12 799.677C825.593 793.65 830.208 787.636 835.837 782.64Z"/>
	<path fill="#C97FFE" transform="scale(0.0585938 0.0585938)" d="M834.899 811.46L841.519 812.483L842.327 813.712C844.548 816.939 847.951 819.99 851.5 821.649C853.343 821.175 855.117 820.721 856.897 820.047C860.072 818.846 865.111 818.626 868.22 819.876L864.476 821.767C865.705 823.042 865.898 823.001 867.5 823.51L868.995 824.005L870 824L871.5 821.51L872.667 824.12L874.097 824.395L874.313 824.739L865.594 834.192L863.478 834.405C862.318 833.066 861.38 832.153 859.835 831.245C850.21 825.593 843.808 817.95 834.899 811.46Z"/>
	<path fill="#E5B8FD" transform="scale(0.0585938 0.0585938)" d="M835.837 782.64C843.493 784.1 854.229 794.055 859.825 799.612C858.942 801.049 858.72 802.279 857.069 802.805C854.946 803.481 853.085 804.115 851.184 805.289C847.028 807.857 841.664 809.033 837 810.482C834.716 809.608 832.462 808.557 830.005 808.342C826.543 807.249 822.916 802.742 821.12 799.677C825.593 793.65 830.208 787.636 835.837 782.64Z"/>
	<path fill="#600CB9" transform="scale(0.0585938 0.0585938)" d="M778.515 757.859C780.487 753.031 782.91 749.768 786.248 745.882C793.894 748.441 800.381 751.505 807.004 756.144C813.035 760.369 818.476 765.52 823.737 770.649C827.258 774.081 831.282 779.612 836.442 779.977L835.837 782.64C830.208 787.636 825.593 793.65 821.12 799.677C819.133 801.973 817.27 804.363 814.803 806.163L814.51 804.911C815.956 803.385 816.677 802.575 817.128 800.5C813.114 794.728 806.079 791.14 800.295 787.358C795.968 784.53 791.995 781.333 787.881 778.221C783.734 775.084 780.636 772.609 779.867 767.131L778.515 757.859Z"/>
	<path fill="#A8E875" transform="scale(0.0585938 0.0585938)" d="M1205.12 1141.58C1206.81 1144.2 1207.49 1145.17 1210.5 1146.43C1218.24 1147.01 1228.07 1136.38 1235.5 1138.86C1237.52 1139.54 1239.48 1141.6 1241.5 1142.15C1245.54 1143.25 1244.98 1140.5 1248.99 1144.08L1250.44 1144.53L1251.9 1142.21L1253.5 1148.84C1253.64 1150.69 1253.52 1156.33 1254.28 1157.76C1251.87 1166.87 1245.01 1175.24 1236.47 1179.7C1233.15 1181.43 1225.82 1180.69 1222.44 1179.24C1219.54 1178 1216.5 1176.38 1213.9 1174.59C1206.92 1169.85 1204.3 1163.53 1201.59 1155.92C1201.74 1152.56 1202.16 1149.53 1202.96 1146.26L1203.26 1145.16L1205.12 1141.58Z"/>
	<path fill="#B4F683" transform="scale(0.0585938 0.0585938)" d="M1203.26 1145.16L1205.47 1145.55L1205.51 1149.5C1207.39 1150.75 1207.4 1150.49 1209.51 1150.5L1209.4 1153.5L1205 1154.85C1202.79 1152.14 1203.23 1149.7 1202.96 1146.26L1203.26 1145.16Z"/>
	<path fill="#9BD76B" transform="scale(0.0585938 0.0585938)" d="M1251.9 1142.21L1253.5 1148.84L1252.62 1149.21C1251.15 1149.73 1250.01 1149.6 1248.49 1149.5C1245.56 1153.89 1251.51 1158.44 1245.17 1161.97C1243.98 1160.1 1243.16 1158.89 1243.05 1156.63C1242.93 1154.17 1242.05 1153.86 1240.51 1152L1241.5 1150.59L1244 1150.96L1245.26 1149.5L1242.53 1146.4L1242.92 1144.5L1248.99 1144.08L1250.44 1144.53L1251.9 1142.21Z"/>
	<path fill="#B4F683" transform="scale(0.0585938 0.0585938)" d="M1245.17 1161.97C1251.51 1158.44 1245.56 1153.89 1248.49 1149.5C1250.01 1149.6 1251.15 1149.73 1252.62 1149.21L1253.5 1148.84C1253.64 1150.69 1253.52 1156.33 1254.28 1157.76C1251.87 1166.87 1245.01 1175.24 1236.47 1179.7C1233.15 1181.43 1225.82 1180.69 1222.44 1179.24C1219.54 1178 1216.5 1176.38 1213.9 1174.59C1217.94 1174.86 1223.71 1175.44 1227.51 1173.94C1230.02 1172.94 1232.65 1172.53 1235.19 1171.5C1235.58 1170.27 1235.86 1169.15 1236.08 1167.88L1236.31 1166.5C1237.83 1165.34 1237.3 1165.43 1238.82 1165.16L1245.01 1164.01L1246.25 1164.51L1248 1163.5L1247.23 1162.23L1245.17 1161.97Z"/>
	<path fill="#A8E875" transform="scale(0.0585938 0.0585938)" d="M1272.66 1111.34L1274.31 1115.5C1280.34 1117.97 1282.07 1114.08 1286.75 1111.19C1290.09 1109.12 1293.41 1107.63 1297.19 1106.51C1302.29 1104.99 1307.18 1103.47 1312.5 1102.85C1313.89 1103.58 1315.17 1104.19 1316.65 1104.76L1320.35 1102.82C1320.26 1107.8 1321.11 1107.98 1324.41 1111.84L1324.8 1111.79C1326.67 1119.01 1327.66 1124.08 1323.87 1130.96C1321.61 1135.06 1317.23 1139.66 1312.5 1140.73C1309.4 1141.43 1307.46 1141.39 1304.75 1143.27C1300.71 1146.07 1296.09 1145.14 1291.52 1144.29C1282.85 1139.59 1278.74 1134.53 1273.69 1126.33L1273.41 1125.45L1273.02 1124C1271.75 1119.53 1272.21 1115.87 1272.66 1111.34Z"/>
	<path fill="#C97FFE" transform="scale(0.0585938 0.0585938)" d="M991.829 817.344C992.927 811.355 995.064 806.41 993.825 800.421C993.097 796.901 994.734 790.49 996.729 787.713C999.855 786.403 1002.89 787.354 1006.1 787.923C1010.51 791.178 1014.34 793.874 1015.11 799.636C1016.07 806.795 1012.13 816.207 1010.3 823.209C1008.98 828.244 1008.65 833.644 1007.27 838.5C1005.27 845.515 1002.32 852.56 999.649 859.355C998.195 863.058 997.034 867.681 994.58 870.781C991.571 874.583 987.72 876.43 983 876.898C979.379 875.915 978.114 874.952 975.743 872.071C974.661 866.401 979.096 859.807 980.832 854.228L991.829 817.344Z"/>
	<path fill="#5A06AF" transform="scale(0.0585938 0.0585938)" d="M822.327 834.076L847.137 854.75C842.825 862.547 837.208 868.898 831.559 875.729C829.841 877.807 827.447 878.909 826.5 881.49L825.49 882L814.37 893.62L783.819 870.626C791.573 869.993 814.385 841.056 822.327 834.076Z"/>
	<path fill="#5A06AF" transform="scale(0.0585938 0.0585938)" d="M881.216 816.893C884.589 816.621 888.569 820.25 891.5 821.978L919.371 838.852L925.737 842.774C925.391 847.38 924.852 849.822 921.891 853.428C921.961 855.512 921.59 857.293 922.83 858.988C923.778 860.282 924.093 861.2 924.5 862.715C921.956 867.689 919.363 868.181 914.5 870.591L913.14 869.943C910.348 868.701 906.976 868.761 903.964 868.567C901.807 868.672 898.243 865.924 896.445 864.777C888.896 859.958 880.946 855.077 874.19 849.181C871.408 846.753 865.676 839.466 862.789 838.255C861.686 837.793 860.399 838.185 859.204 838.149L860.054 837.046C861.158 836.367 860.485 836.7 862.377 836.201C864.359 835.678 864.236 835.55 865.594 834.192L874.313 824.739L881.216 816.893Z"/>
	<path fill="#42028D" transform="scale(0.0585938 0.0585938)" d="M860.054 837.046C861.355 837.111 862.709 836.868 863.958 837.242C866.582 838.026 873.764 846.461 876.574 848.759C885.795 856.297 896.13 862.358 906.293 868.515L921.891 853.428C921.961 855.512 921.59 857.293 922.83 858.988C923.778 860.282 924.093 861.2 924.5 862.715C921.956 867.689 919.363 868.181 914.5 870.591L913.14 869.943C910.348 868.701 906.976 868.761 903.964 868.567C901.807 868.672 898.243 865.924 896.445 864.777C888.896 859.958 880.946 855.077 874.19 849.181C871.408 846.753 865.676 839.466 862.789 838.255C861.686 837.793 860.399 838.185 859.204 838.149L860.054 837.046Z"/>
	<path fill="#42028D" transform="scale(0.0585938 0.0585938)" d="M905.131 747.708C912.429 752.165 922.734 759.29 926.628 767.059C926.133 773.081 921.422 776.987 917.411 781.218C908.685 790.423 899.55 800.507 889.852 808.673C887.166 810.935 884.483 813.388 880.918 813.964C875.353 809.745 869.671 804.739 863.157 802.122C863.196 800.915 862.9 799.649 863.273 798.5C864.162 795.759 869.499 790.479 871.481 788.047C880.843 776.559 889.743 764.175 900.521 754.009C902.638 752.093 903.769 750.159 905.131 747.708Z"/>
	<path fill="#5A06AF" transform="scale(0.0585938 0.0585938)" d="M912 773.5L912.613 773.863C911.256 776.425 912.457 779.534 911.51 781.5C910.752 783.073 907.959 784.366 907.005 786.005C905.423 788.723 903.831 790.255 901.51 792.5C900.007 792.458 898.76 792.356 897.312 792.857L896.5 793.202L894.338 791.5L894.568 789.753C895.654 788.351 898.163 785.479 900.005 785.005C903.925 783.996 900.257 785.632 903.5 784L902.977 781C904.011 778.296 905.047 777.04 907.005 775.005L909.75 776.75L912 773.5Z"/>
	<path fill="#B4F683" transform="scale(0.0585938 0.0585938)" d="M1203.62 1065.76L1202.17 1061.06C1201.14 1056.37 1202 1050.77 1204.71 1046.78C1211.03 1037.47 1220.22 1034.12 1230.72 1032.12C1236.59 1034.46 1242.82 1035.85 1247.14 1040.69L1248.21 1041.93C1253.53 1047.91 1252.3 1058.92 1252.45 1066.58C1250.45 1071.72 1245.95 1076.86 1241.22 1079.76C1235.92 1083.51 1228.07 1085.11 1221.61 1083.76C1220.09 1083.44 1218.9 1082.72 1217.59 1081.91C1211.29 1077.53 1207.54 1072.18 1203.62 1065.76Z"/>
	<path fill="#9BD76B" transform="scale(0.0585938 0.0585938)" d="M1217.59 1081.91L1220.48 1080.59L1221.17 1078.87C1223.19 1078.05 1225.14 1077.24 1227.27 1076.75L1228.5 1076.51L1229.5 1075.61C1231.35 1075.73 1232.62 1075.78 1234.42 1075.19L1239 1073.72L1239.21 1075.24L1240.74 1076.25L1239.31 1078.35L1241.22 1079.76C1235.92 1083.51 1228.07 1085.11 1221.61 1083.76C1220.09 1083.44 1218.9 1082.72 1217.59 1081.91Z"/>
	<path fill="#5A06AF" transform="scale(0.0585938 0.0585938)" d="M836.442 779.977C838.706 776.953 842.373 775.442 844.863 772.56L869.03 744C873.132 738.998 878.418 736.179 883.904 732.904C891.478 735.675 896.8 739.347 903.041 744.411L905.131 747.708C903.769 750.159 902.638 752.093 900.521 754.009C889.743 764.175 880.843 776.559 871.481 788.047C869.499 790.479 864.162 795.759 863.273 798.5C862.9 799.649 863.196 800.915 863.157 802.122L859.825 799.612C854.229 794.055 843.493 784.1 835.837 782.64L836.442 779.977Z"/>
	<path fill="#600CB9" transform="scale(0.0585938 0.0585938)" d="M900.521 754.009L898.434 752.801L896.51 752.5L898.25 751.25L897.71 749.7L895.822 749.69C895.364 748.226 895.109 747.003 894.883 745.5L896.25 744.133L903.041 744.411L905.131 747.708C903.769 750.159 902.638 752.093 900.521 754.009Z"/>
	<path fill="#C97FFE" transform="scale(0.0585938 0.0585938)" d="M1176.57 1018.49C1171.77 1020.73 1165.71 1023.83 1160.23 1023.05C1156.89 1022.57 1152.53 1020.43 1150.65 1017.5C1148.82 1014.64 1149.07 1012.64 1149.59 1009.5C1160.92 997.159 1177.46 991.311 1192.01 983.602C1197.45 980.718 1218.79 969.654 1223.23 969.99C1224.28 970.07 1226.68 970.99 1227.78 971.365C1235.37 973.954 1243.15 973.209 1250.5 975.971C1252.54 978.222 1253.16 978.544 1253.56 981.5C1252.95 982.316 1252.52 982.992 1251.78 983.667C1248.15 986.977 1240.36 989.437 1235.8 991.424C1214.6 997.872 1196.26 1008.64 1176.57 1018.49Z"/>
	<path fill="#1F0649" transform="scale(0.0585938 0.0585938)" d="M815.077 992.083C815.388 987.255 813.758 972.375 816 969.824L818.571 971.358L817.813 976C819.899 978.072 822.237 981.066 825.005 981.995L827.257 986.56C827.939 987.926 828.627 988.792 829.51 990C830.587 991.472 831.284 992.782 832.087 994.389C833.752 997.725 837.141 999.698 839.005 1003C840.303 1005.29 842.923 1006.77 845.005 1008C847.442 1009.43 848.09 1011.8 851.005 1013L861.534 1018.3C864.162 1019.62 866.842 1019.45 869.503 1020.77C871.151 1021.6 871.717 1021.65 873.5 1021.49L875.5 1019L877 1019.25C879.438 1019.4 882.031 1018.96 884.5 1019C892.633 1019.14 903.825 1021.3 911.51 1018.5L914.039 1020.61C918.779 1019.79 923.89 1019.12 927.505 1015.75C927.159 1013.65 926.625 1012.24 925.621 1010.37L927.513 1007.67C924.703 1006.42 920.82 1006.92 917.725 1006.93C924.127 1002.52 929.239 997.812 934.217 991.862L937.017 987.786L937.669 992.517C939.436 992.27 941.031 991.986 942.82 992.093C945.634 995.92 943.922 998.804 946.055 1001.98L945.829 1002.61L945.479 1004.15C943.648 1007.07 941.932 1010.33 939.664 1012.92L937.682 1016.08C926.612 1028.64 911.375 1037.5 894.928 1040.89C876.971 1042.73 856.713 1041.61 841.39 1030.98C827.115 1021.07 818.258 1009.2 815.077 992.083Z"/>
	<path fill="#110334" transform="scale(0.0585938 0.0585938)" d="M937.017 987.786L937.669 992.517C939.436 992.27 941.031 991.986 942.82 992.093C945.634 995.92 943.922 998.804 946.055 1001.98L945.829 1002.61L945.479 1004.15C943.648 1007.07 941.932 1010.33 939.664 1012.92C937.993 1013.19 936.423 1013.24 935.028 1014.3L932 1016.5C930.806 1012.04 931.456 1011.09 933.711 1007.11L934.349 1006L933.963 1003.5L934.217 991.862L937.017 987.786Z"/>
	<path fill="#0C0722" transform="scale(0.0585938 0.0585938)" d="M937.669 992.517C939.436 992.27 941.031 991.986 942.82 992.093C945.634 995.92 943.922 998.804 946.055 1001.98L945.829 1002.61C940.958 1002.54 941.251 1004.54 937.479 1007L936.434 1003.6C937.751 1000.22 937.529 996.131 937.669 992.517Z"/>
	<path fill="#C97FFE" transform="scale(0.0585938 0.0585938)" d="M944.735 1089.91L941.62 1084.5C937.044 1075.58 934.122 1066.32 937.808 1056.5C940.629 1048.99 948.337 1042.82 955.524 1039.66C963.023 1036.35 972.761 1037.13 980.177 1040.46C988.707 1044.28 996.64 1053.65 999.226 1062.64C1001.8 1071.59 998.273 1080.16 994.288 1087.98C986.424 1095.74 977.9 1100.88 966.5 1100.83C957.936 1100.8 950.894 1095.37 944.735 1089.91Z"/>
	<path fill="#C97FFE" transform="scale(0.0585938 0.0585938)" d="M1028.28 971.99L1027.59 971.375C1018.9 963.781 973.967 934.762 972.782 924.456C972.009 917.724 979.404 908.733 983.832 903.885L988.645 899.552C992.738 899.684 994.192 900.961 997.446 903.224C1007.81 910.434 1016.7 918.907 1026.51 926.715L1096.65 983.537L1120 1002.98C1123.71 1005.92 1127.96 1008.44 1131.17 1011.94C1132.79 1013.7 1133.51 1015.23 1134.17 1017.5C1133.8 1021.66 1132.33 1026.45 1128.71 1029.02C1124.39 1032.09 1117.5 1032.72 1112.29 1032.39C1101.8 1027.21 1093.81 1019.84 1084.5 1012.9L1028.28 971.99Z"/>
	<path fill="#B4F683" transform="scale(0.0585938 0.0585938)" d="M829.54 942.024L831.669 937.936L834.597 932.403C842.868 919.439 859.681 910.62 874.289 907.287C890.35 903.623 907.806 909.905 921.32 918.388C927.691 924.423 932.94 930.42 937.276 938.088L941.448 946.262C943.579 957.243 945.558 966.209 941.331 976.99C940.078 980.186 937.848 983.897 937.091 987.163L937.017 987.786L934.217 991.862C929.239 997.812 924.127 1002.52 917.725 1006.93L912.5 1011.1C902.467 1017.02 882.804 1018.26 871.778 1015.03C864.167 1012.8 856.541 1010.56 850 1005.9C836.647 996.383 829.509 983.664 826.739 967.659L825.888 962.061C824.726 958.82 823.858 957.872 821.5 955.51L819 957.275L815.146 955.151C816.002 952.545 817.367 950.513 818.856 948.245L819.49 946L820.49 944.5L819.495 943.75L822.782 939.239L828.693 938.5L829.54 942.024Z"/>
	<path fill="#BFF991" transform="scale(0.0585938 0.0585938)" d="M937.276 938.088L941.448 946.262C940.572 945.82 938.503 944.493 937.637 944.399C934.977 944.112 933.147 946.281 929.824 945.5L928.662 943.5C931.957 941.559 932.053 941.941 935.615 942.671L937.276 938.088Z"/>
	<path fill="#A8E875" transform="scale(0.0585938 0.0585938)" d="M826.03 955.469L831.708 952.5L833.617 956L833.335 956.82C832.25 960.136 831.492 963.678 833.303 966.886L834.088 968L833.5 970.557L831.576 971.566L830.27 970.266C829.143 969.157 828.164 968.379 826.739 967.659L825.888 962.061L826.03 955.469Z"/>
	<path fill="#1F0649" transform="scale(0.0585938 0.0585938)" d="M822.782 939.239L828.693 938.5L829.54 942.024C827.943 946.51 826.923 950.809 826.03 955.469L825.888 962.061C824.726 958.82 823.858 957.872 821.5 955.51L819 957.275L815.146 955.151C816.002 952.545 817.367 950.513 818.856 948.245L819.49 946L820.49 944.5L819.495 943.75L822.782 939.239Z"/>
	<path fill="#9BD76B" transform="scale(0.0585938 0.0585938)" d="M877.034 927.327C887.791 926.449 899.63 927.708 908.418 934.517L909.639 935.5C912.769 937.983 914.947 940.3 917.154 943.656L918.02 945L920.575 949.353C923.791 956.183 925.246 962.228 922.329 969.485C918.844 978.156 910.995 988.898 902.018 992.522C900.084 993.303 898.336 994.339 896.267 994.73C894.999 994.969 894.091 995.272 892.901 995.757L891.128 996.49C886.598 996.49 877.763 997.829 874 995.49L872.51 994.5C870.826 994.639 870.097 994.616 868.533 993.836L867.005 992.995C865.527 992.234 864.248 991.684 862.909 990.68L862.005 989.995C859.686 988.849 855.208 985.407 854.005 982.995L853.51 981.5C852.512 979.929 851.105 979.321 850.163 977.435L849.51 976C846.571 970.784 845.26 968.598 844.578 962.5C845.502 960.717 846.516 958.915 847.073 956.98C848.311 952.687 850.111 948.27 852.674 944.572C858.711 935.862 866.459 929.449 877.034 927.327Z"/>
	<path fill="#110334" transform="scale(0.0585938 0.0585938)" d="M815.146 955.151L819 957.275L821.5 955.51C823.858 957.872 824.726 958.82 825.888 962.061L826.739 967.659C829.509 983.664 836.647 996.383 850 1005.9C856.541 1010.56 864.167 1012.8 871.778 1015.03C882.804 1018.26 902.467 1017.02 912.5 1011.1L917.725 1006.93C920.82 1006.92 924.703 1006.42 927.513 1007.67L925.621 1010.37C926.625 1012.24 927.159 1013.65 927.505 1015.75C923.89 1019.12 918.779 1019.79 914.039 1020.61L911.51 1018.5C903.825 1021.3 892.633 1019.14 884.5 1019C882.031 1018.96 879.438 1019.4 877 1019.25L875.5 1019L873.5 1021.49C871.717 1021.65 871.151 1021.6 869.503 1020.77C866.842 1019.45 864.162 1019.62 861.534 1018.3L851.005 1013C848.09 1011.8 847.442 1009.43 845.005 1008C842.923 1006.77 840.303 1005.29 839.005 1003C837.141 999.698 833.752 997.725 832.087 994.389C831.284 992.782 830.587 991.472 829.51 990C828.627 988.792 827.939 987.926 827.257 986.56L825.005 981.995C822.237 981.066 819.899 978.072 817.813 976L818.571 971.358L816 969.824C813.758 972.375 815.388 987.255 815.077 992.083L814.765 990.855C812.818 982.781 812.562 974.262 812.288 965.981C810.322 970.461 807.844 975.255 806.574 979.969C803.73 990.531 805.919 1006.55 809.928 1016.53L811.977 1021L812.527 1022.28C815.18 1028.22 820.917 1034.33 825.761 1038.65C831.723 1043.76 837.089 1048 844.154 1051.58L845.536 1052.02C864.041 1057.84 887.773 1060.68 905.66 1051.19C909.926 1048.93 914.343 1048.57 918.5 1046.57C928.289 1041.87 938.759 1034.14 947.891 1028.08C950.85 1025.85 953.368 1023.03 955.951 1020.39L956.031 1020.08L958.988 1018.55C956.956 1025.35 954.204 1033.2 949.921 1038.92C947.193 1042.56 943.224 1045.05 940.274 1048.48C931.26 1058.97 933.962 1074.07 940.342 1085.08C941.532 1087.13 942.943 1088.4 944.735 1089.91C950.894 1095.37 957.936 1100.8 966.5 1100.83C977.9 1100.88 986.424 1095.74 994.288 1087.98C995.177 1087.34 995.201 1087.38 996.079 1086.43C1001.41 1080.69 1002.44 1071.71 1002.37 1064.25L1002.35 1063.2L1011.44 1068.15C1017.27 1070.81 1026.89 1074.05 1033.36 1073.38C1037.24 1072.97 1041.79 1070.41 1045.5 1069.05L1045.76 1071.29L1045.9 1071.32C1050.09 1067.52 1054.6 1063.92 1059.53 1061.14C1075.96 1051.88 1094.27 1052.31 1111.94 1057.25L1117.91 1060L1118.01 1060.29C1124.16 1063.26 1129.53 1067.07 1134.12 1072.19L1139.59 1079.77C1145.08 1089.49 1146.73 1097.85 1146.56 1109.02C1146.49 1113.77 1145.67 1118.76 1145.92 1123.44C1145.4 1125.47 1142.17 1133.67 1142.52 1134.98C1143.94 1135.86 1145.08 1136.21 1145.86 1137.71C1147.1 1140.12 1148.18 1142.03 1150.1 1144C1149.85 1146.93 1149.39 1149.54 1148.71 1152.4C1150.26 1150.24 1151.31 1147.93 1152.49 1145.55L1154.52 1148.68C1151.22 1155.21 1147.6 1160.43 1142.87 1166.02C1137.98 1170.96 1132.74 1177.02 1127.01 1180.87C1118.55 1186.57 1101.51 1191.58 1091.58 1191.38C1073.28 1191.01 1051.88 1179.32 1039.9 1166C1025.45 1149.92 1017.84 1130.88 1019.11 1109C1019.51 1102.01 1021.57 1096.17 1024.04 1089.68C1015.11 1100.22 1011.39 1113.17 1012.49 1126.98C1014.3 1149.78 1025.02 1173.42 1042.8 1188.07C1055.79 1198.76 1077.38 1206.28 1094.15 1204.47C1115.24 1202.19 1133.47 1192.79 1147.15 1176.42C1153.61 1168.89 1157.91 1162.17 1159.5 1152.18L1159.69 1150.88L1161.78 1149.77C1163.79 1155.29 1165.6 1161.23 1168.33 1166.44C1173.59 1176.45 1182.09 1185.55 1189.8 1193.71C1214.43 1214.82 1244.98 1224.67 1277.5 1221.26L1281.63 1220.48C1283.19 1220.16 1284.67 1220.09 1286.26 1219.97C1307.66 1218.24 1327.66 1209.61 1343.56 1195.24L1357.57 1182.87C1360.59 1177.58 1365.03 1172.69 1368.67 1167.78C1379.67 1152.93 1386.32 1140.83 1391.46 1123.1C1392.77 1132.91 1386.81 1142.7 1384.3 1151.88L1384.01 1153.01C1383.43 1154.93 1383.5 1153.94 1383.44 1155.74L1383.42 1156.79L1381.76 1160.92L1354.27 1212.88C1340.49 1233.32 1330.27 1255.86 1317.43 1276.89L1305.02 1296.1C1304.1 1297.62 1301.97 1300.43 1301.63 1302.08L1287.46 1323.05L1276.98 1338.96L1274.31 1343.46L1209.84 1429.97C1198.91 1443.99 1187.38 1460.74 1173.26 1471.71C1162.6 1479.98 1151.47 1484.82 1138.34 1487.77C1129.88 1488.26 1121.37 1489.63 1112.88 1489.26C1094.81 1488.48 1079.69 1478.22 1066.02 1467.31L1059.5 1460.62L1055.66 1456.27C1043.02 1441.44 1037.5 1424.59 1039.09 1405.23L1044.9 1377.58L1048.44 1360.04L1066.69 1275.36C1069.69 1267.87 1074.65 1250.54 1072.23 1242.76L1071.78 1241.5C1068.11 1231.12 1056.48 1222.63 1047.98 1216.06C1043.68 1212.87 1039.52 1209.54 1034.66 1207.23L1033.15 1205.76L855.196 1083.39C846.9 1076.18 836.557 1070.39 827.238 1064.56L826.046 1063.91C812.315 1056.54 797.515 1056.69 782.995 1062.01C768.385 1067.35 756.949 1077.52 744.552 1086.59L687.08 1127.16L658.922 1144.97C653.321 1148.21 647.523 1151.78 641.227 1153.51C622.955 1158.54 603.136 1156.86 586.706 1147.07C567.521 1135.64 550.618 1112.61 545.106 1090.89C541.903 1078.27 540.31 1066.38 543.17 1053.5C544.475 1047.62 548.59 1040.58 550.981 1034.94C559.898 1013.9 568.197 991.593 579.686 971.851L579.789 973.524C579.861 977.192 577.556 981.075 576.318 984.5C574.306 990.061 571.417 1002.97 572.407 1008.93C573.136 1013.33 578.745 1021.33 581.639 1024.5C586.429 1029.75 595.901 1031.38 602.692 1031.55C608.998 1031.7 617.198 1029.11 623.028 1029.89L626.719 1029.11C642.235 1024.24 659.949 1022.91 676 1020L718.752 1010.82C729.527 1008.87 740.839 1007.63 751.257 1004.2C761.641 1000.78 772.565 997.304 782 991.68C794.503 984.227 808.631 968.204 815.146 955.151Z"/>
	<path fill="#0D042A" transform="scale(0.0585938 0.0585938)" d="M623.028 1029.89L626.719 1029.11L641.5 1028.97L643.49 1030.5C637.81 1035.36 633.581 1031.84 628 1034.49L625.156 1035.23L624.5 1034L626 1033L626.001 1032.34L623.41 1031.43L623.028 1029.89Z"/>
	<path fill="#1F0649" transform="scale(0.0585938 0.0585938)" d="M1039.09 1405.23L1044.9 1377.58C1045.74 1383.15 1046.05 1387.48 1045.51 1393.1L1045.38 1394.29C1044.97 1398.31 1044.39 1403.29 1046.24 1407C1046 1409.31 1045.92 1410.59 1044.99 1412.75L1043 1412.5C1042.64 1410.72 1042.83 1410.34 1041.51 1409L1041.35 1404.64L1039.09 1405.23Z"/>
	<path fill="#1F0649" transform="scale(0.0585938 0.0585938)" d="M1033.15 1205.76L1033.55 1202.06L1035 1201.5L1034.76 1200L1035.66 1199.14L1036.43 1199.75C1038.08 1201.04 1039.33 1202.23 1041.49 1202.5L1042 1203.51L1044.5 1204.89C1046.12 1205.77 1047.28 1207.33 1048.57 1208.62C1049.9 1209.96 1049.02 1209.2 1050.75 1210.01C1052.22 1210.68 1053.47 1211.42 1054.99 1212.01C1055.25 1213.98 1054.82 1214.25 1053.99 1215.99C1052.01 1216.34 1050.02 1215.89 1047.98 1216.06C1043.68 1212.87 1039.52 1209.54 1034.66 1207.23L1033.15 1205.76Z"/>
	<path fill="#0D042A" transform="scale(0.0585938 0.0585938)" d="M794.51 994.5L796.751 994.594C795.743 996.544 795.836 995.848 795.693 997.759C795.547 999.724 794.579 1000.48 793.453 1002.08C793.701 1003.32 793.698 1002.75 793.443 1004.17L793.229 1005.23L794.25 1006.75L796 1006C798.06 1004.89 797.594 1004.53 798 1002.5L799.49 1002.5L800.75 1000.75C800.8 997.998 800.862 996.764 802.5 994.51L803.47 1000.55L802.867 1005.48C800.41 1008.89 798.735 1011.2 794.5 1012.48C792.266 1011.51 793.186 1011.81 790.841 1011.17L789.197 1010.74C788.174 1009.1 786.673 1007.7 787.093 1005.75C788.141 1000.86 790.231 997.26 794.51 994.5Z"/>
	<path fill="#0C0722" transform="scale(0.0585938 0.0585938)" d="M1142.52 1134.98C1143.94 1135.86 1145.08 1136.21 1145.86 1137.71C1147.1 1140.12 1148.18 1142.03 1150.1 1144C1149.85 1146.93 1149.39 1149.54 1148.71 1152.4L1147.52 1153.47C1146.81 1156.85 1144.92 1158.27 1142.5 1160.49C1140.05 1160.49 1139.97 1160.47 1138.01 1158.99C1137.21 1156.6 1137.74 1154.87 1138.27 1152.51L1138.51 1151.5L1135.76 1150.5L1134.61 1146.63C1136.66 1144.17 1138.14 1142.06 1139.47 1139.15L1142.52 1134.98Z"/>
	<path fill="#BFF991" transform="scale(0.0585938 0.0585938)" d="M1045.76 1071.29L1045.9 1071.32C1050.09 1067.52 1054.6 1063.92 1059.53 1061.14C1075.96 1051.88 1094.27 1052.31 1111.94 1057.25L1117.91 1060L1118.01 1060.29C1124.16 1063.26 1129.53 1067.07 1134.12 1072.19L1139.59 1079.77C1145.08 1089.49 1146.73 1097.85 1146.56 1109.02C1146.49 1113.77 1145.67 1118.76 1145.92 1123.44C1145.4 1125.47 1142.17 1133.67 1142.52 1134.98L1139.47 1139.15C1138.14 1142.06 1136.66 1144.17 1134.61 1146.63C1132.91 1148.09 1132.13 1148.86 1129.95 1149.48C1123.34 1151.37 1118.06 1156.81 1111.09 1158.34L1108.11 1159.31C1096.58 1162.17 1077.29 1161.39 1067.09 1154.91C1057.96 1151.32 1047.67 1140.18 1042.31 1132.06C1034.94 1121.41 1033.64 1110.06 1033.81 1097.43C1034.12 1087.44 1039.6 1078.76 1045.76 1071.29Z"/>
	<path fill="#A8E875" transform="scale(0.0585938 0.0585938)" d="M1069.51 1063.5L1073.5 1062.62C1075.33 1065.74 1075.36 1065.9 1075 1069.5L1071.5 1070.3L1069.5 1068.6L1069.51 1063.5Z"/>
	<path fill="#B4F683" transform="scale(0.0585938 0.0585938)" d="M1118.01 1060.29C1124.16 1063.26 1129.53 1067.07 1134.12 1072.19C1132.06 1072.23 1129.72 1072.1 1127.74 1072.66L1121 1074.94C1118.91 1074.04 1119.23 1074.61 1118.2 1072.25C1120.98 1069.45 1122.36 1071.09 1125.16 1069L1123.01 1066.98L1121.5 1066.49C1119.14 1064.28 1118.68 1063.31 1118.01 1060.29Z"/>
	<path fill="#B4F683" transform="scale(0.0585938 0.0585938)" d="M1063.27 1132.64C1069.53 1137.62 1074.49 1139.6 1082.12 1141.4L1074 1143.19L1072.8 1145.76C1067.51 1146.92 1067.53 1143.08 1062.5 1141.51L1058.51 1136.5L1059.01 1134.01C1060.25 1133.77 1061.32 1133.57 1062.48 1133.04L1063.27 1132.64Z"/>
	<path fill="#A8E875" transform="scale(0.0585938 0.0585938)" d="M1033.81 1097.43C1037.26 1094.62 1037.65 1093.18 1039.01 1089.01L1040.36 1088.84C1041.17 1091.73 1040.13 1092.75 1039.33 1095.55C1038.15 1099.67 1037.09 1106.16 1038.6 1110.31C1039.23 1112.05 1040.85 1112.94 1041.88 1114.37C1042.35 1115.01 1042.53 1115.77 1042.75 1116.51L1043.57 1115.17C1044.31 1116.79 1045 1118.29 1045.5 1120L1047 1119.76C1048.96 1120.45 1051.04 1121.19 1051.99 1123.25L1052.49 1125L1051.49 1126.5C1052.03 1128.11 1052.68 1129.04 1053.49 1130.5L1055.73 1134.99C1052.81 1135.45 1052.4 1133.68 1049.49 1134.5C1046.64 1132.23 1045.82 1132.4 1042.31 1132.06C1034.94 1121.41 1033.64 1110.06 1033.81 1097.43Z"/>
	<path fill="#B4F683" transform="scale(0.0585938 0.0585938)" d="M1111.24 1146.97C1112.77 1146.73 1114.03 1146.5 1115.51 1146L1116.5 1144.51L1120.5 1144.51C1120.51 1142.4 1120.25 1142.39 1121.5 1140.51C1123.12 1141.93 1122.52 1141.24 1123.82 1143.12L1124.75 1144.51L1127.75 1141.51C1130.46 1139.05 1131.72 1136.21 1134.08 1133.85C1135.14 1132.79 1134.66 1133.01 1135.94 1133.01C1135.98 1134.48 1136.01 1133.75 1135.74 1135.56L1135.51 1137C1137.24 1138.12 1136.57 1137.77 1138.31 1138.61L1139.47 1139.15C1138.14 1142.06 1136.66 1144.17 1134.61 1146.63C1132.91 1148.09 1132.13 1148.86 1129.95 1149.48C1123.34 1151.37 1118.06 1156.81 1111.09 1158.34C1106.44 1153.24 1102.07 1158.62 1096.56 1155.5C1098.59 1153.89 1100.41 1154.38 1102.54 1153.2C1105.08 1151.79 1107.68 1150 1109.9 1148.13L1111.24 1146.97Z"/>
	<path fill="#A8E875" transform="scale(0.0585938 0.0585938)" d="M1082.12 1141.4L1088.22 1142.46C1090.17 1143 1090.7 1142.94 1092.64 1142.75C1094.88 1142.52 1096.77 1142.66 1099 1142.75L1102 1142.69L1103.34 1143.82C1105.22 1145.27 1105.44 1145.02 1107.5 1145.51L1111.24 1146.97L1109.9 1148.13C1107.68 1150 1105.08 1151.79 1102.54 1153.2C1100.41 1154.38 1098.59 1153.89 1096.56 1155.5C1102.07 1158.62 1106.44 1153.24 1111.09 1158.34L1108.11 1159.31C1096.58 1162.17 1077.29 1161.39 1067.09 1154.91C1071.45 1154.45 1075.63 1154.55 1080 1154.76L1080.16 1153.67L1075.51 1149.5C1075.73 1146.98 1074.94 1145.47 1074 1143.19L1082.12 1141.4Z"/>
	<path fill="#9BD76B" transform="scale(0.0585938 0.0585938)" d="M1063.27 1132.64C1060.48 1129.49 1057.62 1126.37 1055.85 1122.5C1051.96 1113.94 1052.89 1104.06 1056.27 1095.52C1059.08 1088.39 1066.17 1079.76 1073.2 1076.58C1082.25 1072.47 1097.92 1072.47 1106.98 1076.23C1117 1080.38 1123.76 1087.75 1127.29 1098C1130.14 1106.29 1129.75 1116.08 1125.59 1123.82C1122.48 1129.62 1117.01 1134.66 1111 1137.25L1109.5 1137.91L1108 1138.48C1100.77 1141.53 1096.05 1142.68 1088.22 1142.46L1082.12 1141.4C1074.49 1139.6 1069.53 1137.62 1063.27 1132.64Z"/>
	<path fill="#B24A50" transform="scale(0.0585938 0.0585938)" d="M276.22 1258.23L277.252 1258.78C282.552 1247.25 287.965 1236.81 296.353 1227.08C303.04 1219.32 310.909 1212.24 318.071 1204.87L376.802 1145.69L516.696 1004.59L568.073 953.027C572.112 948.873 575.244 944.125 579.394 939.983C585.592 933.796 592.955 928.837 599.045 922.603C611.781 909.568 623.63 894.595 637.78 883.092C636.512 885.493 635.301 887.524 633.567 889.636L626.438 898.958C621.372 905.987 616.979 913.048 610.082 918.511L586.987 958.525C584.663 962.72 581.247 967.363 579.686 971.851C568.197 991.593 559.898 1013.9 550.981 1034.94C548.59 1040.58 544.475 1047.62 543.17 1053.5C540.31 1066.38 541.903 1078.27 545.106 1090.89C550.618 1112.61 567.521 1135.64 586.706 1147.07C603.136 1156.86 622.955 1158.54 641.227 1153.51C647.523 1151.78 653.321 1148.21 658.922 1144.97L687.08 1127.16L744.552 1086.59C756.949 1077.52 768.385 1067.35 782.995 1062.01C797.515 1056.69 812.315 1056.54 826.046 1063.91L827.238 1064.56C836.557 1070.39 846.9 1076.18 855.196 1083.39L1033.15 1205.76L1034.66 1207.23C1039.52 1209.54 1043.68 1212.87 1047.98 1216.06C1056.48 1222.63 1068.11 1231.12 1071.78 1241.5L1072.23 1242.76C1074.65 1250.54 1069.69 1267.87 1066.69 1275.36L1048.44 1360.04L1044.9 1377.58L1039.09 1405.23C1037.5 1424.59 1043.02 1441.44 1055.66 1456.27L1059.5 1460.62L1066.02 1467.31C1079.69 1478.22 1094.81 1488.48 1112.88 1489.26C1121.37 1489.63 1129.88 1488.26 1138.34 1487.77C1134.41 1489.28 1131.25 1489.83 1128.63 1493.3C1119.77 1505.04 1106.21 1513.5 1097.55 1525.11C1094.23 1529.56 1088.76 1533.35 1084.79 1537.37L1035.67 1586.73L1014.77 1607.79L963.567 1657.86C952.761 1668.71 941.259 1683.46 928.089 1691.37C912.004 1701.02 896.863 1707.44 877.814 1708.03C857.962 1708.65 840.179 1705.19 822.815 1694.99C812.271 1688.8 803.809 1680.09 796.056 1670.77C782.31 1654.25 766.652 1644.39 749.598 1631.9L672.738 1574.5C663.58 1567.59 653.326 1561.46 644.969 1553.59C628.78 1543.83 610.898 1531.11 596.942 1518.38L535.84 1472.35C523.366 1462.32 511.187 1451.5 497.858 1442.61C492.305 1438.9 485.513 1436.54 479.5 1433.63C471.722 1429.87 463.72 1424.59 454.939 1423.88L451.389 1423.44L447.759 1426.88C440.013 1432.95 433.375 1438.53 424.727 1443.25C406.108 1453.41 387.857 1454.75 367.188 1455.1C364.404 1455.15 360.714 1454.44 358.831 1456.5L359.874 1458.65C352.271 1455.41 345.635 1447.65 339.035 1442.7C327.823 1434.3 315.942 1421.6 308.523 1409.7C300.829 1397.34 293.005 1385.46 287.231 1371.96C272.005 1336.37 271.743 1295.96 276.22 1258.23Z"/>
	<path fill="#B34748" transform="scale(0.0585938 0.0585938)" d="M1059.5 1460.62L1066.02 1467.31C1066.3 1468.79 1066.62 1470 1067.2 1471.42L1067.77 1472.75L1065.75 1472.25L1065 1473.5L1066.99 1474.33L1066.99 1474.99L1065 1475.38L1060.39 1470.6C1058.06 1467.29 1054.29 1465.65 1052.39 1462.25C1053.98 1462.5 1053.78 1462.78 1055 1462C1056.7 1460.91 1057.49 1460.94 1059.5 1460.62Z"/>
	<path fill="#B34748" transform="scale(0.0585938 0.0585938)" d="M827.238 1064.56C836.557 1070.39 846.9 1076.18 855.196 1083.39L853.52 1086.07C846.391 1087.68 847.396 1083.49 841.51 1082.5L844.5 1079.51L844 1078.5C841.397 1077.32 840.18 1077.12 837.346 1077.5L838.961 1079.11C837.81 1080.76 836.92 1081.29 835.263 1082.37C833.012 1082.47 832.506 1082.49 830.51 1081.5L830.261 1079.05C831.576 1080.28 832.227 1080.68 834 1081L835.75 1079.75C835.157 1078.31 835.298 1078.98 835.21 1077.27L835.169 1075.99L830.51 1073.5L833 1072.5L830.036 1069.9C827.727 1068.2 827.696 1068.22 824.979 1068.69L821.51 1065.5L823 1065.21L827.238 1064.56Z"/>
	<path fill="#B14E47" transform="scale(0.0585938 0.0585938)" d="M596.942 1518.38C599.175 1518.57 602.233 1518.25 603.93 1519.7C609.18 1524.19 615.169 1526.23 620.43 1530.65C621.873 1531.86 622.951 1532.07 624.804 1531.88L625.862 1531.72C628.72 1534.32 628.011 1534.88 629.7 1537.71C631.226 1540.27 638.964 1545.86 641.722 1547.99C643.855 1549.64 644.417 1551.03 644.969 1553.59C628.78 1543.83 610.898 1531.11 596.942 1518.38Z"/>
	<path fill="#B14E47" transform="scale(0.0585938 0.0585938)" d="M1066.69 1275.36C1065.13 1271.61 1064.54 1262.66 1064.83 1258.47C1064.99 1256.19 1064.42 1255.44 1063.02 1253.59L1062.17 1252.5L1064.5 1248.51C1063.54 1242.68 1063.4 1242.4 1059.05 1238.4L1059.01 1237.25L1060.51 1236.5C1058.3 1233.19 1057.63 1233.14 1054.09 1231.67C1052.96 1229.02 1051.77 1226.5 1049.45 1224.68L1036.37 1214.47C1032.44 1211.14 1028.25 1210.53 1025 1206.5L1026.5 1205.91C1029.1 1206.89 1030.98 1207.19 1033.76 1207.23L1034.66 1207.23C1039.52 1209.54 1043.68 1212.87 1047.98 1216.06C1056.48 1222.63 1068.11 1231.12 1071.78 1241.5L1072.23 1242.76C1074.65 1250.54 1069.69 1267.87 1066.69 1275.36Z"/>
</svg>
