<?xml version="1.0" encoding="utf-8" ?>
<svg xmlns="http://www.w3.org/2000/svg" xmlns:xlink="http://www.w3.org/1999/xlink" width="120" height="120">
	<path fill="#EBF2FA" transform="scale(0.0585938 0.0585938)" d="M0 9L0 0L1060.33 0L1081.21 0L2048 0L2048 5L2048 414.671L2048 2046L2046.88 2047.88L1980.76 2048L1937.35 2048L1304.7 2048L1303.19 2048L86.7206 2048L66.2928 2048L40.0752 2048L0 2048L0.234678 2043.75L0 1958.2L0 1909L0 1366.64L0 1351.65L0 454.105L0 357L0 128.724L0 9Z"/>
	<path fill="#FAFCFF" transform="scale(0.0585938 0.0585938)" d="M1743.92 1531.5L1747.01 1530.74C1748.91 1532.17 1748.87 1532.36 1749.54 1534.67L1747.5 1536.94C1744.82 1537.26 1743.92 1537.61 1741.51 1536.5L1741.44 1533.75L1743.92 1531.5Z"/>
	<path fill="white" transform="scale(0.0585938 0.0585938)" d="M1060.33 0L1081.21 0L1082.37 1.99493C1076.58 2.67854 1071.38 2.75158 1065.58 2.24221L1060.33 0Z"/>
	<path fill="#FAFCFF" transform="scale(0.0585938 0.0585938)" d="M1491.07 994.783C1489.84 992.964 1489.46 993.139 1489.74 990.838L1492 988.126L1496.86 988.142L1496.79 989.977C1496.74 992.422 1496.57 991.472 1497.41 993.5L1493.5 997.088L1491.07 994.783Z"/>
	<path fill="#FAFCFF" transform="scale(0.0585938 0.0585938)" d="M155.886 1337.88C155.629 1340.13 155.344 1342.28 155.778 1344.53C156.166 1346.54 155.926 1346.29 154.995 1347.99L153.5 1348.37L149.602 1344.5C151.209 1341.77 151.088 1339.75 151.033 1336.71L151 1335.5C152.74 1336.13 151.855 1335.87 154.118 1336.32L155.916 1336.65L155.886 1337.88Z"/>
	<path fill="#FAFCFF" transform="scale(0.0585938 0.0585938)" d="M0 1351.65C0.937791 1350.87 1.21614 1335.1 1.93915 1331.58L2.14789 1356.44C1.7626 1361.49 2.1532 1366.22 2.66101 1371.23L1.66438 1374.02L0 1366.64L0 1351.65Z"/>
	<path fill="white" transform="scale(0.0585938 0.0585938)" d="M0.234678 2043.75L1.60636 2042.84L3 2046.16L41.7167 2045.89L40.0752 2048L0 2048L0.234678 2043.75Z"/>
	<path fill="white" transform="scale(0.0585938 0.0585938)" d="M0 1909C1.43532 1906.9 1.27227 1900.6 1.88809 1897.67L2.44281 1936.62C2.46109 1943.02 2.88844 1950.93 1.81126 1957.18L0 1958.2L0 1909Z"/>
	<path fill="white" transform="scale(0.0585938 0.0585938)" d="M2045.84 2045.6L2048 2046L2046.88 2047.88L1980.76 2048L1980.04 2045.91L2044.34 2046.58L2045.84 2045.6Z"/>
	<path fill="white" transform="scale(0.0585938 0.0585938)" d="M0 1958.2L1.81126 1957.18L1.98282 2002.94C2.23259 2015.98 3.43446 2029.91 1.60636 2042.84L0.234678 2043.75L0 1958.2Z"/>
	<path fill="#FAFCFF" transform="scale(0.0585938 0.0585938)" d="M356.151 443.897C354.51 443.29 353.049 442.717 351.5 441.89C351.771 439.98 351.947 438.032 352.697 436.24L354.104 432.5L352.25 429.594L354 428.755C355.539 429.902 354.64 429.293 356.75 430.505L357.5 428C358.677 423.794 362.033 421.523 362.797 417.703L363 416.5L363.75 414.75L361.51 412.5C361.51 410.132 361.146 409.547 362.5 407.51L364 411.5L365 411.5C366.119 409.491 367.409 407.491 368.219 405.336L368.5 404.51L369.49 405.5C368.963 407.72 368.954 409.894 368.849 412.165C366.101 423.165 360.385 433.379 356.151 443.897Z"/>
	<path fill="white" transform="scale(0.0585938 0.0585938)" d="M0 9C1.67888 21.5351 -1.56636 35.3938 1.77894 47.4927L2.35679 165.757C2.25014 174.438 3.6875 185.802 2.08008 194.175L0 128.724L0 9Z"/>
	<path fill="#FAFCFF" transform="scale(0.0585938 0.0585938)" d="M1566.44 256.943C1573.06 255.035 1579.05 257.09 1585.5 255.548L1586.56 256.043C1588.64 256.924 1590.76 257.132 1592.89 258.005C1594.06 258.482 1595.21 258.635 1596.44 258.828C1598.08 259.084 1599.45 259.536 1601 260.097C1603.64 259.631 1605.59 259.244 1608 258L1610 258.5L1610.5 259.51C1614.39 260.061 1620.15 258.178 1623 261C1625.5 261.167 1626.16 260.657 1628 262.5C1626.72 263.451 1627.4 263.139 1626 263.51L1626.81 263.617C1629.4 264.259 1631.23 266.288 1632.5 268.51L1633.99 269.005C1634.98 272.705 1633.48 277.976 1635.49 281C1635.5 283.731 1635.16 284.769 1636.49 287L1637 288.51L1638.49 289.5L1637.5 290.51L1638.49 292L1638.5 294C1642.53 293.718 1642.41 294.019 1645.49 296.5L1644.5 298.49L1640.5 294.655L1639.23 296C1639.41 298.27 1639.19 298.928 1640.46 300.848C1641.6 302.569 1641.65 303.104 1641.99 305.005L1642.41 307C1643.06 310.716 1643.43 312.644 1645.42 316C1645.42 319.031 1645.47 321.107 1643.94 323.853C1641.1 318.263 1639.45 311.574 1637.46 305.586C1633.39 293.351 1629.15 281.833 1628.17 268.879L1566.44 256.943Z"/>
	<path fill="white" transform="scale(0.0585938 0.0585938)" d="M0 128.724L2.08008 194.175L1.98499 415.522L2.01797 454.804L0 454.105L0 357L0 128.724Z"/>
	<path fill="white" transform="scale(0.0585938 0.0585938)" d="M0 357C2.06512 370.79 0.528597 386.207 0.816621 400.261C0.916245 405.121 0.557939 410.86 1.98499 415.522L2.01797 454.804L0 454.105L0 357Z"/>
	<path fill="white" transform="scale(0.0585938 0.0585938)" d="M0 1366.64L1.66438 1374.02L1.79942 1750.11L1.81174 1852.42L2.22616 1884.18C2.20312 1888.35 2.79985 1893.63 1.88809 1897.67C1.27227 1900.6 1.43532 1906.9 0 1909L0 1366.64Z"/>
	<path fill="white" transform="scale(0.0585938 0.0585938)" d="M1304.7 2048C1305.64 2047.28 1306.42 2046.3 1307.51 2045.84C1308.98 2045.21 1312.95 2045.64 1314.79 2045.58L1345.41 2045.92L1446.75 2046.2L1551.67 2045.52L1670 2046.62L1733.03 2045.67L1928.46 2045.91L1961.5 2045.91C1967.51 2045.93 1974.12 2046.64 1980.04 2045.91L1980.76 2048L1937.35 2048L1304.7 2048Z"/>
	<path fill="white" transform="scale(0.0585938 0.0585938)" d="M2.01797 454.804L1.93915 1331.58C1.21614 1335.1 0.937791 1350.87 0 1351.65L0 454.105L2.01797 454.804Z"/>
	<path fill="#FAFCFF" transform="scale(0.0585938 0.0585938)" d="M0 9L0 0L1060.33 0L1065.58 2.24221L1057.62 1.91417C1056.08 1.80603 1054.84 1.98739 1053.32 2.18271C1043.76 3.41576 1034.1 2.86009 1024.5 2.66813L978.71 1.98563L889.256 1.67614C874.015 1.5464 858.725 2.10416 843.518 0.957775C839.048 0.620775 834.481 1.42708 829.992 1.43496L792.564 1.93988L726.984 1.48286L681 2.10329L158.206 1.16597L108.527 2.12726L45.5 2.01408C30.8718 2.05585 15.4599 3.32861 0.91699 1.78024C2.48741 17.1185 1.43815 32.1249 1.77894 47.4927C-1.56636 35.3938 1.67888 21.5351 0 9Z"/>
	<path fill="white" transform="scale(0.0585938 0.0585938)" d="M119.654 2045.97L488.414 2045.94L516.5 2046.67L689.908 2045.69L1282.5 2045.91C1288 2045.88 1299.09 2044.17 1303.19 2048L86.7206 2048L66.2928 2048L40.0752 2048L41.7167 2045.89L48.4595 2046.12L119.654 2045.97Z"/>
	<path fill="white" transform="scale(0.0585938 0.0585938)" d="M1081.21 0L2048 0L2048 5L2048 414.671L2048 2046L2045.84 2045.6C2045.12 2038.4 2045.7 2030.77 2045.76 2023.53L2045.98 1985.09L2045.98 1897.95L2045.75 1603.49L2046.31 1559.61L2046.28 958.79L2046.22 511.5L2046.24 389.311L2046.01 54.5475L2045.76 2.87493L1924.68 1.69144L1882.06 0.434364L1847.33 1.71466L1805.75 1.14641L1768.01 1.35492C1764.13 1.27474 1759.06 2.17204 1755.37 1.27946C1753.72 0.878904 1752.74 0.363747 1750.97 0.661771C1732.53 3.77121 1712.66 1.66123 1694 1.57283L1631.96 2.27354L1590.48 1.64276L1378.81 1.91477L1329.23 1.91976C1320.13 1.89892 1310.1 2.48611 1301.18 0.842599L1299.5 0.51C1295.82 2.54295 1291.02 1.83328 1286.93 1.7993L1260.5 1.61742L1139.32 1.7195C1120.5 1.74189 1101.08 3.6801 1082.37 1.99493L1081.21 0Z"/>
	<path fill="#427AA1" transform="scale(0.0585938 0.0585938)" d="M542.288 245.083C549.369 241.906 557.282 240.807 564.743 238.888L609.167 227.591C616.651 225.68 623.599 222.912 630.942 220.76L684.661 205.438C764.503 181.377 841.45 150.795 918.937 120.171C952.088 107.069 986.911 96.314 1018.91 80.7161C1019.83 80.2707 1022.48 78.8155 1023.4 78.7031C1026.43 78.3319 1074.57 96.8332 1081.27 99.1965L1095.68 104.432C1107.91 108.241 1119.55 113.111 1131.5 117.64L1161.97 128.371L1208.74 147.221L1235 157.222C1239.86 158.983 1244.46 160.178 1248.86 162.972C1251.81 164.848 1255.36 165.554 1258.42 167.223L1261.68 168.427L1518.32 247.107L1530.23 249.921C1540.95 251.663 1551.84 253.211 1562.23 256.428C1563.69 256.882 1564.91 256.991 1566.44 256.943L1628.17 268.879C1629.15 281.833 1633.39 293.351 1637.46 305.586C1639.45 311.574 1641.1 318.263 1643.94 323.853L1643.87 325.163L1653.7 352C1654.96 355.54 1657.32 360.07 1657.71 363.752L1661.69 374.088C1663.49 379.425 1666.57 384.391 1668.93 389.5L1680.4 416.267C1682.34 420.314 1686.75 426.639 1687.63 430.797C1689.59 434.755 1692.87 439.674 1693.94 443.865C1706.43 466.414 1718.36 488.921 1733.12 510.143C1735.79 513.981 1739.14 517.322 1742 521.019C1746.54 526.887 1750.2 533.431 1754.81 539.229C1760.92 546.921 1768.45 553.873 1774.99 561.238C1799.3 588.586 1825.13 615.008 1852.07 639.788L1928.89 705.828C1931.06 707.65 1943.93 714.828 1944.46 715.967C1945.5 718.242 1944.8 727.585 1944.86 730.61L1945.16 803.094L1945.1 997.018L1942.1 1071.62C1940.66 1095.67 1937.3 1119.63 1934.08 1143.49C1932.33 1156.48 1931.14 1171.07 1927.67 1183.64C1924.71 1194.39 1923.37 1205.54 1921.32 1216.5L1910.37 1267.01C1903.01 1297.85 1893.38 1327.99 1883.19 1358C1874.29 1384.24 1865.5 1411.27 1853.96 1436.5C1851.36 1442.17 1847.54 1447.46 1844.83 1453.18L1837.11 1467.48L1836.32 1467.29C1832.75 1460.21 1829.06 1453.68 1826.18 1446.26L1795.36 1378.1C1790.86 1370.57 1786.41 1362.67 1784.61 1354.01L1785.72 1353.4C1788.4 1341.5 1795.97 1329.14 1800.33 1317.52C1808.61 1295.44 1815.16 1271.92 1821.36 1249.2C1822.8 1243.93 1825.55 1239.07 1826.81 1233.77C1837.74 1188 1848.08 1141.79 1853.74 1095C1859.53 1047.15 1861.12 998.809 1861.11 950.644L1860.11 917.5L1859.79 847.141L1855.85 777.048L1854.91 757.1C1853.84 752.37 1854.22 746.62 1854 741.719C1853.84 738.251 1854.13 730.356 1852.74 727.426C1851.89 725.634 1843.94 721.697 1841.88 720.296C1825.97 709.481 1812.4 697.154 1798.37 684.118C1765.74 653.807 1736.59 619.621 1710.59 583.5C1706.43 577.719 1703.24 571.261 1698.96 565.5C1665.06 519.875 1632.35 471.645 1610.25 418.968L1584.92 354.5L1577.41 332.045C1575.9 326.913 1574.86 319.922 1571.5 315.795C1564.28 317.737 1559.27 314.179 1552.57 313.5C1550.57 313.298 1548.52 314.025 1546.5 313.852C1543.64 313.607 1540.78 312.337 1537.94 311.806L1372.62 268.202L1371.75 267.891C1369.32 267.76 1366.27 266.204 1363.93 265.384L1349.61 260.906C1341.62 257.712 1333.21 254.068 1324.7 252.535C1322.84 252.201 1321.93 252.033 1320.22 251.065C1312.65 246.758 1303.55 244.619 1295.28 241.967C1290.93 240.569 1286.8 238.497 1282.5 236.927C1278.12 235.324 1274.02 234.317 1270.06 231.707C1259.97 228.36 1249.13 225.259 1239.63 220.489C1226.42 213.861 1210.84 209.444 1196.84 204.506L1152.06 186.644L1132.55 179.22C1126.81 177.194 1120.46 175.507 1115.27 172.31C1113.39 171.152 1112.56 171.297 1110.48 171.16C1108.98 171.062 1108.33 170.492 1107.07 169.769C1103.57 167.755 1099.76 167.101 1096.13 165.459C1081.13 158.679 1065.76 153.9 1050.45 148.071L1034 142.058C1032.41 141.491 1029.51 139.759 1028 139.616C1027.69 139.587 1025.69 140.066 1025.24 140.196L688.635 266.929C680.148 269.889 671.188 271.565 662.668 274.934L654.201 277.579C651.229 278.57 648.052 279.019 645 279.916L594.5 293.433C586.416 295.393 577.698 296.573 569.953 299.748C568.453 300.362 567.658 300.374 566.087 300.498C561.981 300.824 558.502 302.424 554.606 303.558L538.5 307.583C533.966 308.704 529.508 308.824 525 309.714C508.153 313.04 491.811 317.105 474.587 318.45L456.101 377.5C443.521 416.165 428.974 456.754 408.419 492C405.191 497.534 401.95 503.642 398.143 508.779C395.926 511.769 392.964 514.104 390.91 517.198C388.889 518.761 387.426 519.564 384.927 520.235C375.877 522.666 365.956 522.688 356.669 523.922L298.162 532.003C305.218 524.648 311.157 516.909 317.432 508.92C320.559 504.94 324.124 501.272 326.863 497C337.67 480.144 346.766 461.605 356.151 443.897C360.385 433.379 366.101 423.165 368.849 412.165C374.498 403.128 377.283 392.444 380.936 382.546L400.737 330.667C403.67 323.584 405.351 316.199 407.679 308.917C411.753 296.172 415.752 284.436 418.05 271.157C424.164 268.823 429.81 268.535 436.117 267.298L482.795 258.796L541.163 245.26L542.288 245.083Z"/>
	<path fill="#427AA1" transform="scale(0.0585938 0.0585938)" d="M213.205 629.227L277.355 625.661C284.633 625.297 300.714 621.67 306.859 625.044C298.919 634.1 291.448 643.778 283.126 652.462C263.953 672.471 242.541 692.107 220.955 709.542L202.215 723.62C200.83 724.731 199.682 725.427 197.97 726C195.308 731.861 195.854 740.939 195.598 747.438L193.968 784.362C193.716 790.476 194.072 797.155 193.128 803.161C193.08 812.834 193.943 824.61 192.14 834.035L191.821 841.779L191.769 852.37L191.069 863.311L191.751 1044.67C195.134 1091.35 202.389 1137.74 212.095 1183.5C214.757 1196.05 216.227 1209.24 220.209 1221.43C223.288 1230.85 224.93 1241.26 227.624 1250.89L238.671 1285.56L244.346 1306.71C247.078 1316.08 250.907 1325.55 254.39 1334.67C272.008 1380.82 293.885 1424.37 318.997 1466.81L347.371 1513.15C366.137 1540.81 387.948 1567.9 410.478 1592.59C441.605 1626.7 477.535 1658.24 514.293 1686.11L551.935 1712.74C563.08 1720.4 574.179 1728.59 586 1735.18L587.915 1736.13C589.277 1736.79 590.008 1737.29 591.178 1738.17C595.285 1741.24 600.281 1743.34 604.692 1745.99C619.773 1755.05 635.073 1762.67 650.928 1770.25L713.5 1798.52C737.122 1807.83 761.669 1814.82 786 1821.94C834.424 1836.11 883.396 1846.32 933.717 1850.99C940.27 1850.39 946.495 1850.67 953.051 1851.03C954.916 1851.13 960.465 1851.87 962 1851.32C962.967 1850.97 963.66 1850.11 964.49 1849.5L955.147 1848.41L954.355 1847.15L1023.81 1850.04C1085.09 1849.82 1147.93 1844.52 1207.91 1831.67C1264.67 1819.51 1319.72 1799.98 1372.22 1775.39L1361.79 1766.65C1356.8 1761.86 1350.93 1757.95 1345.19 1754.17C1344.4 1750.66 1331.17 1742.04 1328 1739.85L1274.46 1698.81C1209.25 1651.66 1142.93 1604.97 1071.97 1566.64L1075.78 1564.51L1192.55 1635.62C1195.02 1637.11 1199.36 1640.6 1202.01 1641.13L1236.39 1664.97C1244.3 1670.89 1251.7 1675.89 1258.62 1683.04L1274.09 1693.31C1286.1 1701.55 1297.36 1711.13 1308.65 1720.35C1314.14 1724.83 1319.7 1730.18 1325.83 1733.7C1328.78 1736.15 1336.43 1743.95 1339.86 1744.52L1375.88 1774.87L1401.67 1762.59L1424.69 1750.08C1427.37 1748.55 1430.17 1745.98 1433.2 1745.45C1437.61 1744.68 1442.89 1740.06 1446.86 1737.72C1468.36 1725.04 1489.82 1712.14 1510.02 1697.42C1518.4 1691.31 1526.2 1684.28 1534.28 1677.77C1542.93 1672.1 1550.62 1665.27 1558.67 1658.82C1580.25 1641.52 1601.1 1622.41 1620.11 1602.28C1624.18 1598.86 1627.59 1594.77 1631.12 1590.8C1636.4 1586.34 1641.37 1580.21 1646.19 1575.2C1665.13 1555.54 1682.68 1533.84 1697.65 1511.04L1700.87 1507.01C1703.27 1509.47 1703.74 1509.68 1703.8 1513.22L1703.7 1514.01L1714.7 1542.83L1720.49 1559.27L1720.83 1561.52L1724.54 1571.64L1737.02 1620.21L1729.84 1628.7L1713.46 1647.66L1713.48 1647.71L1622.01 1737.66L1616.39 1741.95L1566.89 1780.32C1532.02 1806.11 1496.09 1830.13 1457.33 1849.76C1419.52 1868.9 1380.13 1882.76 1340 1895.99C1290.26 1912.39 1239.74 1927.12 1188.09 1936.34C1150.39 1943.08 1112.12 1946.57 1074 1949.7C1045.36 1952.04 1016.89 1953.62 988.147 1951.25C899.488 1943.92 811.53 1927.43 726.624 1900.81C693.917 1890.56 661.153 1879.57 629.731 1865.78L623.049 1862.7L572.943 1838.81L556.944 1829.69L525.9 1811.68C521.824 1809.94 518.037 1806.97 514.349 1804.51L506.108 1799.4L479.692 1781.3L421.685 1735.15L412.801 1727.66L388.22 1704.97L388.242 1704.9L374.709 1690.61L360.837 1675.68L339.931 1652.38C334.477 1646.97 329.481 1640.62 325.218 1634.23C324.069 1633.84 320.082 1628.11 319.025 1626.83C316.41 1623.86 314.287 1620.45 312.067 1617.18L311.98 1617.2L296.159 1596.72C284.875 1584 276.053 1569 266.261 1555.14L249.418 1530.59L248.26 1528.07L211.321 1463.99L211.235 1464C205.06 1453.66 198.418 1441.54 194.427 1430.2C181.178 1405.99 171.248 1378.35 161.721 1352.48L155.886 1337.88L155.916 1336.65C154.711 1333.95 154.014 1331.2 153.27 1328.35C144.218 1308.44 139.467 1284.79 134.249 1263.66C127.979 1238.25 121.008 1212.15 118.011 1186.13C114.301 1171.47 113.189 1155.26 111.052 1140.25C109.206 1133.1 109.097 1124.86 108.381 1117.5L104.794 1076.11L102.47 786.75L102.528 718.355C109.665 714.748 114.606 708.813 120.801 703.938C147.81 682.681 175.004 660.581 198.145 635.118C203.302 629.444 205.734 629.583 213.205 629.227Z"/>
	<path fill="#771D01" transform="scale(0.0585938 0.0585938)" d="M1700.87 1507.01C1703.27 1509.47 1703.74 1509.68 1703.8 1513.22L1703.7 1514.01C1692.34 1532.3 1678.08 1547.88 1663.95 1564L1631.64 1600.64C1591.22 1642.67 1545.01 1682.37 1496 1714C1488.88 1718.59 1481.28 1725.06 1473.65 1728.44C1462.14 1733.53 1450.76 1742.23 1439.73 1748.54L1392 1773.21C1373.66 1782.69 1354.02 1790.36 1334.85 1798.01C1328.87 1800.39 1323.04 1803.71 1317.06 1805.86C1263.1 1825.23 1207.03 1840.26 1150.09 1847.86C1139.3 1849.3 1128.42 1851.82 1117.53 1851.79C1103.93 1851.74 1089.46 1854.33 1075.72 1855.16C1038.85 1857.37 1001.83 1856.71 965 1854.24C954.807 1853.56 943.635 1853.43 933.717 1850.99C940.27 1850.39 946.495 1850.67 953.051 1851.03C954.916 1851.13 960.465 1851.87 962 1851.32C962.967 1850.97 963.66 1850.11 964.49 1849.5L955.147 1848.41L954.355 1847.15L1023.81 1850.04C1085.09 1849.82 1147.93 1844.52 1207.91 1831.67C1264.67 1819.51 1319.72 1799.98 1372.22 1775.39L1361.79 1766.65C1356.8 1761.86 1350.93 1757.95 1345.19 1754.17C1344.4 1750.66 1331.17 1742.04 1328 1739.85L1274.46 1698.81C1209.25 1651.66 1142.93 1604.97 1071.97 1566.64L1075.78 1564.51L1192.55 1635.62C1195.02 1637.11 1199.36 1640.6 1202.01 1641.13L1236.39 1664.97C1244.3 1670.89 1251.7 1675.89 1258.62 1683.04L1274.09 1693.31C1286.1 1701.55 1297.36 1711.13 1308.65 1720.35C1314.14 1724.83 1319.7 1730.18 1325.83 1733.7C1328.78 1736.15 1336.43 1743.95 1339.86 1744.52L1375.88 1774.87L1401.67 1762.59L1424.69 1750.08C1427.37 1748.55 1430.17 1745.98 1433.2 1745.45C1437.61 1744.68 1442.89 1740.06 1446.86 1737.72C1468.36 1725.04 1489.82 1712.14 1510.02 1697.42C1518.4 1691.31 1526.2 1684.28 1534.28 1677.77C1542.93 1672.1 1550.62 1665.27 1558.67 1658.82C1580.25 1641.52 1601.1 1622.41 1620.11 1602.28C1624.18 1598.86 1627.59 1594.77 1631.12 1590.8C1636.4 1586.34 1641.37 1580.21 1646.19 1575.2C1665.13 1555.54 1682.68 1533.84 1697.65 1511.04L1700.87 1507.01Z"/>
	<path fill="#427AA1" transform="scale(0.0585938 0.0585938)" d="M390.91 517.198C392.964 514.104 395.926 511.769 398.143 508.779C401.95 503.642 405.191 497.534 408.419 492C428.974 456.754 443.521 416.165 456.101 377.5L474.587 318.45C491.811 317.105 508.153 313.04 525 309.714C529.508 308.824 533.966 308.704 538.5 307.583L554.606 303.558C558.502 302.424 561.981 300.824 566.087 300.498C567.658 300.374 568.453 300.362 569.953 299.748C577.698 296.573 586.416 295.393 594.5 293.433L645 279.916C648.052 279.019 651.229 278.57 654.201 277.579L662.668 274.934C671.188 271.565 680.148 269.889 688.635 266.929L1025.24 140.196C1025.69 140.066 1027.69 139.587 1028 139.616C1029.51 139.759 1032.41 141.491 1034 142.058L1050.45 148.071C1065.76 153.9 1081.13 158.679 1096.13 165.459C1099.76 167.101 1103.57 167.755 1107.07 169.769C1108.33 170.492 1108.98 171.062 1110.48 171.16C1112.56 171.297 1113.39 171.152 1115.27 172.31C1120.46 175.507 1126.81 177.194 1132.55 179.22L1152.06 186.644L1196.84 204.506C1210.84 209.444 1226.42 213.861 1239.63 220.489C1249.13 225.259 1259.97 228.36 1270.06 231.707C1274.02 234.317 1278.12 235.324 1282.5 236.927C1286.8 238.497 1290.93 240.569 1295.28 241.967C1303.55 244.619 1312.65 246.758 1320.22 251.065C1321.93 252.033 1322.84 252.201 1324.7 252.535C1333.21 254.068 1341.62 257.712 1349.61 260.906L1363.93 265.384C1366.27 266.204 1369.32 267.76 1371.75 267.891L1372.62 268.202L1537.94 311.806C1540.78 312.337 1543.64 313.607 1546.5 313.852C1548.52 314.025 1550.57 313.298 1552.57 313.5C1559.27 314.179 1564.28 317.737 1571.5 315.795C1574.86 319.922 1575.9 326.913 1577.41 332.045L1584.92 354.5L1610.25 418.968C1632.35 471.645 1665.06 519.875 1698.96 565.5C1703.24 571.261 1706.43 577.719 1710.59 583.5C1736.59 619.621 1765.74 653.807 1798.37 684.118C1812.4 697.154 1825.97 709.481 1841.88 720.296C1843.94 721.697 1851.89 725.634 1852.74 727.426C1854.13 730.356 1853.84 738.251 1854 741.719C1854.22 746.62 1853.84 752.37 1854.91 757.1L1855.85 777.048L1859.79 847.141L1860.11 917.5L1861.11 950.644C1861.12 998.809 1859.53 1047.15 1853.74 1095C1848.08 1141.79 1837.74 1188 1826.81 1233.77C1825.55 1239.07 1822.8 1243.93 1821.36 1249.2C1815.16 1271.92 1808.61 1295.44 1800.33 1317.52C1795.97 1329.14 1788.4 1341.5 1785.72 1353.4L1784.61 1354.01L1784.17 1354.13C1783.61 1354.1 1782.97 1354.21 1782.5 1353.92C1781.07 1353.02 1777.56 1346.05 1776.48 1344.37L1750.73 1304.41L1707.96 1242.46C1674.7 1195.02 1640.39 1147.92 1603.12 1103.5L1555.62 1049.79L1512.96 1004.03C1507.69 998.757 1502.85 992.567 1496.86 988.142C1489.91 979.416 1481.07 971.565 1473.09 963.758L1420.43 914.311C1320.75 822.565 1210.32 745.448 1091.22 680.979L1014.79 641.5L984.169 627.417C978.893 624.038 972.117 621.835 966.393 619.156L905.64 593.577L798.825 556.039C795.219 554.543 791.626 554.471 787.883 553.336C763.659 545.991 739.285 540.605 714.471 535.63C708.962 534.526 702.361 532.148 696.867 531.969C687.646 531.668 677.466 528.609 668.275 527.131L614.402 519.891C572.345 514.522 528.9 514.093 486.596 514.784C477.229 514.937 465.577 512.253 456.679 513.909C452.885 514.615 450.353 514.971 446.5 514.601L446.831 513.114C434.004 512.689 420.122 515.302 407.272 516.501C402.518 516.945 396.973 518.144 392.298 517.369L390.91 517.198Z"/>
	<path fill="#064789" transform="scale(0.0585938 0.0585938)" d="M390.91 517.198C392.964 514.104 395.926 511.769 398.143 508.779C401.95 503.642 405.191 497.534 408.419 492C428.974 456.754 443.521 416.165 456.101 377.5L474.587 318.45C491.811 317.105 508.153 313.04 525 309.714C529.508 308.824 533.966 308.704 538.5 307.583L554.606 303.558C558.502 302.424 561.981 300.824 566.087 300.498C567.658 300.374 568.453 300.362 569.953 299.748C577.698 296.573 586.416 295.393 594.5 293.433L645 279.916C648.052 279.019 651.229 278.57 654.201 277.579L662.668 274.934C671.188 271.565 680.148 269.889 688.635 266.929L1025.24 140.196C1025.69 140.066 1027.69 139.587 1028 139.616C1029.51 139.759 1032.41 141.491 1034 142.058L1050.45 148.071C1065.76 153.9 1081.13 158.679 1096.13 165.459C1099.76 167.101 1103.57 167.755 1107.07 169.769C1108.33 170.492 1108.98 171.062 1110.48 171.16C1112.56 171.297 1113.39 171.152 1115.27 172.31C1120.46 175.507 1126.81 177.194 1132.55 179.22L1152.06 186.644L1196.84 204.506C1210.84 209.444 1226.42 213.861 1239.63 220.489C1249.13 225.259 1259.97 228.36 1270.06 231.707C1274.02 234.317 1278.12 235.324 1282.5 236.927C1286.8 238.497 1290.93 240.569 1295.28 241.967C1303.55 244.619 1312.65 246.758 1320.22 251.065C1321.93 252.033 1322.84 252.201 1324.7 252.535C1333.21 254.068 1341.62 257.712 1349.61 260.906L1363.93 265.384C1366.27 266.204 1369.32 267.76 1371.75 267.891L1372.62 268.202L1537.94 311.806C1540.78 312.337 1543.64 313.607 1546.5 313.852C1548.52 314.025 1550.57 313.298 1552.57 313.5C1559.27 314.179 1564.28 317.737 1571.5 315.795C1574.86 319.922 1575.9 326.913 1577.41 332.045L1584.92 354.5L1610.25 418.968C1632.35 471.645 1665.06 519.875 1698.96 565.5C1703.24 571.261 1706.43 577.719 1710.59 583.5C1736.59 619.621 1765.74 653.807 1798.37 684.118C1812.4 697.154 1825.97 709.481 1841.88 720.296C1843.94 721.697 1851.89 725.634 1852.74 727.426C1854.13 730.356 1853.84 738.251 1854 741.719C1854.22 746.62 1853.84 752.37 1854.91 757.1L1855.85 777.048L1859.79 847.141L1860.11 917.5L1861.11 950.644C1861.12 998.809 1859.53 1047.15 1853.74 1095C1848.08 1141.79 1837.74 1188 1826.81 1233.77C1825.55 1239.07 1822.8 1243.93 1821.36 1249.2C1815.16 1271.92 1808.61 1295.44 1800.33 1317.52C1795.97 1329.14 1788.4 1341.5 1785.72 1353.4L1784.61 1354.01L1784.17 1354.13C1783.61 1354.1 1782.97 1354.21 1782.5 1353.92C1781.07 1353.02 1777.56 1346.05 1776.48 1344.37L1750.73 1304.41L1707.96 1242.46C1674.7 1195.02 1640.39 1147.92 1603.12 1103.5L1555.62 1049.79L1512.96 1004.03C1507.69 998.757 1502.85 992.567 1496.86 988.142C1489.91 979.416 1481.07 971.565 1473.09 963.758L1420.43 914.311C1320.75 822.565 1210.32 745.448 1091.22 680.979L1014.79 641.5L984.169 627.417C978.893 624.038 972.117 621.835 966.393 619.156L905.64 593.577L798.825 556.039C795.219 554.543 791.626 554.471 787.883 553.336C763.659 545.991 739.285 540.605 714.471 535.63C708.962 534.526 702.361 532.148 696.867 531.969C687.646 531.668 677.466 528.609 668.275 527.131L614.402 519.891C572.345 514.522 528.9 514.093 486.596 514.784C477.229 514.937 465.577 512.253 456.679 513.909C452.885 514.615 450.353 514.971 446.5 514.601L446.831 513.114L483.2 510.085L536.127 508.752L559.205 509.297C562.447 509.415 566.436 510.045 569.621 509.627C621.4 512.351 672.414 518.768 723.226 529.108C734.182 531.337 745.724 532.732 756.455 535.73L816.35 551.323L914.5 583.161L962.5 599.574C1011.53 618.658 1058.86 642.387 1105.5 666.605L1239.73 744.34L1286.02 776.487L1356.56 830.191L1586.79 1055.7C1589.17 1058.48 1594.99 1067.07 1597.9 1068.35C1603.03 1074.88 1608.08 1082.48 1613.92 1088.3L1684.04 1183.31C1687.48 1188.87 1691 1195.22 1695.54 1199.95L1733.46 1260.06L1762.84 1311.32L1772.09 1327.93L1782.96 1348.74C1788.16 1336.06 1791.6 1322.87 1796.24 1310L1818.5 1246.6L1828.18 1207.5L1848.7 1102.26C1854.6 1069.07 1855.55 1034.42 1856.65 1000.8C1858.73 937.857 1858.61 874.115 1854.56 811.275C1853.86 800.563 1855.03 788.208 1852.04 777.892C1852.04 770.951 1851.59 733.268 1849.45 728.831C1848.46 726.795 1841.72 722.861 1839.81 721.571L1817.5 705.863C1810.5 700.884 1805.15 694.367 1798.98 688.5L1779.14 670.54C1767.76 659.286 1757.27 645.91 1747.13 633.531L1728.3 611.353L1692.27 561.338C1690.54 558.855 1688.11 557.146 1686.28 554.779L1669.36 530.68C1657.64 513.764 1647.72 495.626 1637.32 477.929C1629.36 464.391 1621.16 450.921 1614.38 436.681C1596.56 399.199 1583.28 358.979 1570.73 319.522L1541.92 314.275C1539.82 313.845 1538.04 313.975 1535.97 313.243C1533.91 312.514 1535.02 312.766 1532.66 312.448C1527.49 311.752 1522.3 309.419 1517.23 309.143C1507.34 308.604 1498.02 303.692 1488.4 302.344C1485.85 301.986 1483.91 301.087 1481.5 300.51L1416.28 283.568L1370 270.039C1365.35 268.484 1360.24 267.512 1355.87 265.275C1354.62 264.636 1353.82 264.32 1352.49 263.97C1343.17 261.527 1332.22 258.655 1323.58 254.416C1307.36 246.453 1287.79 242.712 1271 235.728L1234.35 220.51L1207.98 210.744C1204.71 209.374 1201.34 208.802 1198.27 206.948L1196.95 206.139C1195.61 205.664 1193.95 205.857 1192.51 205.36L1144.66 186.338C1136.2 183.019 1127.36 180.512 1119.02 176.851C1116.45 175.722 1113.22 174.606 1111.18 172.633L1110.5 171.809C1104.61 172.312 1096.81 168.123 1091.11 166.042L1040.5 147.062C1037.57 145.983 1031.39 142.677 1028.53 142.606C1024.43 142.505 1015.92 147.107 1011.9 148.699L973.182 163.312L955.429 170.742L929.777 180.468C922.274 183.428 914.957 186.761 906.992 188.303C904.29 188.826 901.887 190.781 899.407 191.952L884.138 198.386L782.434 237.986C779.015 239.196 775.442 239.629 772 240.689C767.734 242.003 763.623 244.357 759.455 246.03L738.883 253.172L648.5 281.544L477.052 322.259L435.472 439.732C434.005 443.709 432.173 446.563 431.358 450.87C428.736 454.237 426.163 459.971 424.753 464.037L407.391 496.383C403.059 504.077 398.454 511.024 392.298 517.369L390.91 517.198Z"/>
	<path fill="#427AA1" transform="scale(0.0585938 0.0585938)" d="M311.983 622.948C315.748 620.749 321.032 621.194 325.3 620.977L355.74 619.75C420.425 617.7 484.475 617.763 549 623.733L596.379 630.065C618.721 633.118 641.497 635.453 663.352 641.151L715.118 652.874C762.32 665.163 808.307 680.043 854.07 696.804C860.128 699.023 866.484 700.389 872.5 702.731L930.963 727.286C939.731 731.487 950.03 734.202 958.24 739.275L968.779 744.086L1051.19 786.409L1059.73 791.251L1059.75 791.328C1081.52 802.848 1101.94 816.644 1122.68 829.831C1159.49 853.228 1194.42 878.902 1228.74 905.844L1269.5 937.979L1360.32 1022.03L1370.67 1032.57L1522.31 1203.15L1538.22 1225.35C1547.31 1236.52 1554.94 1248.52 1563.08 1260.36L1601.61 1318.3L1653.25 1405.96L1662.49 1423.77L1686.54 1473C1690.14 1481.05 1694.46 1489.43 1696.92 1497.89C1697.85 1500.96 1698.52 1504.72 1700.87 1507.01L1697.65 1511.04C1682.68 1533.84 1665.13 1555.54 1646.19 1575.2C1641.37 1580.21 1636.4 1586.34 1631.12 1590.8C1627.59 1594.77 1624.18 1598.86 1620.11 1602.28C1601.1 1622.41 1580.25 1641.52 1558.67 1658.82C1550.62 1665.27 1542.93 1672.1 1534.28 1677.77C1526.2 1684.28 1518.4 1691.31 1510.02 1697.42C1489.82 1712.14 1468.36 1725.04 1446.86 1737.72C1442.89 1740.06 1437.61 1744.68 1433.2 1745.45C1430.17 1745.98 1427.37 1748.55 1424.69 1750.08L1401.67 1762.59L1375.88 1774.87L1339.86 1744.52C1336.43 1743.95 1328.78 1736.15 1325.83 1733.7C1319.7 1730.18 1314.14 1724.83 1308.65 1720.35C1297.36 1711.13 1286.1 1701.55 1274.09 1693.31L1258.62 1683.04C1251.7 1675.89 1244.3 1670.89 1236.39 1664.97L1202.01 1641.13C1199.36 1640.6 1195.02 1637.11 1192.55 1635.62L1075.78 1564.51L1071.97 1566.64C1142.93 1604.97 1209.25 1651.66 1274.46 1698.81L1328 1739.85C1331.17 1742.04 1344.4 1750.66 1345.19 1754.17C1350.93 1757.95 1356.8 1761.86 1361.79 1766.65L1372.22 1775.39C1319.72 1799.98 1264.67 1819.51 1207.91 1831.67C1147.93 1844.52 1085.09 1849.82 1023.81 1850.04L954.355 1847.15L955.147 1848.41L964.49 1849.5C963.66 1850.11 962.967 1850.97 962 1851.32C960.465 1851.87 954.916 1851.13 953.051 1851.03C946.495 1850.67 940.27 1850.39 933.717 1850.99C883.396 1846.32 834.424 1836.11 786 1821.94C761.669 1814.82 737.122 1807.83 713.5 1798.52L650.928 1770.25C635.073 1762.67 619.773 1755.05 604.692 1745.99C600.281 1743.34 595.285 1741.24 591.178 1738.17C590.008 1737.29 589.277 1736.79 587.915 1736.13L586 1735.18C574.179 1728.59 563.08 1720.4 551.935 1712.74L514.293 1686.11C477.535 1658.24 441.605 1626.7 410.478 1592.59C387.948 1567.9 366.137 1540.81 347.371 1513.15L318.997 1466.81C293.885 1424.37 272.008 1380.82 254.39 1334.67C250.907 1325.55 247.078 1316.08 244.346 1306.71L238.671 1285.56L227.624 1250.89C224.93 1241.26 223.288 1230.85 220.209 1221.43C216.227 1209.24 214.757 1196.05 212.095 1183.5C202.389 1137.74 195.134 1091.35 191.751 1044.67L191.069 863.311L191.769 852.37L191.821 841.779L192.14 834.035C193.943 824.61 193.08 812.834 193.128 803.161C194.072 797.155 193.716 790.476 193.968 784.362L195.598 747.438C195.854 740.939 195.308 731.861 197.97 726C199.682 725.427 200.83 724.731 202.215 723.62L220.955 709.542C242.541 692.107 263.953 672.471 283.126 652.462C291.448 643.778 298.919 634.1 306.859 625.044L309.597 624.457L311.983 622.948Z"/>
	<path fill="#064789" transform="scale(0.0585938 0.0585938)" d="M306.859 625.044L309.597 624.457C307.688 626.944 304.567 630.065 303.386 632.897C292.728 645.425 282.669 658.602 270.557 669.797L222 712.894L205.555 725.423C204.634 726.117 201.037 728.287 200.547 729.185C199.304 731.459 199.456 741.869 199.241 744.965L195.64 854.288C193.809 856.342 194.094 880.775 194.603 884.731L194.881 885.924C196.56 909.537 194.177 934.325 194.047 958.106C193.751 1012.51 195.665 1066.33 204.668 1120.08C205.596 1125.61 207.027 1141.25 210.569 1144.8L341.412 1130.09C343.337 1130.71 348.302 1130 350.489 1129.94L380.313 1128.16L477.693 1127.09L482.814 1127.11L611.867 1136.97L668.192 1146.25C706.923 1152.96 745.248 1161.89 782.5 1173.96L784.053 1174.47L796 1178.12C797.232 1178.57 798.244 1178.48 798.856 1179.64C794.507 1179.59 791.606 1178.23 787.5 1177.13C744.187 1165.55 700.496 1155.33 656.105 1148.56C579.888 1136.93 502.976 1134.29 426.041 1135.47L357.397 1136.65L268.992 1143.93L239 1147.28C229.216 1148.57 219.555 1150.64 209.672 1151.02L215.07 1174.29L225.34 1222.06L225.909 1223.88C226.471 1225.76 226.718 1227.51 226.942 1229.45C227.801 1236.89 230.586 1244.42 232.614 1251.64C240.454 1279.55 250.833 1306.46 260.508 1333.74L271.986 1362.41C272.612 1363.84 274.295 1369.03 275.353 1369.91L302.414 1426.06L400.587 1416.89C456.382 1413.5 512.836 1412.52 568.667 1415.87L664.107 1425.39L740.935 1437.36C749.832 1439.15 759.195 1440.33 767.826 1443.11L937.453 1497.29L963.351 1508.37L1075.78 1564.51L1071.97 1566.64C1028.09 1543.15 983.653 1522.72 937.5 1504.18C921.603 1497.8 904.863 1489.95 888.473 1485.22C884.78 1483.36 880.496 1482.64 876.591 1481.28L853.653 1473.69C840.286 1467.87 824.996 1464.17 810.961 1460.19C758.162 1445.21 704.302 1436.95 649.889 1430.74C584.437 1423.27 518.08 1418.83 452.176 1421.6L376 1425.9C352.643 1427.95 328.871 1432.48 305.441 1431.14L306.351 1432.61L323.837 1464.7C347.83 1505.71 374.356 1544.88 406.883 1579.71L420.104 1594.03C420.77 1594.73 422.377 1596.84 423.275 1597.11C440.916 1616.99 461.797 1635.29 481.991 1652.49C511.461 1677.59 541.339 1700.9 574.421 1721.19C580.871 1725.14 586.698 1729.74 593.5 1732.94L614.509 1745.62L637.112 1757.68L683.223 1780.04C690.053 1784.01 698.559 1786.24 705.927 1789.29L732.555 1799.04L749.098 1804.71C752.943 1805.87 757.452 1806.45 760.938 1808.37C767.611 1812.03 778.502 1813.79 786.025 1816.11C825.081 1828.15 865.911 1837.12 906.5 1842.29L936.632 1845.87C942.497 1846.38 948.56 1846.22 954.355 1847.15L955.147 1848.41L964.49 1849.5C963.66 1850.11 962.967 1850.97 962 1851.32C960.465 1851.87 954.916 1851.13 953.051 1851.03C946.495 1850.67 940.27 1850.39 933.717 1850.99C883.396 1846.32 834.424 1836.11 786 1821.94C761.669 1814.82 737.122 1807.83 713.5 1798.52L650.928 1770.25C635.073 1762.67 619.773 1755.05 604.692 1745.99C600.281 1743.34 595.285 1741.24 591.178 1738.17C590.008 1737.29 589.277 1736.79 587.915 1736.13L586 1735.18C574.179 1728.59 563.08 1720.4 551.935 1712.74L514.293 1686.11C477.535 1658.24 441.605 1626.7 410.478 1592.59C387.948 1567.9 366.137 1540.81 347.371 1513.15L318.997 1466.81C293.885 1424.37 272.008 1380.82 254.39 1334.67C250.907 1325.55 247.078 1316.08 244.346 1306.71L238.671 1285.56L227.624 1250.89C224.93 1241.26 223.288 1230.85 220.209 1221.43C216.227 1209.24 214.757 1196.05 212.095 1183.5C202.389 1137.74 195.134 1091.35 191.751 1044.67L191.069 863.311L191.769 852.37L191.821 841.779L192.14 834.035C193.943 824.61 193.08 812.834 193.128 803.161C194.072 797.155 193.716 790.476 193.968 784.362L195.598 747.438C195.854 740.939 195.308 731.861 197.97 726C199.682 725.427 200.83 724.731 202.215 723.62L220.955 709.542C242.541 692.107 263.953 672.471 283.126 652.462C291.448 643.778 298.919 634.1 306.859 625.044Z"/>
	<defs>
		<linearGradient id="gradient_0" gradientUnits="userSpaceOnUse" x1="1466.4977" y1="1185.8947" x2="938.06775" y2="1404.9932">
			<stop offset="0" stop-color="#052F41"/>
			<stop offset="1" stop-color="#2C576F"/>
		</linearGradient>
	</defs>
	<path fill="url(#gradient_0)" transform="scale(0.0585938 0.0585938)" d="M859.249 923.136L866.998 925.509C868.738 923.344 869.761 923.335 872.356 922.51L922.142 940.261L985.075 969.18C1017.63 984.506 1049.38 1000.36 1080.52 1018.5L1123.5 1045.98L1155.53 1066.68C1161.18 1070.4 1167.93 1074.14 1172.68 1078.99L1171.77 1080.43C1173.09 1082.11 1174.34 1083.18 1176 1084.49L1177.32 1085.56L1180 1087.49C1196.9 1099.65 1212.83 1114.43 1230.52 1125.3C1248.15 1136.14 1264.85 1150.24 1280.88 1163.29C1309.57 1186.63 1337.06 1210.6 1362.79 1237.21L1440.3 1325.76L1490.02 1385.5C1494.53 1391.37 1498.17 1397.93 1502.54 1403.92L1563.97 1488C1585.23 1517.52 1604.95 1547.14 1628.73 1574.85L1634.8 1583.5C1633.81 1586.16 1632.58 1588.39 1631.12 1590.8C1627.59 1594.77 1624.18 1598.86 1620.11 1602.28C1601.1 1622.41 1580.25 1641.52 1558.67 1658.82C1550.62 1665.27 1542.93 1672.1 1534.28 1677.77L1532.15 1676.73C1527.24 1668.46 1519.08 1660.66 1512.57 1653.5L1446.9 1587.29L1338.1 1485.19C1290.22 1442.99 1239.49 1403.94 1186.8 1367.98L1154.65 1345.5L1081.57 1301.67L984.417 1253.08L960.7 1243.53L930.363 1229.7C914.19 1223.1 859.568 1206.41 850.64 1195L852 1194.14C854.525 1194.83 857.502 1195.3 859.429 1197.18L860.145 1198.11L865 1198.97C868.711 1197.31 868.448 1192.02 868.473 1188.16C868.575 1172.01 865.425 1154.73 864.258 1138.5L855.5 1014.1C854.385 999.108 846.008 932.681 850.48 923.5L859.249 923.136Z"/>
	<path transform="scale(0.0585938 0.0585938)" d="M1628.73 1574.85L1634.8 1583.5C1633.81 1586.16 1632.58 1588.39 1631.12 1590.8C1627.59 1594.77 1624.18 1598.86 1620.11 1602.28C1618.84 1601.25 1619.28 1601.69 1618.22 1600.52L1617.5 1599.7L1615.5 1601.15L1613.81 1599.04L1613 1597.5L1611.09 1597.6L1609.35 1595.66C1609.28 1592.09 1608.94 1587.81 1611.24 1584.81L1615.97 1578.51L1627 1578.43C1628.48 1576.79 1628.3 1576.83 1628.73 1574.85Z"/>
	<path fill="#064789" transform="scale(0.0585938 0.0585938)" d="M872.356 922.51L922.142 940.261L985.075 969.18C1017.63 984.506 1049.38 1000.36 1080.52 1018.5L1123.5 1045.98L1155.53 1066.68C1161.18 1070.4 1167.93 1074.14 1172.68 1078.99L1171.77 1080.43C1111.57 1042.42 1047.89 1008.25 983.915 977.075C961.612 966.208 939.407 954.148 916.137 945.524C904.072 937.618 886.235 932.74 872.565 928.276L866.998 925.509C868.738 923.344 869.761 923.335 872.356 922.51Z"/>
	<path fill="#427AA1" transform="scale(0.0585938 0.0585938)" d="M406.883 1579.71C374.356 1544.88 347.83 1505.71 323.837 1464.7L306.351 1432.61L305.441 1431.14C328.871 1432.48 352.643 1427.95 376 1425.9L452.176 1421.6C518.08 1418.83 584.437 1423.27 649.889 1430.74C704.302 1436.95 758.162 1445.21 810.961 1460.19C824.996 1464.17 840.286 1467.87 853.653 1473.69L876.591 1481.28C880.496 1482.64 884.78 1483.36 888.473 1485.22C904.863 1489.95 921.603 1497.8 937.5 1504.18C983.653 1522.72 1028.09 1543.15 1071.97 1566.64C1142.93 1604.97 1209.25 1651.66 1274.46 1698.81L1328 1739.85C1331.17 1742.04 1344.4 1750.66 1345.19 1754.17C1350.93 1757.95 1356.8 1761.86 1361.79 1766.65L1372.22 1775.39C1319.72 1799.98 1264.67 1819.51 1207.91 1831.67C1147.93 1844.52 1085.09 1849.82 1023.81 1850.04L954.355 1847.15C948.56 1846.22 942.497 1846.38 936.632 1845.87L906.5 1842.29C865.911 1837.12 825.081 1828.15 786.025 1816.11C778.502 1813.79 767.611 1812.03 760.938 1808.37C757.452 1806.45 752.943 1805.87 749.098 1804.71L732.555 1799.04L705.927 1789.29C698.559 1786.24 690.053 1784.01 683.223 1780.04L637.112 1757.68L614.509 1745.62L593.5 1732.94C586.698 1729.74 580.871 1725.14 574.421 1721.19C541.339 1700.9 511.461 1677.59 481.991 1652.49C461.797 1635.29 440.916 1616.99 423.275 1597.11C422.377 1596.84 420.77 1594.73 420.104 1594.03L406.883 1579.71Z"/>
	<path fill="#427AA1" transform="scale(0.0585938 0.0585938)" d="M311.983 622.948C315.748 620.749 321.032 621.194 325.3 620.977L355.74 619.75C420.425 617.7 484.475 617.763 549 623.733L596.379 630.065C618.721 633.118 641.497 635.453 663.352 641.151L715.118 652.874C762.32 665.163 808.307 680.043 854.07 696.804C860.128 699.023 866.484 700.389 872.5 702.731L930.963 727.286C939.731 731.487 950.03 734.202 958.24 739.275L968.779 744.086L1051.19 786.409L1059.73 791.251L1059.75 791.328C1081.52 802.848 1101.94 816.644 1122.68 829.831C1159.49 853.228 1194.42 878.902 1228.74 905.844L1269.5 937.979L1360.32 1022.03L1370.67 1032.57L1522.31 1203.15L1538.22 1225.35C1547.31 1236.52 1554.94 1248.52 1563.08 1260.36L1601.61 1318.3L1653.25 1405.96L1662.49 1423.77L1686.54 1473C1690.14 1481.05 1694.46 1489.43 1696.92 1497.89C1697.85 1500.96 1698.52 1504.72 1700.87 1507.01L1697.65 1511.04C1682.68 1533.84 1665.13 1555.54 1646.19 1575.2C1641.37 1580.21 1636.4 1586.34 1631.12 1590.8C1632.58 1588.39 1633.81 1586.16 1634.8 1583.5L1628.73 1574.85C1604.95 1547.14 1585.23 1517.52 1563.97 1488L1502.54 1403.92C1498.17 1397.93 1494.53 1391.37 1490.02 1385.5L1440.3 1325.76L1362.79 1237.21C1337.06 1210.6 1309.57 1186.63 1280.88 1163.29C1264.85 1150.24 1248.15 1136.14 1230.52 1125.3C1212.83 1114.43 1196.9 1099.65 1180 1087.49L1177.32 1085.56L1176 1084.49C1174.34 1083.18 1173.09 1082.11 1171.77 1080.43L1172.68 1078.99C1167.93 1074.14 1161.18 1070.4 1155.53 1066.68L1123.5 1045.98L1080.52 1018.5C1049.38 1000.36 1017.63 984.506 985.075 969.18L922.142 940.261L872.356 922.51C869.761 923.335 868.738 923.344 866.998 925.509L859.249 923.136L692.767 881.424C653.874 874.014 613.877 870.942 574.421 868.275C493.301 862.791 411.174 861.596 330.045 868.122L251.431 877.128L213.5 883.116C209.223 883.631 201.111 882.805 197.5 884.138C196.509 884.504 195.754 885.329 194.881 885.924L194.603 884.731C194.094 880.775 193.809 856.342 195.64 854.288L199.241 744.965C199.456 741.869 199.304 731.459 200.547 729.185C201.037 728.287 204.634 726.117 205.555 725.423L222 712.894L270.557 669.797C282.669 658.602 292.728 645.425 303.386 632.897C304.567 630.065 307.688 626.944 309.597 624.457L311.983 622.948Z"/>
	<path fill="#771D01" transform="scale(0.0585938 0.0585938)" d="M194.881 885.924L194.603 884.731C194.094 880.775 193.809 856.342 195.64 854.288L195.506 881.536L196.385 881.239C204.749 878.568 214.269 877.771 222.961 876.409L293.708 867.261C383.31 856.376 474.499 855.823 564.5 861.791L649.5 868.921C684.887 873.368 720.474 880.477 755.207 888.557L852.804 915.5C859.45 917.382 865.741 920.509 872.356 922.51C869.761 923.335 868.738 923.344 866.998 925.509L859.249 923.136L692.767 881.424C653.874 874.014 613.877 870.942 574.421 868.275C493.301 862.791 411.174 861.596 330.045 868.122L251.431 877.128L213.5 883.116C209.223 883.631 201.111 882.805 197.5 884.138C196.509 884.504 195.754 885.329 194.881 885.924Z"/>
</svg>
