<?xml version="1.0" encoding="utf-8" ?>
<svg xmlns="http://www.w3.org/2000/svg" xmlns:xlink="http://www.w3.org/1999/xlink" width="120" height="120">
	<path fill="#E07A5F" transform="scale(0.0585938 0.0585938)" d="M991.306 2048L-0 2048L0 -0L981.065 0L1069.92 0L2048 0L2048 2048L1054.58 2048L991.306 2048Z"/>
	<path fill="#E17551" transform="scale(0.0585938 0.0585938)" d="M1898.56 579.326C1897.42 578.869 1897.96 579.042 1896.59 578.706L1895.56 578.458L1895.51 576.5L1893.01 575.995C1892.2 573.553 1890.33 572.248 1888.51 570.5C1890 569.006 1889.5 568.526 1889.51 566.5C1888.52 565.287 1887.95 564.886 1886.49 564.153C1884.37 563.083 1883.67 561.436 1882.33 559.5L1882.39 557L1881.71 555.5L1882.51 554L1883.5 552.51L1882.76 551L1881.01 549.995C1876.69 546.918 1880.45 546.656 1880.01 544.75L1879.54 543.516L1881.15 541.007C1888.41 553.157 1894.34 565.809 1898.56 579.326Z"/>
	<path fill="#E17551" transform="scale(0.0585938 0.0585938)" d="M263.678 1285.09C264.396 1283.58 264.045 1283.53 263.6 1282C264.625 1280.53 265.678 1279.28 266.93 1278L267.116 1328.85C266.075 1333.7 267.758 1339.42 265.714 1343.94C263.36 1344.52 263.072 1344.34 260.763 1343.5L260.404 1341.01C261.993 1342.19 262.53 1342.68 264.5 1343L265.75 1341.75L264.51 1339.5L266 1338.5C265.203 1336.64 265.232 1337.21 265.14 1335.52C265.037 1333.63 265.11 1331.87 264.735 1329.99C264.477 1328.7 264.424 1328.24 264.75 1326.94L265 1326L263.5 1324L261.75 1324.75L260.51 1324C262.791 1321.7 260.193 1322.58 259.51 1320.5C259.147 1319.39 259.525 1318.17 259.533 1317L258.51 1315.5L259.5 1315L259.51 1313C260.998 1311.5 260.503 1311.03 260.51 1309L259.265 1307.99L259.462 1304.01L260.5 1304C261.033 1306.13 261.422 1306.42 263 1308L265 1306.5L262.51 1305.5L263.5 1304.51C261.726 1302.7 262.662 1300.19 260.51 1297.5L259.5 1299L259.293 1292.5L260.75 1292.25C261.005 1295.05 261.009 1295.01 263 1297L264 1296C262.627 1294.28 263.15 1295.26 262.51 1293L264 1291.5L262.005 1290.75C262.005 1288.61 262.719 1286.96 263.678 1285.09Z"/>
	<path fill="#E17551" transform="scale(0.0585938 0.0585938)" d="M1784.51 848.5C1786.64 848.857 1785.62 848.427 1787.49 850L1786.25 852.25L1787.49 853.5L1788.5 852L1788.92 853.5C1789.9 856.074 1790.27 857.204 1790.49 860L1789.5 861L1788.25 860.995C1788.89 859.404 1788.9 858.194 1789 856.5L1787 855.245C1785.64 856.605 1786.09 859.569 1786 861.5L1789.49 862.5L1788.7 865C1789.98 867.302 1790.41 869.458 1790.92 872L1790.23 873.057C1789.1 875.051 1788.83 876.75 1789.47 878.969L1791.13 884L1790.51 884.747C1789.34 886.536 1789 889.261 1789.59 891.313L1790.95 895.5L1789.75 895.495L1788.5 893L1786 892.5L1786 900.5L1788.99 902.005L1788.99 902.995L1787.5 903C1785.8 905.035 1786.18 905.458 1786 908L1787 908.755C1788.21 907.839 1787.84 908.271 1788.69 907.078L1789.25 906.25L1790.49 907L1789.49 908.5C1789.73 909.815 1789.98 911.018 1790.42 912.284L1790.79 913.25C1790.43 915.325 1790.73 914.624 1789.79 916.359L1789.13 917.5C1790.03 920.248 1791.23 922.27 1789.99 924.995L1789.25 924.995C1789.06 922.66 1789.09 922.128 1787.75 920.25L1786.25 920.495C1786.02 923.658 1786.08 924.167 1787.49 927C1788.35 926.152 1787.76 926.5 1789.49 926.5L1789.27 929C1789.74 931.689 1791.46 932.448 1790.49 935.5C1788.98 940.228 1791.23 940.625 1790.72 944.75C1790.01 944.012 1789.22 943.173 1788.75 942.25L1788 940.5L1786.25 940.495L1786 945L1786.99 946.005C1788.66 948.801 1786.62 946.645 1788 948L1788.99 947.25L1789.15 949C1789.87 951.415 1790.95 952.153 1791.06 955C1790.33 956.511 1789.7 957.912 1789.15 959.5C1789.71 960.179 1790.14 960.61 1790.45 961.5C1791.56 964.679 1790.75 967.236 1789.49 970.216L1789.13 971L1790.5 975.44C1790.98 976.641 1791.06 977.738 1790.49 979C1789.49 981.216 1789.5 980.999 1789.49 983.5L1786.25 984.495C1786.08 987.614 1785.57 988.428 1787.49 991L1786.5 992.49L1789.49 992.5L1789.49 995C1790.84 997.045 1790.49 997.625 1790.49 1000L1789.5 1001.49C1789.73 1002.22 1790.78 1004.52 1790.79 1005.25C1790.83 1008.97 1788.61 1009.73 1789.99 1014C1790.66 1016.08 1791.09 1017.84 1791.46 1020L1789.5 1022.11C1789.48 1025.54 1788.42 1022.88 1787.5 1024.49C1786.57 1026.11 1788.02 1026.47 1786 1028.5L1786.75 1030.25C1785.92 1032.2 1787.57 1034.73 1787.75 1037.51L1788.25 1032.25L1789 1030.5C1788.08 1028.35 1788.19 1027.3 1788.25 1025.01L1788.99 1025.01L1791.36 1031C1790.44 1032.9 1789.82 1034.41 1789.49 1036.5C1790.4 1038.32 1790.66 1040 1790.99 1042L1789.71 1046.08L1788.99 1048.75L1786.25 1048.49C1786.08 1051.61 1785.57 1052.43 1787.49 1055L1786.5 1056.49C1787.37 1056.95 1788.07 1056.48 1788.99 1056.25L1789.04 1057.5L1790.48 1060C1791.53 1062.88 1791 1064.51 1789.49 1067L1788.5 1068.49L1790.35 1070.5C1790.55 1074.06 1789.99 1075.66 1789.24 1079L1788.99 1080.75L1787.75 1080.25L1786.25 1081.49L1786 1085L1787.49 1086.5L1787.25 1088.75L1788.5 1087.51L1789.79 1088.25L1789.29 1089.3L1790.49 1091.5C1790.49 1094.26 1791.25 1096.74 1789.25 1098.75L1788.75 1092.25L1786.25 1092.49L1786 1094.5C1785.92 1097.66 1787.79 1099.33 1789.33 1101.67C1791.19 1104.52 1790.98 1105.22 1790.39 1108.38L1788.99 1113.75C1787.28 1113.06 1788.19 1113.18 1786.25 1113.49C1785.98 1116.16 1786.28 1116.56 1787.49 1119L1786.25 1120.49C1786.02 1122.17 1785.81 1123.19 1786.45 1124.82C1787.22 1126.76 1786.82 1125.22 1787.3 1127.16L1787.49 1128C1789.4 1129.89 1790.35 1132.59 1791.49 1135C1789.46 1138.59 1789.16 1140.46 1789.49 1144.5L1790.7 1145.25L1790.77 1148.99L1789.25 1149.75C1789 1147.72 1788.81 1146.4 1788 1144.5L1786.25 1144.25C1786.48 1145.86 1786.63 1146.53 1786.25 1148.06L1786 1149L1787.49 1150.5L1787.49 1153.5C1787.33 1155.23 1786.86 1156.15 1787.21 1157.94L1787.49 1159L1786.5 1160.49C1787.33 1161.76 1786.91 1160.96 1787.49 1163C1785.74 1165.11 1786.15 1166.36 1786 1169L1786.99 1170.01L1787.24 1172L1788.75 1172.25L1790.12 1177.45L1790.66 1178.99L1789.5 1179L1788 1175.5L1786.25 1176.49L1786 1180C1786.64 1180.87 1787.22 1181.74 1788 1182.5L1789.49 1182.5C1789.05 1185.92 1789.77 1184.9 1790.5 1187.49C1791.19 1189.93 1789.3 1193.02 1789.49 1196C1790.9 1198.02 1790.52 1196.87 1790.5 1199.49C1788.79 1198.36 1789.18 1198.92 1788.28 1197.31L1787.75 1196.25C1786.4 1196.8 1785.87 1196.99 1784.36 1196.99L1784.07 1184C1785.23 1164.25 1782.48 1143.67 1784.06 1124C1785.51 1105.95 1783.48 1087.2 1784.17 1069L1783.84 1000.81L1784.11 928C1784.18 926.642 1784.42 925.429 1784.3 924.061C1782.25 901.913 1785.03 878.785 1784.28 856.5C1784.18 853.697 1784.23 851.291 1784.51 848.5Z"/>
	<path fill="#E5764C" transform="scale(0.0585938 0.0585938)" d="M263.678 1285.09L260.4 1280.56L259.561 1279.5C259.807 1276.38 259.795 1273.51 259.423 1270.39L259.154 1267.5L259.665 1263C259.929 1260.62 260.432 1258.51 260.51 1256C262.66 1252.76 260.499 1254.82 259.979 1252.5C259.716 1251.33 260.187 1248.17 260.368 1246.86L260.51 1246L259.51 1244.5L260.5 1243.51C262.296 1244.57 261.305 1244.06 263.5 1245L263.5 1243L259.602 1241.5L259.557 1237L261.5 1235.51L262.25 1236.75L262.505 1235.25L259.51 1232.5L259.51 1229C259.467 1227 259.457 1225.81 260.51 1224L261.51 1222.5L259.51 1220.5L259.51 1213L260.5 1212L261 1213.5C262.3 1211.57 261.814 1212.57 262.51 1210.5L260.005 1209.75C259.291 1207.95 259.455 1208.92 259.7 1206.67C259.868 1205.12 259.919 1203.81 259.752 1202.25L259.548 1200.5L261.005 1199.25L263.5 1199.51C262.203 1198.19 262.814 1198.69 261.196 1197.56L260.005 1196.75C259.343 1195.08 259.734 1193.67 260.51 1192L261.5 1190.51C259.149 1188.05 259.258 1185.26 259.239 1182.01L259.261 1180.01C259.076 1177.51 259.235 1175.51 259.51 1173L260.505 1171.75L260.005 1169.75L258.822 1166.5C259.309 1165 259.553 1163.95 259.553 1162.34L259.51 1161C260.931 1159.56 260.502 1159.42 260.51 1157.5L259.51 1156.5C259.06 1152.22 258.609 1148.44 260.005 1144.25L260.51 1143C257.782 1138.91 259.735 1130 259.51 1125C259.414 1122.86 258.785 1120.88 259.216 1118.76C259.641 1116.65 259.543 1114.64 259.51 1112.5L258.575 1111.5C260.547 1106.52 258.306 1101.35 260.005 1096.25L260.51 1095L259.51 1093.5C259.688 1092 259.81 1091.01 259.51 1089.5C259.152 1087.69 259.266 1086.81 259.533 1085L260.5 1084C260.548 1081.78 260.733 1079.89 260.005 1077.75C259.497 1076.25 259.228 1075.83 259.179 1074.12L259.166 1072.5C259.016 1069.78 258.803 1071.3 259.233 1068.88C259.756 1065.92 258.705 1064.98 260.05 1061.6L260.5 1060.51C258.553 1058.47 259.508 1047.42 259.51 1044L260.5 1042.51L259.51 1041C258.34 1038.84 258.747 1035.43 259.572 1033.23L260.51 1030.5L259.51 1029.5L259.51 1027.5C259.384 1023.2 258.744 1021.96 261.51 1018.5L259.51 1016.5C258.769 1012.71 259.463 1010.13 260.51 1006.5L259.51 1005.5C259.544 1003.14 259.351 1003.96 260.021 1001.88L260.5 1000.51L259.51 999.5C259.437 997.349 259.317 995.833 260.005 993.755L260.5 992.51L259.532 991.5C259.495 989.211 259.374 990.063 259.751 988.196C259.945 987.232 260.113 986.949 260.005 985.995C259.698 983.29 258.794 980.253 259.125 977.5C259.755 972.254 258.999 967.735 260.51 962.5L259.51 961.5L259.859 957.5C259.448 955.448 259.251 955.1 259.51 953L260.5 951.51L260.005 949.995C259.122 947.5 258.826 943.67 260.028 941.222L260.51 940.5L259.726 936.841L259.51 936L260.5 934.51L259.349 933.193C259.653 931.072 259.404 929.518 261 928L263.51 929.5L263.005 926.995C261.765 926.547 260.699 926.094 259.51 925.5L259.189 917.909L259.048 916.5L260 915.755L261.51 915C258.628 910.848 258.964 909.888 259.5 905C261.347 903.467 260.755 904.357 261.51 902.5C260.339 901.244 259.755 900.363 259.161 898.75C260.211 894.661 257.844 890.397 258.953 886.171L259.274 885.193L259.712 878L259.274 876.005L260.505 875.75C260.247 874.586 259.966 873.606 259.495 872.5L259.048 871.5L259.5 869.822C259.789 865.093 258.388 859.5 261.005 855.25C262.803 856.605 262.672 858.399 263 860.5C262.173 862.429 262.106 863.445 262 865.5C262.995 867.496 262.726 866.571 263.047 868.972L263.25 870.75C263.797 868.388 263.412 866.813 263.51 864.5C263.591 862.578 264.043 861.71 263.77 859.656C263.293 856.058 263.947 852.596 263.755 849C263.665 847.319 263.467 845.841 263.632 844.156C263.808 842.366 263.572 841.182 263 839.49C261.576 838.544 260.684 837.714 259.51 836.5C259.351 832.979 258.283 826.784 260.5 824C262.73 826.23 261.244 827.044 262 829.5L262.75 831.25L262.25 832.25C261.688 834.764 261.861 835.806 263.25 837.75L264 836.5C263.631 833.299 263.997 830.173 263.755 827C263.272 820.676 262.929 813.308 263.755 807L264 805.5C264.002 799.69 264.008 793.347 263.51 787.5L262.005 787.75C261.363 786.129 261.779 786.722 260.479 785.422L259.51 784.5L259.902 782.5C259.987 780.308 259.322 779.415 260.005 777.005L261.5 776.51C261.517 773.016 260.889 775.062 260.005 772.75C259.17 770.567 259.93 766.86 259.655 764.438L259.51 763.5L261.005 761.25C262.113 759.134 260.748 760.77 262.5 759L263 760.5C262.116 762.563 262.098 763.792 262 766L263 767.5L262.219 771.156L262 772L263.25 773.75C263.548 772.346 263.787 771.085 263.787 769.641L263.755 760C263.739 757.127 264.171 754.122 263.893 751.281C263.59 748.188 264.041 745.06 263.755 742C263.556 739.87 263.706 738.654 264 736.5L262.25 735.495L262 738C262.173 739.216 262.757 740.721 263 742L262.005 742.75C260.473 739.74 260.135 737.313 259.643 734L261 732.51L262 733.5L263.5 732.51C263.988 729.62 264.192 725.089 263.908 722.188L263.755 721L263.51 718.5L262.755 717C262.123 714.788 262.725 714.655 263.755 713C263.814 710.614 264.079 709.649 263 707.49L261.51 706.5L261.25 703.25L261 707L260.21 707.5L260.112 702.5L262 701.51L263.75 702.505L263.755 694C263.942 691.908 263.859 690.849 263.102 688.844L262.755 688L263.982 687.25C267.739 694.977 265.636 1086.65 265.649 1120.94L265.538 1186.48C265.529 1193.38 264.057 1204.45 266.242 1210.92L266.872 1212.64L267.057 1255.72C267.056 1262.91 267.754 1270.89 266.93 1278C265.678 1279.28 264.625 1280.53 263.6 1282C264.045 1283.53 264.396 1283.58 263.678 1285.09Z"/>
	<path fill="#3D405B" transform="scale(0.0585938 0.0585938)" d="M991.306 2048L-0 2048L0 -0L981.065 0L979.576 0.806034C970.818 5.33122 956.555 6.80414 946.884 9.5C928.685 14.5732 911.614 22.034 895.053 31.1043C851.512 54.9521 810.328 84.4372 768.742 111.57L540.337 261.37L358.804 380.24C309.9 412.132 258.462 442.697 214.829 481.693C185.535 507.874 161.134 539.183 148.115 576.686C140.032 599.969 135.283 624.375 133.736 648.965C130.888 694.248 133.356 740.573 133.568 785.966L133.938 1027.01L133.849 1246.78C133.792 1284.72 131.283 1324.21 134.423 1361.99C136.817 1390.78 143.765 1420.27 156.724 1446.23C177.105 1487.07 209.671 1518.44 245.917 1545.19C255.923 1552.57 266.93 1559.14 276.611 1566.85C281.818 1570.99 288.719 1574.32 294.418 1577.94L353.532 1614.5L469.215 1692.53L518.06 1725.29L642.121 1818.06L780.841 1921.8C814.774 1947.4 847.504 1975.39 882.868 1998.92C904.314 2013.2 925.753 2024.72 950.087 2033.33C958.333 2036.25 987.044 2042.91 991.306 2048Z"/>
	<path fill="#3D405B" transform="scale(0.0585938 0.0585938)" d="M1069.92 0L2048 0L2048 2048L1054.58 2048C1055.53 2046.94 1056.19 2046.09 1057.55 2045.54C1062.77 2043.41 1069.66 2042.99 1075.22 2041.6C1086.09 2038.87 1096.86 2035.3 1107.27 2031.14C1132.78 2020.92 1157.17 2006.36 1179.55 1990.42L1278.41 1913.24L1404.4 1818.46L1492.36 1751.98L1629.58 1659.59L1723.82 1596.41C1738.25 1586.89 1752.43 1576.32 1767.5 1567.86C1778.16 1561.88 1789.29 1552.73 1799.13 1545.33C1839.67 1514.86 1874.83 1481.32 1895.71 1434.22C1906.55 1409.77 1912.23 1385.44 1914.24 1358.82C1915.25 1345.3 1914.75 1331.48 1914.62 1317.92L1914.05 1254.29L1913.87 1048.24L1913.93 801.627C1914.05 756.456 1916.27 710.369 1913.7 665.309C1912.09 636.939 1908.93 605.993 1898.56 579.326C1894.34 565.809 1888.41 553.157 1881.15 541.007C1878.14 534.519 1873.24 527.84 1869.08 521.971C1852.47 498.53 1829.79 477.801 1807.29 460.072C1788.63 445.374 1768.55 432.624 1748.68 419.672L1684.97 377.776L1459.31 230.758L1260.85 101.224C1227.04 79.0791 1194.23 55.2615 1159.11 35.2171C1139.77 24.1826 1118.81 16.0378 1097.7 9.13693C1089.66 6.51108 1078.88 4.80273 1071.6 0.928766L1069.92 0Z"/>
	<path fill="#3D405B" transform="scale(0.0585938 0.0585938)" d="M266.872 1212.64L267.275 826.515L267.573 715.18C267.693 692.821 266.804 669.765 269.499 647.556C271.101 634.357 276.709 621.773 282.484 609.947C292.934 588.546 313.614 568.727 332.322 554.376C356.742 535.644 384.109 520.692 410.031 504.16L536.868 421.416L833.037 227.769L901.373 181.555C927.875 163.546 953.973 146.517 984.54 135.997C1018.58 124.281 1054.97 131.352 1086.57 146.951C1114.27 160.62 1138.04 180.342 1163.91 196.849L1350.61 317.041L1597.75 476.508L1662.96 518.768C1685.2 532.862 1708.72 546.656 1729.13 563.349C1747.29 578.2 1763.02 598.643 1770.48 620.979C1775.49 635.989 1777.75 651.603 1778.83 667.354C1781.98 713.174 1780.82 759.717 1780.95 805.62L1781.18 1028.79L1780.99 1227.96C1780.92 1263 1782.65 1298.98 1780.02 1333.88C1778.53 1353.49 1775.16 1372.41 1766.32 1390.16C1756.93 1409.01 1742.21 1424.6 1725.5 1437.25C1702.09 1454.97 1675.39 1469.25 1650.5 1484.78L1590.68 1524.07L1536.59 1559.99L1388.18 1669.5L1144.4 1849.64L1099.88 1882.55C1083.75 1894.35 1067.38 1906.64 1048.1 1912.85C1026.51 1919.8 1003.26 1916.73 983.355 1906.2C973.462 1900.97 964.408 1894.08 955.247 1887.69L903.573 1849.34L817.732 1784.74L628 1645.88L518.297 1567.26L485.626 1543.68L406.756 1491.99C373.195 1470.29 334.053 1452.79 305.88 1423.96C287.818 1405.47 274.766 1381.94 270.102 1356.44L267.116 1328.85L266.93 1278C267.754 1270.89 267.056 1262.91 267.057 1255.72L266.872 1212.64Z"/>
	<path fill="#E07A5F" transform="scale(0.0585938 0.0585938)" d="M741.875 1267.5C749.901 1265.52 762.035 1270.12 769.914 1272.3C807.126 1282.6 846.317 1297.43 885 1299.92C904.404 1301.17 927.847 1297.92 946.219 1291.72L970.824 1353.68C965.534 1360.48 954.991 1366.46 948.275 1372.3L902.121 1415L844.588 1471.16C836.38 1477.74 824.342 1481.72 813.802 1480.27C803.34 1478.83 795.999 1472.23 790.15 1463.92C785.997 1458.02 782.885 1451.57 780.309 1444.85C770.81 1420.06 764.285 1393.65 756.208 1368.31C748.771 1344.97 739.148 1321.08 733.566 1297.31C732.283 1291.86 731.25 1285.95 732.429 1280.39C733.691 1274.44 736.929 1270.74 741.875 1267.5Z"/>
	<path fill="#E07A5F" transform="scale(0.0585938 0.0585938)" d="M527.351 1104.73C505.687 1097.94 482.283 1091.4 462.62 1079.99C452.002 1073.83 442.849 1065.56 439.58 1053.31C436.135 1040.41 439.377 1026.06 446.428 1014.85C451.325 1007.06 460.115 1000.54 468.182 996.318C482.308 988.92 497.546 983.99 512.556 978.775L566.123 959.854L649.539 929.494C666.171 923.625 684.11 916.54 701.363 913.245C703.981 912.745 705.937 913.056 708.5 913.543L710.415 913.879C722.476 916.039 732.16 922.463 740.756 931.031C763.048 953.248 779.776 981.892 798.279 1007.21L858.174 1090.5L919.509 1175.79C923.175 1181.14 927.58 1187.44 926.441 1194.29C925.215 1201.67 920.054 1205.67 914.205 1209.46C909.11 1212.76 903.512 1216.15 897.611 1217.71C887.151 1220.48 871.79 1218.22 861.334 1215.95L613.235 1135.71L587.093 1126.47L571.341 1120.62L527.351 1104.73Z"/>
	<path fill="#E17551" transform="scale(0.0585938 0.0585938)" d="M587.093 1126.47L590.005 1124.25L593.505 1124.75L592.25 1122.16C593.547 1122.59 594.749 1123.24 596 1123.67L598.045 1123.84C601.561 1124.13 604.028 1126.4 607.318 1127.5L607.812 1128.44C608.681 1129.92 608.341 1129.4 610 1130.5L611 1129.64L615.49 1132.5L615.455 1134.46C614.784 1134.76 613.543 1135.04 613.235 1135.71L587.093 1126.47Z"/>
	<path fill="#E17551" transform="scale(0.0585938 0.0585938)" d="M527.351 1104.73C530.424 1103.75 532.226 1103.28 535.5 1104L537.5 1102.88L540 1104.9L542.599 1103.4C544.723 1104.68 546.709 1105.85 549.049 1106.69C551.665 1107.64 549.885 1106.78 552.064 1108.51C554.608 1110.52 557.221 1111.16 560 1112.51C560.666 1112.83 561.422 1113.51 562 1114L563.5 1113.51C564.962 1114.48 566.196 1114.92 567 1116.51L570.5 1116.51L572.325 1118.91L571.341 1120.62L527.351 1104.73Z"/>
	<path fill="#E07A5F" transform="scale(0.0585938 0.0585938)" d="M1083.16 1024.69C1082.37 1026.3 1079.45 1028.51 1078.14 1029.81L1065.25 1042.64L1007.66 1099.62C1001.86 1104.88 995.851 1109.56 989.39 1113.97C974.149 1100.43 962.025 1079.18 950.208 1062.62L885.213 971.215L855.041 929C847.714 918.851 840.123 908.947 833.93 898.042C870.507 877.981 910.08 863.095 948.5 846.975L1126.31 772.402L1392.53 660.704L1452.16 635.047C1467.65 628.114 1483.14 620.508 1499 614.5C1507.55 611.261 1520.13 605.291 1529 607.869C1554.02 615.14 1602.13 659.075 1614.14 683.065C1617.4 689.562 1619.76 696.812 1617.44 703.923C1614.47 716.448 1604.72 729.481 1597.86 740.397L1567.2 788.832C1566.71 790.775 1565.68 791.887 1564.53 793.475C1549.12 814.746 1536 838.786 1521.92 861.065C1498.42 898.248 1255.43 1285.67 1254.69 1285.93L1173.55 1421.06C1168.64 1432.94 1158.41 1447.32 1148.2 1455.18C1141.94 1460 1133.43 1463.15 1125.5 1461.94C1113.48 1460.11 1103.47 1453.77 1096.3 1443.99C1090.48 1436.05 1086.04 1426.5 1082.15 1417.47L1063.92 1368.94L1030.97 1287.56C1026.12 1275.44 1021.35 1263.39 1017.48 1250.91C1016.34 1247.23 1014.11 1241.89 1013.85 1238.09C1013.79 1237.17 1015.17 1234.51 1015.6 1233.6C1019.15 1226.08 1024.05 1218.52 1028.64 1211.59C1042.64 1190.41 1057.08 1169.85 1073.53 1150.47C1108.53 1109.24 1149.38 1071.89 1187.77 1033.79L1326.96 895.963L1372.95 851.64C1383.64 841.82 1395.45 832.767 1404.92 821.725C1411.34 814.238 1417.82 804.627 1419.1 794.606C1420.72 781.934 1415.76 768.577 1407.71 758.851C1401.27 751.058 1391.19 743.353 1380.69 742.84C1371.53 742.392 1363.87 748.416 1357.02 753.779C1340.27 766.907 1325.54 784.257 1310.43 799.311L1209.56 899.687C1193.2 915.932 1177.14 934.251 1159.51 948.958L1158.04 950.165L1083.16 1024.69Z"/>
	<path fill="#E17551" transform="scale(0.0585938 0.0585938)" d="M1567.2 788.832L1565.14 786.656C1567.3 782.523 1565.92 777.407 1568 773.805L1571 773.51L1571.51 772.5L1570.51 771C1571.61 768.801 1571.25 768.276 1573.68 767.403L1575 768.5C1577.8 767.115 1577.86 765.448 1579.55 762.911L1580.5 761.51C1580.5 759.311 1579.99 759.486 1578.51 758C1579.38 756.941 1580.01 756.242 1580.35 754.878L1580.51 754C1581.63 752.957 1582.25 752.559 1583.01 751.25C1583.52 750.349 1583.92 749.377 1584.5 748.51L1588 748.51L1588.14 747.5C1589.15 744.518 1590.76 743.105 1593.5 742C1592.62 740.04 1592.76 741.042 1593.01 739.005C1594.85 738.394 1595.21 737.891 1596.5 736.51L1595.51 734L1597.01 732.005C1598.22 730.937 1599.34 730.202 1600.5 729L1599.51 726.5C1600.73 725.724 1601.74 725.019 1603.16 724.659L1604 724.5L1604.51 722L1603.17 720.337C1603.63 717.174 1605.52 715.619 1606.24 712.25C1607.23 714.629 1606.79 714.83 1606.23 717.23L1607.5 717.51L1609.5 715.51C1609.52 713.967 1609.37 714.728 1610.26 712.937L1611 711.5C1610.71 710.131 1610.5 709.059 1610.5 707.649L1612.49 708.5L1613.51 706C1614.67 704.166 1615.51 704.116 1617.44 703.923C1614.47 716.448 1604.72 729.481 1597.86 740.397L1567.2 788.832Z"/>
	<path fill="#E17551" transform="scale(0.0585938 0.0585938)" d="M1083.16 1024.69C1081 1023.33 1081.89 1024.22 1080.51 1022L1081.5 1020.51L1080.51 1018.5L1083 1016.51L1084.01 1015C1085.29 1016.94 1084.43 1016.31 1086.5 1017L1099.75 1003.75L1098.75 1002.25L1096.63 1004.61L1094.51 1004L1096 1002.51C1097.61 1000.52 1098.73 1000.11 1101.01 999.005L1102.25 1000.75L1104.51 998.75L1107 996.5C1108.4 994.786 1108.5 993.712 1110.5 992.438L1111.75 991.75L1110.51 989L1111.49 987.5C1112.78 985.907 1115.07 983.714 1116.61 982.289C1117.81 981.174 1118.46 981.027 1119.16 979.465C1119.89 977.824 1121.03 977.339 1122.46 976.25L1123.51 976.425L1121.23 980.31L1122.5 981L1126 976.755L1127.5 975.51L1127.51 974.5L1125.18 974.427L1125.25 973.005L1128 971.5C1128.28 969.935 1127.98 969.896 1129 968.966L1131.5 967C1133.23 965.327 1133.6 964.702 1136 963.755L1137.5 965C1139.83 964.003 1139.31 964.122 1140.25 962.005C1142.97 960.442 1143.37 960.331 1144.51 957.5L1147 956.755L1148.5 957L1149.51 955.75L1152.01 953.25C1152.88 951.987 1153.44 950.828 1154.5 949.574L1158.04 950.165L1083.16 1024.69Z"/>
	<path fill="#E17551" transform="scale(0.0585938 0.0585938)" d="M1173.55 1421.06C1172.78 1418.3 1172.09 1417.53 1173.76 1415L1175.75 1412.51C1177 1410.32 1176.39 1409.23 1175.75 1407L1177.51 1405L1178.51 1403.75L1181 1401.51L1181.32 1400.66L1182.75 1397.51L1183.51 1395L1184.5 1394L1182.51 1392C1183.65 1390.29 1183.31 1391 1183.93 1389.52C1185.11 1386.72 1186.03 1383.88 1188.21 1381.69C1189.58 1380.31 1189.26 1381.01 1189.9 1379.02C1190.45 1377.32 1190.11 1377.53 1191 1375.86C1191.69 1374.57 1192.22 1373.87 1193.55 1373.37L1193.05 1376.55L1193.51 1377L1195.57 1374.16L1196.51 1373L1194.51 1370.5L1195.01 1368.01C1196.44 1368.38 1197.31 1368.61 1198.8 1368.31L1200.01 1368.01L1201.75 1367.75L1201.01 1366.25C1203.09 1364.51 1203.48 1362.02 1205.75 1359.75C1206.1 1357.46 1206.23 1356.26 1207.56 1354.27L1208.51 1353L1206.84 1351.33C1207.05 1349.93 1206.87 1350.54 1207.45 1349.22L1208.01 1348.01C1208.66 1346.35 1208.77 1345.68 1210.02 1344.3L1211.01 1343.25C1211.57 1342.38 1211.92 1341.38 1212.5 1340.51L1214.5 1342.51L1216.5 1341C1215.63 1339.36 1215.07 1337.77 1214.51 1336L1216.25 1333.27L1217.52 1333.28L1217.09 1336.09L1218.49 1337.5C1219.16 1335.53 1218.78 1336.34 1219.91 1334.41L1220.76 1333L1220.14 1331.5L1221 1330.51L1221.25 1329.01C1223.04 1328.5 1223.96 1327.98 1225.5 1327C1225.52 1324.47 1227.85 1322.81 1229 1320.5L1227.96 1319.59L1226.51 1318.5L1227.01 1316.01L1228 1317.5L1229.5 1316.51L1231.5 1317L1233.51 1315C1232.64 1313.83 1232.01 1313.5 1232.01 1312.01L1234.5 1311.51C1235.41 1309.66 1236.88 1310.5 1237.5 1309.51C1237.66 1309.25 1237.36 1306.92 1237.51 1306.5C1237.84 1305.61 1240.69 1303.32 1241.5 1302.51L1239.51 1300.5L1240.01 1298.01L1241.5 1299L1244 1297.51L1244.25 1296.01L1246.5 1295C1246.51 1292.35 1246.96 1292.17 1248.57 1290.16L1249.51 1289L1248.51 1287.5L1253.46 1283.6L1254.69 1285.93L1173.55 1421.06Z"/>
</svg>
